<svg width="90" height="30" viewBox="0 0 90 30" fill="none" xmlns="http://www.w3.org/2000/svg">
<path d="M44.9599 28.329C20.6015 28.329 0.870438 28.6503 0.870438 29.1645C0.870438 29.6144 20.6015 30 44.9599 30C69.3184 30 89.0494 29.6144 89.0494 29.1645C89.0494 28.6503 69.3184 28.329 44.9599 28.329Z" fill="#8FA2E3" fill-opacity="0.4"/>
<path d="M26.8845 24.1227L26.8837 24.1341L26.8824 24.1455C26.8517 24.4064 26.8234 24.6211 26.7995 24.8036C26.7705 25.0243 26.7477 25.1978 26.7342 25.3487C26.7256 25.445 26.723 25.5121 26.7241 25.5591C26.7512 25.5659 26.7886 25.5739 26.8389 25.5823C26.9612 25.6028 27.0921 25.6178 27.2587 25.6369C27.4128 25.6546 27.5974 25.6758 27.8339 25.708H64.8673C65.1943 25.6866 65.479 25.6789 65.6938 25.6731C65.791 25.6705 65.874 25.6683 65.9399 25.6653C65.9453 25.6651 65.9506 25.6649 65.9557 25.6646C65.936 25.5645 65.9113 25.4571 65.881 25.3258C65.8439 25.1643 65.7984 24.9668 65.7438 24.7026L65.7418 24.6931L65.7402 24.6835C65.6072 23.8854 65.5406 23.0867 65.5406 22.2875C65.5406 17.1887 69.6874 13.111 74.7171 13.111C79.8087 13.111 83.9579 17.1863 83.9579 22.2875C83.9579 22.6047 83.9357 22.9216 83.8914 23.2381C83.8777 23.4553 83.8641 23.6378 83.8524 23.7945C83.8354 24.0214 83.8225 24.1944 83.8192 24.3416C83.8171 24.4293 83.8201 24.4863 83.8234 24.5214C83.8565 24.5302 83.9101 24.5422 83.9929 24.5548C84.1062 24.572 84.2449 24.5874 84.4275 24.6077C84.5962 24.6264 84.7947 24.6484 85.0237 24.6784L86.6522 24.6158L86.6618 24.6154H86.6714C87.0804 24.6154 87.5424 24.4564 87.8295 24.2172L87.8457 24.2037L87.8629 24.1916C88.3029 23.8836 88.4871 23.3984 88.6163 22.1722C88.6798 21.5367 88.7422 20.6564 88.7422 20.0381C88.7422 19.8445 88.7421 19.4856 88.7266 19.1449C88.7189 18.974 88.7076 18.8161 88.6918 18.6902C88.6804 18.5985 88.6693 18.5495 88.665 18.5303C88.6623 18.5182 88.6622 18.5179 88.6664 18.5264L89.1137 18.3028L88.6664 18.5264L88.6415 18.4761L88.6204 18.4332C88.6071 18.4066 88.5972 18.3878 88.5886 18.373C88.586 18.3684 88.5837 18.3645 88.5817 18.3613C88.5636 18.3576 88.5291 18.3529 88.471 18.3529H88.1376L88.0094 18.0452C87.8947 17.7698 87.7887 17.4694 87.6749 17.1469C87.4328 16.4608 87.1554 15.6746 86.6832 14.816L86.6784 14.8075L86.6741 14.7987C86.4074 14.2655 86.0774 13.797 85.5984 13.4025C85.1189 13.0077 84.4662 12.6671 83.5281 12.4248C77.3146 10.8875 70.5901 9.67096 64.4463 9.03098L64.3612 9.02211L64.2838 8.98543C62.6749 8.22222 61.0694 7.38148 59.4683 6.54308C58.5694 6.07238 57.672 5.60242 56.7761 5.14734C54.2694 3.87395 51.7439 2.69982 49.1166 1.87682L49.1128 1.87562C46.381 0.996401 43.3167 0.661482 40.1701 0.549673C38.0561 0.474555 35.9304 0.500246 33.8512 0.525376C32.8274 0.53775 31.8148 0.549988 30.8205 0.549988C29.1216 0.549988 28.0466 1.08359 26.7818 1.71135C26.4774 1.86249 26.1619 2.01908 25.8241 2.175L25.8241 2.17517L25.8115 2.18059C24.046 2.93721 20.9216 4.65727 18.3599 6.25832L18.3473 6.26617L18.3343 6.27327C18.1781 6.35846 18.0174 6.45892 17.8428 6.56803C17.3224 6.89321 16.6792 7.29521 15.6678 7.59868L15.6614 7.60049C14.9357 7.80786 13.6237 8.05375 12.0921 8.34079C11.6643 8.42096 11.2194 8.50434 10.7654 8.59099C8.66159 8.99248 6.32408 9.47009 4.42392 10.0399C3.32292 10.3885 2.7486 11.038 2.65215 11.744C2.39696 14.0419 2.26913 15.9583 2.14088 18.2028L2.13934 18.2298L2.13489 18.2564C2.08471 18.5575 1.87591 18.733 1.7318 18.8244C1.59048 18.914 1.42633 18.9763 1.318 19.0174L1.3129 19.0193C1.25614 19.0408 1.21201 19.0577 1.17711 19.0717C1.17666 19.16 1.17599 19.2513 1.17529 19.3451C1.1702 20.0362 1.16408 20.8662 1.23963 21.6533C1.28609 22.1372 1.36182 22.5822 1.47929 22.9497C1.59869 23.3233 1.74683 23.5709 1.90669 23.7108L1.94012 23.7401L1.96787 23.7747C2.00414 23.8201 2.14644 23.9268 2.4732 24.0408C2.77708 24.1468 3.17464 24.2368 3.63216 24.298C4.71668 24.4255 6.05344 24.5526 7.25951 24.6161L7.26714 24.6165L7.27474 24.6172C7.41442 24.6288 7.53821 24.6403 7.64977 24.6506C7.86707 24.6708 8.03795 24.6866 8.1894 24.6909C8.29752 24.694 8.37063 24.6898 8.42116 24.6817C8.45597 24.6761 8.47266 24.6697 8.47851 24.6671C8.48854 24.6538 8.51163 24.6125 8.53483 24.509C8.57602 24.3252 8.59704 24.0357 8.59704 23.5729V23.5704V23.5679V23.5654V23.5629V23.5604V23.5579V23.5554V23.5529V23.5503V23.5478V23.5453V23.5428V23.5403V23.5378V23.5353V23.5328V23.5303V23.5277V23.5252V23.5227V23.5202V23.5177V23.5152V23.5127V23.5102V23.5077V23.5052V23.5026V23.5001V23.4976V23.4951V23.4926V23.4901V23.4876V23.4851V23.4826V23.48V23.4775V23.475V23.4725V23.47V23.4675V23.465V23.4625V23.46V23.4575V23.4549V23.4524V23.4499V23.4474V23.4449V23.4424V23.4399V23.4374V23.4349V23.4323V23.4298V23.4273V23.4248V23.4223V23.4198V23.4173V23.4148V23.4123V23.4098V23.4072V23.4047V23.4022V23.3997V23.3972V23.3947V23.3922V23.3897V23.3872V23.3846V23.3821V23.3796V23.3771V23.3746V23.3721V23.3696V23.3671V23.3646V23.3621V23.3595V23.357V23.3545V23.352V23.3495V23.347V23.3445V23.342V23.3395V23.3369V23.3344V23.3319V23.3294V23.3269V23.3244V23.3219V23.3194V23.3169V23.3144V23.3118V23.3093V23.3068V23.3043V23.3018V23.2993V23.2968V23.2943V23.2918V23.2892V23.2867V23.2842V23.2817V23.2792V23.2767V23.2742V23.2717V23.2692V23.2667V23.2641V23.2616V23.2591V23.2566V23.2541V23.2516V23.2491V23.2466V23.2441V23.2415V23.239V23.2365V23.234V23.2315V23.229V23.2265V23.224V23.2215V23.219V23.2164V23.2139V23.2114V23.2089V23.2064V23.2039V23.2014V23.1989V23.1964V23.1938V23.1913V23.1888V23.1863V23.1838V23.1813V23.1788V23.1763V23.1738V23.1712V23.1687V23.1662V23.1637V23.1612V23.1587V23.1562V23.1537V23.1512V23.1487V23.1461V23.1436V23.1411V23.1386V23.1361V23.1336V23.1311V23.1286V23.1261V23.1235V23.121V23.1185V23.116V23.1135V23.111V23.1085V23.106V23.1035V23.101V23.0984V23.0959V23.0934V23.0909V23.0884V23.0859V23.0834V23.0809V23.0784V23.0758V23.0733V23.0708V23.0683V23.0658V23.0633V23.0608V23.0583V23.0558V23.0533V23.0507V23.0482V23.0457V23.0432V23.0407V23.0382V23.0357V23.0332V23.0307V23.0281V23.0256V23.0231V23.0206V23.0181V23.0156V23.0131V23.0106V23.0081V23.0056V23.003V23.0005V22.998V22.9955V22.993V22.9905V22.988V22.9855V22.983V22.9804V22.9779V22.9754V22.9729V22.9704V22.9679V22.9654V22.9629V22.9604V22.9579V22.9553V22.9528V22.9503V22.9478V22.9453V22.9428V22.9403V22.9378V22.9353V22.9327V22.9302V22.9277V22.9252V22.9227V22.9202V22.9177V22.9152V22.9127V22.9102V22.9076V22.9051V22.9026V22.9001V22.8976V22.8951V22.8926V22.8901V22.8876V22.885V22.8825V22.88V22.8775V22.875V22.8725V22.87V22.8675V22.865V22.8624V22.8599V22.8574V22.8549V22.8524V22.8499V22.8474V22.8449V22.8424V22.8399V22.8373V22.8348V22.8323V22.8298V22.8273V22.8248V22.8223V22.8198V22.8173V22.8147V22.8122V22.8097V22.8072V22.8047V22.8022V22.7997V22.7972V22.7947V22.7922V22.7896V22.7871V22.7846V22.7821V22.7796V22.7771V22.7746V22.7721V22.7696V22.767V22.7645V22.762V22.7595V22.757V22.7545V22.752V22.7495V22.747V22.7445V22.7419V22.7394V22.7369V22.7344V22.7319V22.7294V22.7269V22.7244V22.7219V22.7193V22.7168V22.7143V22.7118V22.7093V22.7068V22.7043V22.7018V22.6993V22.6968V22.6942V22.6917V22.6892V22.6867V22.6842V22.6817V22.6792V22.6767V22.6742V22.6716V22.6691V22.6666V22.6641V22.6616V22.6591V22.6566V22.6541V22.6516V22.6491V22.6465V22.644V22.6415V22.639V22.6365V22.634V22.6315V22.629V22.6265V22.6239V22.6214V22.6189V22.6164V22.6139V22.6114V22.6089V22.6064V22.6039V22.6014V22.5988V22.5963V22.5938V22.5913V22.5888V22.5863V22.5838V22.5813V22.5788V22.5762V22.5737V22.5712V22.5687V22.5662V22.5637V22.5612V22.5587V22.5562V22.5536V22.5511V22.5486V22.5461V22.5436V22.5411V22.5386V22.5361V22.5336V22.5311V22.5285V22.526V22.5235V22.521V22.5185V22.516V22.5135V22.511V22.5085V22.5059V22.5034V22.5009V22.4984V22.4959V22.4934V22.4909V22.4884V22.4859V22.4834V22.4808V22.4783V22.4758V22.4733V22.4708V22.4683V22.4658V22.4633V22.4608V22.4582V22.4557V22.4532V22.4507V22.4482V22.4457V22.4432V22.4407V22.4382V22.4357V22.4331V22.4306V22.4281V22.4256V22.4231V22.4206V22.4181V22.4156V22.4131V22.4105V22.408V22.4055V22.403V22.4005V22.398V22.3955V22.393V22.3905V22.388V22.3854V22.3829V22.3804V22.3779V22.3754V22.3729V22.3704V22.3679V22.3654V22.3628V22.3603V22.3578V22.3553V22.3528V22.3503V22.3478V22.3453V22.3428V22.3403V22.3377V22.3352V22.3327V22.3302V22.3277V22.3252V22.3227V22.3202V22.3177V22.3151V22.3126V22.3101V22.3076V22.3051V22.3026V22.3001V22.2976V22.2951V22.2926V22.29V22.2875C8.59704 17.1911 12.6771 13.111 17.7735 13.111C22.8033 13.111 26.95 17.1887 26.95 22.2875C26.95 22.8993 26.9282 23.511 26.8845 24.1227ZM66.1636 25.6435C66.1636 25.6434 66.1625 25.6437 66.1604 25.6444C66.1626 25.6438 66.1636 25.6435 66.1636 25.6435ZM1.06754 19.124C1.0677 19.1239 1.06904 19.123 1.07124 19.1214C1.06851 19.1231 1.06738 19.124 1.06754 19.124ZM8.47331 24.6723C8.47334 24.6727 8.47498 24.6716 8.47784 24.6679C8.47469 24.6702 8.47328 24.672 8.47331 24.6723ZM32.3629 1.41383H32.3748L32.3867 1.41439L33.7252 1.47813C34.0722 1.47998 34.4162 1.55909 34.6494 1.85054C34.8399 2.08877 34.8841 2.39974 34.9119 2.59557L34.9134 2.60641C35.1084 3.71306 35.3027 5.1417 35.7505 8.9151C35.796 9.20391 35.8354 9.46438 35.8354 9.66844C35.8354 9.87201 35.7977 10.1878 35.5097 10.3894C35.3856 10.4762 35.2525 10.5127 35.1447 10.5302C35.0367 10.5478 34.9232 10.5511 34.8161 10.55C34.6847 10.5487 34.5182 10.5392 34.3326 10.5286C34.23 10.5228 34.1216 10.5166 34.0102 10.5113L25.7886 10.1259C25.1637 10.108 24.6526 9.98574 24.2747 9.74032C23.8756 9.48111 23.6584 9.10468 23.6148 8.68128C23.5736 8.28093 23.6903 7.87762 23.8694 7.52158C24.0504 7.16194 24.3125 6.81545 24.6151 6.51227C25.5839 5.51094 27.2231 4.25208 28.7274 3.24917C29.4835 2.74514 30.2176 2.29763 30.8297 1.97394C31.1352 1.81239 31.4181 1.67754 31.6628 1.58178C31.8908 1.49253 32.1423 1.41383 32.3629 1.41383ZM39.0913 10.64L39.0913 10.6402L39.078 10.6393C38.6033 10.6077 38.1346 10.5434 37.7928 10.2426C37.4459 9.93732 37.3336 9.48392 37.2682 9.00173C36.8818 7.06663 36.4329 4.24567 36.2383 2.62774C36.2367 2.61879 36.2352 2.6095 36.2336 2.59994C36.2203 2.522 36.204 2.42561 36.1961 2.3381C36.1871 2.2374 36.1814 2.08184 36.2383 1.92238C36.305 1.73565 36.4399 1.59065 36.6232 1.50604C36.7831 1.43223 36.9587 1.41383 37.1189 1.41383H37.1291L37.1392 1.41424L41.8896 1.60686C41.8906 1.60688 41.8915 1.60691 41.8924 1.60694C43.0072 1.63987 44.3908 1.77045 45.6412 1.94908C46.8707 2.12473 48.0255 2.35411 48.6656 2.60064C52.1153 3.77362 55.9522 5.78847 58.5045 7.75174L59.8931 8.81989L58.1499 8.64557C57.537 8.58429 56.746 8.58786 56.137 8.73117C55.8299 8.80341 55.6151 8.90079 55.4896 9.0041C55.3871 9.08844 55.3529 9.1649 55.3563 9.26727C55.3827 9.50858 55.4795 9.79895 55.5775 10.0924L55.589 10.1269C55.6336 10.2608 55.6872 10.4224 55.711 10.5531C55.7209 10.6073 55.7418 10.7328 55.7082 10.8672C55.689 10.944 55.6434 11.0582 55.5342 11.1523C55.4187 11.2519 55.2855 11.2831 55.1789 11.2831H55.1689L55.1589 11.2827L39.0913 10.64ZM17.7735 16.1034C14.3251 16.1034 11.5894 18.8971 11.5894 22.2875C11.5894 25.7391 14.322 28.4716 17.7735 28.4716C21.1639 28.4716 23.9577 25.7359 23.9577 22.2875C23.9577 18.9003 21.1608 16.1034 17.7735 16.1034ZM74.7171 16.1034C71.3361 16.1034 68.5973 18.894 68.5973 22.2875C68.5973 25.7422 71.333 28.4716 74.7171 28.4716C78.1686 28.4716 80.9012 25.7391 80.9012 22.2875C80.9012 18.8971 78.1655 16.1034 74.7171 16.1034Z" fill="white" stroke="#0C2434"/>
</svg>
