<svg width="84" height="30" viewBox="0 0 84 30" fill="none" xmlns="http://www.w3.org/2000/svg">
<path d="M41.4816 28.3883C18.861 28.3883 0.499672 28.7912 0.499672 29.1941C0.499672 29.6546 18.861 30 41.4816 30C64.1598 30 82.5211 29.6546 82.5211 29.1941C82.5211 28.7912 64.1598 28.3883 41.4816 28.3883Z" fill="#8FA2E3" fill-opacity="0.4"/>
<path d="M10.5058 7.05864C10.1538 7.37984 9.74705 7.68797 9.34797 7.98165C9.25529 8.04986 9.16323 8.11713 9.07207 8.18376C8.76308 8.40959 8.46429 8.62796 8.18578 8.84969C7.82542 9.13658 7.52631 9.4082 7.3134 9.67299C7.10007 9.9383 7.00086 10.1627 6.98388 10.3581L6.98406 10.3581L6.98252 10.3716C6.75362 12.3745 6.63919 13.8613 6.52446 15.869L6.51859 15.9719L6.4725 16.064C6.39268 16.2237 6.25815 16.3134 6.18778 16.3554C6.1022 16.4064 6.00729 16.4463 5.91705 16.4779C5.74396 16.5384 5.53671 16.5861 5.3243 16.6182C5.11807 16.679 5.04465 16.7566 5.00651 16.8194C4.95477 16.9046 4.91364 17.0539 4.91364 17.337C4.91364 18.0802 4.92797 19.0752 4.99168 20.038C5.05623 21.0134 5.16901 21.9102 5.35056 22.4808L5.35441 22.4929L5.35764 22.5051C5.47385 22.9467 5.66137 23.1527 5.86749 23.2686C6.09904 23.3989 6.42538 23.4562 6.88866 23.4562H10.112C10.4536 23.4562 10.649 23.4514 10.7746 23.4317C10.7834 23.4303 10.7913 23.429 10.7982 23.4276C10.8045 23.3976 10.8129 23.3488 10.8207 23.2734C10.8314 23.1695 10.8383 23.0632 10.8469 22.9324C10.8549 22.8085 10.8644 22.6625 10.88 22.4758L10.8799 22.4757L10.8808 22.4668C11.308 18.2563 14.7893 14.88 19.0911 14.88C23.4422 14.88 27.0578 18.3094 27.3032 22.6039L27.3035 22.6086C27.3068 22.6775 27.3096 22.741 27.3123 22.8C27.3219 23.0141 27.3288 23.1677 27.3431 23.2923C27.3505 23.357 27.3586 23.398 27.3646 23.4226C27.3719 23.4243 27.3804 23.4261 27.3904 23.428C27.4957 23.4479 27.6635 23.4562 27.9552 23.4562H61.0516C61.4667 23.4562 61.6926 23.433 61.8208 23.3963C61.8722 23.3816 61.8914 23.3691 61.8949 23.3666C61.8958 23.3653 61.8973 23.3628 61.8995 23.3585C61.9247 23.308 61.9486 23.2056 61.9792 22.9297C61.9837 22.8894 61.9883 22.8464 61.9931 22.8011C62.018 22.5676 62.0498 22.269 62.1126 21.9161C62.7267 18.0623 66.088 14.9413 70.196 14.88L70.196 14.88H70.2035C74.4931 14.88 77.985 18.1287 78.4137 22.2934L78.4138 22.2934L78.4145 22.3013C78.4217 22.3842 78.4281 22.4608 78.434 22.5319C78.453 22.7587 78.4673 22.9298 78.4884 23.0731C78.516 23.261 78.5457 23.3162 78.554 23.3282C78.5542 23.3283 78.5545 23.3285 78.5549 23.3288C78.5606 23.3322 78.5819 23.3437 78.6331 23.3561C78.7452 23.3833 78.9275 23.3987 79.2402 23.3987H81.6426C81.6747 23.3853 81.7041 23.3753 81.721 23.3697C82.3632 22.8691 82.6445 22.0001 82.7201 20.8931C82.7776 20.052 82.7129 19.1696 82.6519 18.337C82.6323 18.0699 82.6131 17.8079 82.5984 17.5541C82.5739 17.3456 82.578 17.1432 82.5808 17.0004C82.5816 16.9615 82.5823 16.9271 82.5823 16.8981C82.5823 16.8361 82.5798 16.7918 82.5761 16.7596C82.5111 16.7566 82.4345 16.7508 82.3439 16.7395L82.0665 16.7048L81.9508 16.4503C81.8483 16.2248 81.8009 15.98 81.7709 15.7544C81.7516 15.6095 81.7367 15.4451 81.7221 15.2852C81.7148 15.2044 81.7075 15.1246 81.6998 15.0491C81.6515 14.5729 81.5729 14.0856 81.3278 13.5935C81.0323 13.0321 80.8381 12.6655 80.5267 12.3659C80.2282 12.0785 79.7851 11.8226 78.9467 11.6058C73.8267 10.3795 68.7545 9.84912 63.6485 9.31516C63.2836 9.27701 62.9186 9.23884 62.5533 9.20039L62.4685 9.19146L62.3914 9.15489C60.5018 8.25857 58.6805 7.08026 56.8877 5.92038C56.5156 5.67965 56.1447 5.43971 55.7747 5.20325C53.6052 3.81675 51.4526 2.54027 49.1621 1.81338C47.4894 1.31213 45.2905 1.02763 43.0557 0.85569C36.8095 0.397317 28.0842 0.454072 21.6413 0.626575C20.3248 0.68388 19.0764 0.769418 17.9976 0.91044C16.9399 1.0487 16.0802 1.23619 15.4855 1.4844C15.498 1.52315 15.5129 1.56423 15.5323 1.6173C15.5389 1.63546 15.5461 1.65501 15.5538 1.67636C15.6139 1.84241 15.7094 2.1112 15.6935 2.40988C15.6758 2.74289 15.5264 3.05678 15.2168 3.32509L15.2082 3.33259L15.1992 3.33969C14.8774 3.59374 14.4521 3.91932 13.981 4.27995C12.8102 5.17623 11.3565 6.28905 10.5058 7.05864ZM10.5058 7.05864C10.5061 7.05837 10.5064 7.05809 10.5067 7.05782L10.1695 6.68858M10.5058 7.05864C10.5055 7.05888 10.5052 7.05911 10.505 7.05935L10.1695 6.68858M10.1695 6.68858C9.76428 7.05858 9.27275 7.41779 8.78243 7.77612C7.67094 8.58841 6.56564 9.39617 6.48576 10.3148C6.25552 12.3294 6.1404 13.8259 6.02528 15.8404C5.96772 15.9556 5.62237 16.0707 5.21945 16.1282C4.5863 16.3009 4.41364 16.7038 4.41364 17.337L10.1695 6.68858ZM27.3308 23.4124C27.3308 23.4124 27.3311 23.4126 27.3318 23.4129L27.3308 23.4124ZM54.1351 9.4935C54.1539 9.4919 54.1439 9.49168 54.1205 9.49736C54.1154 9.49858 54.0543 9.51193 53.9853 9.55626C53.9496 9.57923 53.875 9.63355 53.8202 9.73423C53.7807 9.80667 53.7602 9.88761 53.7599 9.96943C53.7599 9.97777 53.7601 9.98611 53.7605 9.99445C53.7605 9.99572 53.7606 9.99696 53.7607 9.99817C53.9715 10.0008 54.1216 9.99832 54.1992 9.98958C54.2418 9.9848 54.2625 9.97814 54.2596 9.96943C54.2596 9.93028 54.233 9.83787 54.1956 9.70805C54.1774 9.6448 54.1566 9.57268 54.1351 9.4935ZM54.737 9.79389C54.7426 9.81841 54.7548 9.87194 54.7585 9.93363C54.7657 10.0301 54.7449 10.127 54.6984 10.2124C54.6422 10.3156 54.5652 10.3724 54.5258 10.3976C54.4497 10.4465 54.377 10.4641 54.356 10.4692L54.3559 10.4692C54.2981 10.4833 54.2394 10.4886 54.2016 10.4914C54.1159 10.4977 54.0016 10.4996 53.8719 10.4991C53.6078 10.4982 53.2296 10.4871 52.7713 10.469C51.8528 10.4329 50.5885 10.368 49.2186 10.2961C49.0069 10.285 48.7927 10.2737 48.5769 10.2623C45.9939 10.1263 43.1763 9.97798 41.5924 9.95141C41.148 9.95108 40.7086 9.89882 40.3814 9.61092C40.0555 9.32416 39.9525 8.90049 39.8936 8.49059C39.7998 7.90781 39.7169 7.22608 39.6338 6.54298C39.5887 6.17202 39.5435 5.80066 39.4965 5.44452C39.3585 4.39848 39.2057 3.49319 38.9998 2.95257L38.9921 2.93254L38.9862 2.91193C38.9535 2.79723 38.9236 2.66833 38.9172 2.53931C38.9108 2.40935 38.9261 2.23729 39.0268 2.07363C39.2385 1.7296 39.6367 1.69898 39.8699 1.69898C40.7179 1.69898 41.5659 1.71817 42.4139 1.75655C43.4353 1.75698 44.7253 1.81524 45.8991 1.91669C47.0603 2.01704 48.163 2.16383 48.7694 2.35534L48.7695 2.35516L48.7824 2.35964C51.8516 3.42205 55.0108 5.53336 57.2633 7.20829L58.585 8.19116L56.9399 8.1089C56.3739 8.0806 55.667 8.08406 55.1242 8.20541C54.85 8.26668 54.6674 8.34767 54.5655 8.42913C54.4884 8.49075 54.4682 8.53895 54.4707 8.61055C54.4963 8.88077 54.5587 9.14649 54.6197 9.37021C54.6399 9.44415 54.6574 9.50505 54.6741 9.56283C54.6843 9.59824 54.6942 9.63248 54.7041 9.66784C54.7158 9.70932 54.7278 9.75343 54.737 9.79389ZM26.6051 9.43269L26.1168 9.40699L26.1316 8.91823C26.1907 6.96692 26.5455 5.07979 27.1326 3.20102L27.1999 2.9856L27.406 2.89359C30.2618 1.61871 32.5809 1.64998 35.2798 1.68637C35.7419 1.6926 36.2152 1.69898 36.7042 1.69898C36.8895 1.69898 37.0979 1.74249 37.2759 1.81579C37.3666 1.85314 37.4669 1.90531 37.5579 1.97775C37.6436 2.04601 37.7509 2.15619 37.8078 2.31748C37.9997 2.83148 38.1201 3.43792 38.2498 4.36749C38.3423 5.02992 38.4421 5.87867 38.574 7.00078C38.6283 7.46192 38.6879 7.96923 38.7547 8.52874L38.7548 8.52874L38.7555 8.53568C38.7824 8.79132 38.8073 9.02814 38.7959 9.20715C38.7899 9.30144 38.772 9.42911 38.7069 9.55426C38.6324 9.69755 38.5156 9.80084 38.3761 9.86061C38.2553 9.91236 38.1357 9.92359 38.0524 9.92685C37.9655 9.93025 37.8714 9.92586 37.7846 9.92091C37.7525 9.91908 37.7195 9.91706 37.6853 9.91496C37.5255 9.90516 37.3411 9.89384 37.1071 9.89384V9.89394L37.0971 9.89374C34.297 9.83774 30.1446 9.61908 26.9075 9.44861L26.6051 9.43269ZM25.9019 3.24242L26.9704 2.74378L26.586 3.85851C26.0256 5.48377 25.6869 7.22887 25.5172 8.92557L25.4699 9.39895L24.9947 9.37519C24.4664 9.34878 24.239 9.32183 24.0609 9.30074C24.0395 9.2982 24.0188 9.29574 23.9983 9.29338C23.8361 9.27466 23.6836 9.2607 23.1778 9.2607H23.1686L23.1593 9.26036C22.7495 9.24518 22.3856 9.19168 22.1002 9.06455C21.7917 8.92711 21.5408 8.68379 21.4765 8.31395C21.4206 7.99258 21.5259 7.67048 21.659 7.39432C21.7978 7.10605 22.0064 6.78891 22.2577 6.44894L22.2684 6.43444L22.2802 6.42074C22.3118 6.38384 22.3556 6.33014 22.4107 6.26254C22.8929 5.67132 24.2418 4.01714 25.9019 3.24242ZM11.5861 8.79156L11.5751 8.79363L11.5641 8.7952C11.3621 8.82406 11.1305 8.85521 10.9164 8.87008C10.7199 8.88373 10.4704 8.88985 10.2644 8.83192C10.1624 8.80324 9.99129 8.73753 9.87038 8.57126C9.72778 8.3752 9.73385 8.15427 9.78831 7.9895C9.83673 7.84304 9.92764 7.71804 10.0151 7.6179C10.1077 7.51191 10.2263 7.40063 10.3675 7.28297L10.3755 7.27626L10.3838 7.2699C10.8771 6.89266 11.3689 6.52019 11.8597 6.14851C13.3253 5.03852 14.7816 3.9356 16.2407 2.73396L16.3665 2.63036L16.5292 2.62079L18.4862 2.50567L19.5901 2.44074L18.9097 3.31245C17.0712 5.66809 14.8397 8.17767 11.5861 8.79156ZM19.0911 17.7219C16.0864 17.7219 13.6626 20.1457 13.6626 23.1504C13.6626 26.1551 16.0864 28.579 19.0911 28.579C22.0959 28.579 24.5197 26.1551 24.5197 23.1504C24.5197 20.1457 22.0959 17.7219 19.0911 17.7219ZM70.2035 17.7219C67.1987 17.7219 64.7749 20.1457 64.7749 23.1504C64.7749 26.1551 67.1987 28.579 70.2035 28.579C73.2145 28.579 75.6896 26.1489 75.6896 23.1504C75.6896 20.152 73.2145 17.7219 70.2035 17.7219Z" fill="#0C2434" stroke="#0C2434"/>
</svg>
