<svg width="90" height="30" viewBox="0 0 90 30" fill="none" xmlns="http://www.w3.org/2000/svg">
<path d="M44.8091 28.3159C20.2608 28.3159 0.376045 28.6398 0.376045 29.158C0.376045 29.6114 20.2608 30 44.8091 30C69.3574 30 89.2422 29.6114 89.2422 29.158C89.2422 28.6398 69.3574 28.3159 44.8091 28.3159Z" fill="#8FA2E3" fill-opacity="0.4"/>
<path d="M7.06609 23.4773L7.06572 23.4677V23.4581V23.4558V23.4535V23.4513V23.449V23.4467V23.4444V23.4421V23.4399V23.4376V23.4353V23.433V23.4307V23.4285V23.4262V23.4239V23.4216V23.4193V23.417V23.4147V23.4125V23.4102V23.4079V23.4056V23.4033V23.401V23.3987V23.3964V23.3941V23.3919V23.3896V23.3873V23.385V23.3827V23.3804V23.3781V23.3758V23.3735V23.3712V23.3689V23.3666V23.3643V23.362V23.3597V23.3574V23.3551V23.3528V23.3505V23.3482V23.3459V23.3436V23.3413V23.339V23.3367V23.3344V23.3321V23.3298V23.3275V23.3252V23.3229V23.3206V23.3183V23.316V23.3137V23.3113V23.309V23.3067V23.3044V23.3021V23.2998V23.2975V23.2952V23.2929V23.2906V23.2882V23.2859V23.2836V23.2813V23.279V23.2767V23.2743V23.272V23.2697V23.2674V23.2651V23.2628V23.2604V23.2581V23.2558V23.2535V23.2512V23.2488V23.2465V23.2442V23.2419V23.2395V23.2372V23.2349V23.2326V23.2302V23.2279V23.2256V23.2233V23.2209V23.2186V23.2163V23.2139V23.2116V23.2093V23.207V23.2046V23.2023V23.2V23.1976V23.1953V23.193V23.1906V23.1883V23.186V23.1836V23.1813V23.1789V23.1766V23.1743V23.1719V23.1696V23.1673V23.1649V23.1626V23.1602V23.1579V23.1556V23.1532V23.1509V23.1485V23.1462V23.1438V23.1415V23.1391V23.1368V23.1345V23.1321V23.1298V23.1274V23.1251V23.1227V23.1204V23.118V23.1157V23.1133V23.111V23.1086V23.1063V23.1039V23.1016V23.0992V23.0969V23.0945V23.0921V23.0898V23.0874V23.0851V23.0827V23.0804V23.078V23.0756V23.0733V23.0709V23.0686V23.0662V23.0638V23.0615V23.0591V23.0568V23.0544V23.052V23.0497V23.0473V23.0449V23.0426V23.0402V23.0378V23.0355V23.0331V23.0307V23.0284V23.026V23.0236V23.0213V23.0189V23.0165V23.0142V23.0118V23.0094V23.007V23.0047V23.0023V22.9999V22.9975V22.9952V22.9928V22.9904V22.988V22.9857V22.9833V22.9809V22.9785V22.9761V22.9738V22.9714V22.969V22.9666V22.9642V22.9619V22.9595V22.9571V22.9547V22.9523V22.9499V22.9476V22.9452V22.9428V22.9404V22.938V22.9356V22.9332V22.9308V22.9285V22.9261V22.9237V22.9213V22.9189V22.9165V22.9141V22.9117V22.9093V22.9069V22.9045V22.9021V22.8998V22.8974V22.895V22.8926V22.8902V22.8878V22.8854V22.883V22.8806V22.8782V22.8758V22.8734V22.871V22.8686V22.8662V22.8638V22.8614V22.859V22.8566V22.8542V22.8517V22.8493V22.8469V22.8445V22.8421V22.8397V22.8373V22.8349V22.8325V22.8301V22.8277V22.8253V22.8229V22.8204V22.818V22.8156V22.8132V22.8108V22.8084V22.806V22.8035V22.8011V22.7987V22.7963V22.7939V22.7915V22.789V22.7866V22.7842V22.7818V22.7794V22.777V22.7745V22.7721V22.7697V22.7673V22.7648V22.7624V22.76V22.7576V22.7551V22.7527V22.7503V22.7479V22.7454V22.743V22.7406V22.7382V22.7357V22.7333V22.7309V22.7284V22.726V22.7236V22.7212V22.7187V22.7163V22.7139V22.7114V22.709V22.7066V22.7041V22.7017V22.6992V22.6968V22.6944V22.6919V22.6895V22.6871V22.6846V22.6822V22.6797V22.6773V22.6749V22.6724V22.67V22.6675V22.6651V22.6626V22.6602V22.6578V22.6553V22.6529V22.6504V22.648V22.6455V22.6431V22.6406V22.6382V22.6357V22.6333V22.6308V22.6284V22.6259V22.6235V22.621V22.6186V22.6161V22.6137V22.6112V22.6088V22.6063V22.6039V22.6014V22.5989V22.5965V22.594V22.5916V22.5891V22.5867V22.5842V22.5817V22.5793V22.5768V22.5744V22.5719V22.5694V22.567V22.5645V22.562V22.5596V22.5571V22.5546V22.5522V22.5497V22.5473V22.5448V22.5423V22.5398V22.5374V22.5349V22.5324V22.53V22.5275V22.525V22.5226V22.5201V22.5176V22.5151V22.5127V22.5102V22.5077V22.5052V22.5028V22.5003V22.4978V22.4953V22.4929V22.4904V22.4879V22.4854V22.4829V22.4805V22.478V22.4755V22.473V22.4705V22.4681V22.4656V22.4631V22.4606V22.4581V22.4556V22.4532V22.4507V22.4482V22.4457V22.4432V22.4407V22.4382V22.4357V22.4333V22.4308V22.4283V22.4258V22.4233V22.4208V22.4183V22.4158V22.4133V22.4108V22.4083V22.4058V22.4033V22.4008V22.3983V22.3959V22.3934V22.3909V22.3884V22.3859V22.3834V22.3809V22.3784V22.3759V22.3734V22.3709V22.3684V22.3659V22.3633V22.3608V22.3583V22.3558V22.3533V22.3508V22.3483V22.3458V22.3433V22.3408V22.3383V22.3358V22.3333V22.3308V22.3283V22.3257V22.3232V22.3207V22.3182V22.3157V22.3132V22.3107V22.3082V22.3056V22.3031V22.3006V22.2981V22.2956V22.2931V22.2905V22.288V22.2855V22.283V22.2805V22.2779V22.2754V22.2729V22.2704V22.2679V22.2653V22.2628V22.2603V22.2578V22.2552V22.2527V22.2502V22.2477V22.2451V22.2426V22.2401V22.2376V22.235V22.2325V22.23V22.2274C7.06572 17.0935 11.1758 12.9833 16.3098 12.9833C21.4438 12.9833 25.554 17.0935 25.554 22.2274C25.554 22.8862 25.532 23.5243 25.4879 24.1414L25.488 24.1414L25.487 24.1525C25.4389 24.6654 25.4316 24.9977 25.4574 25.2185C25.4821 25.4287 25.5292 25.4705 25.5351 25.4758L25.5354 25.476C25.554 25.4929 25.6148 25.5331 25.8385 25.5713C25.9723 25.5941 26.112 25.6097 26.2839 25.6288C26.4053 25.6423 26.5427 25.6576 26.7055 25.6785H61.8362C62.0115 25.673 62.1614 25.6694 62.2906 25.6663C62.4967 25.6614 62.6503 25.6577 62.7704 25.6498C62.7633 25.6103 62.755 25.5654 62.7453 25.5132C62.7426 25.4988 62.7398 25.4838 62.7369 25.4682C62.6832 25.1788 62.6106 24.77 62.5762 24.2106C62.5099 23.5413 62.5099 22.876 62.5099 22.2389V22.2274C62.5099 17.091 66.6872 12.9833 71.754 12.9833C76.8805 12.9833 80.986 17.0814 80.9981 22.2048C81.0417 22.6987 81.0413 23.1928 80.9971 23.6867C80.9819 24.0135 80.9886 24.2175 81.0106 24.3495C81.0243 24.4321 81.0405 24.4643 81.0465 24.4735C81.0504 24.4767 81.0833 24.5014 81.2121 24.5338C81.3131 24.5592 81.4257 24.5793 81.5758 24.6061C81.6335 24.6164 81.6968 24.6277 81.7671 24.6407L83.7796 24.5778C84.7762 24.5207 85.4644 24.044 85.717 23.1921C85.9811 22.2212 85.988 21.4748 85.9963 20.5732C85.9996 20.2233 86.003 19.85 86.0218 19.4312C86.0211 18.9669 85.971 18.6589 85.8835 18.4737C85.8436 18.3892 85.8024 18.3445 85.7657 18.3182C85.7301 18.2926 85.6726 18.2655 85.5698 18.2562L85.2695 18.2289L85.1535 17.9505L85.153 17.9493C84.8321 17.1792 84.5162 16.421 83.8167 15.1493L83.812 15.1407L83.8076 15.1319C83.539 14.5946 83.2053 14.1202 82.7192 13.7127C82.2327 13.3049 81.5713 12.9455 80.6233 12.6697C76.504 11.576 69.538 10.35 60.9168 8.85909L60.8198 8.84232L60.7365 8.79008C55.8981 5.75804 51.275 3.3204 45.9551 1.65393L45.9536 1.65344C42.7706 0.644974 37.5676 0.397396 32.2727 0.535029C26.9979 0.672142 21.7064 1.18857 18.3898 1.67157L18.3885 1.67177C17.7276 1.76617 17.5309 1.83778 17.3593 1.92357C17.3123 1.94706 17.2569 1.97805 17.1895 2.01568C16.9976 2.12291 16.7091 2.28412 16.2448 2.47963L16.2448 2.47971L16.2365 2.48306C15.3026 2.85662 13.6005 3.77739 11.8854 4.75282C10.3601 5.62029 8.85398 6.51379 7.92681 7.06382C7.81948 7.1275 7.71991 7.18657 7.62897 7.24046C6.31233 8.04292 6.04732 9.0401 5.99156 9.76494L5.99091 9.77339L5.98997 9.78181C5.87563 10.8109 5.6259 12.1819 5.37309 13.5698C5.33409 13.7838 5.29503 13.9983 5.25638 14.2119C4.96351 15.8309 4.69473 17.4021 4.63203 18.4992L4.63004 18.5343L4.62314 18.5688C4.56309 18.869 4.32933 19.0306 4.21164 19.1015C4.08779 19.176 3.9414 19.2364 3.83742 19.2793L3.81396 19.289C3.74828 19.3161 3.6984 19.3375 3.66017 19.3553C3.65712 19.6029 3.64823 19.866 3.63897 20.1398C3.61914 20.7263 3.59765 21.362 3.62832 22.0011C3.65177 22.4898 3.70578 22.9364 3.8072 23.3038C3.91019 23.6769 4.04842 23.9181 4.203 24.0534L4.23643 24.0826L4.26418 24.1173C4.2915 24.1515 4.41876 24.2461 4.75522 24.3478C5.0659 24.4417 5.47272 24.5184 5.94775 24.5818L5.95947 24.5833L5.9711 24.5854C6.50896 24.6832 6.84194 24.7268 7.0518 24.7252C7.08467 24.7249 7.11093 24.7236 7.13161 24.7218C7.13543 24.6709 7.13571 24.6001 7.13103 24.4994C7.12641 24.4001 7.118 24.2891 7.10793 24.1561C7.1057 24.1267 7.10339 24.0961 7.10101 24.0644C7.08823 23.8933 7.07454 23.6969 7.06609 23.4773ZM81.0489 24.4765C81.049 24.4763 81.0482 24.4752 81.0466 24.4736C81.048 24.4758 81.0489 24.4766 81.0489 24.4765ZM3.56749 19.4067C3.5676 19.4068 3.56954 19.4054 3.57286 19.4025C3.56902 19.4053 3.56739 19.4067 3.56749 19.4067ZM7.19826 24.7106C7.19813 24.7105 7.19641 24.711 7.19347 24.7123C7.19691 24.7113 7.19839 24.7106 7.19826 24.7106ZM32.6322 10.4857L32.6254 10.4856C29.7869 10.4473 26.7394 10.2487 23.741 10.0532C21.6846 9.91921 19.6512 9.78669 17.7242 9.7084C17.4585 9.70742 17.2031 9.66921 16.9715 9.53896C16.7422 9.40998 16.5923 9.22212 16.4758 9.03171C16.3209 8.80733 16.3655 8.55656 16.3909 8.45041C16.4249 8.30859 16.4894 8.16505 16.5559 8.03776C16.6915 7.77801 16.8931 7.47899 17.0944 7.19968C17.2983 6.91662 17.5158 6.63496 17.6903 6.40911C17.8791 6.16456 17.9896 6.01997 18.0185 5.9717L18.0318 5.94958L18.0473 5.92895C18.3541 5.51984 19.0657 4.67686 19.8407 3.89365C20.2288 3.50137 20.6409 3.11587 21.0326 2.80446C21.4108 2.50372 21.8186 2.23203 22.1925 2.12208L22.2059 2.11811L22.2196 2.11491C24.6924 1.53618 27.5055 1.45913 30.1277 1.38731C30.7985 1.36894 31.4567 1.35091 32.0936 1.32492L32.1038 1.3245H32.114C32.4247 1.3245 32.7055 1.47032 32.8925 1.60538C32.9929 1.67788 33.0863 1.76147 33.1639 1.85001C33.2338 1.92967 33.3152 2.04056 33.3618 2.17344C33.5762 2.74732 33.6946 3.37795 33.8244 4.38375C33.8951 4.93151 33.971 5.60817 34.0671 6.46446C34.1473 7.17849 34.2414 8.01742 34.3583 9.01066C34.4039 9.3004 34.4414 9.55901 34.4344 9.75747C34.4307 9.86242 34.414 9.99947 34.3463 10.133C34.2693 10.2846 34.147 10.3917 34.0031 10.4533C33.8778 10.507 33.7523 10.5193 33.6618 10.5229C33.5676 10.5266 33.4652 10.5218 33.3693 10.5162C33.3325 10.5141 33.2948 10.5117 33.2558 10.5092C33.0812 10.4982 32.8816 10.4857 32.6322 10.4857ZM35.7412 1.3245V1.32438L35.7521 1.32462C35.9813 1.32961 36.2165 1.33418 36.4567 1.33884C39.2976 1.39406 42.8361 1.46283 45.4901 2.38806C48.9537 3.56461 53.2152 5.59325 55.8612 7.57777L57.2828 8.644L55.5138 8.47552C54.865 8.41372 53.9461 8.41585 53.2161 8.56483C52.847 8.64015 52.5721 8.74415 52.4047 8.86118C52.254 8.96656 52.235 9.04446 52.2389 9.11592L52.2397 9.12978V9.14365C52.2397 9.40777 52.2936 9.70157 52.3607 9.95489C52.3936 10.0792 52.4281 10.188 52.4574 10.2714C52.472 10.3131 52.4849 10.3472 52.4952 10.3728C52.5011 10.3875 52.5054 10.3975 52.5079 10.4034C52.5102 10.4086 52.5112 10.4106 52.5108 10.4098L52.5636 10.5154V10.6334C52.5636 10.9425 52.3139 11.0714 52.2863 11.0857L52.2856 11.086C52.2223 11.1187 52.1644 11.1322 52.1405 11.1374C52.084 11.1498 52.0251 11.1552 51.9806 11.1583C51.8841 11.1651 51.7551 11.1673 51.606 11.1668C51.3038 11.1657 50.8736 11.1533 50.353 11.133C49.3097 11.0924 47.8793 11.0193 46.3295 10.9384C46.0891 10.9258 45.8458 10.9131 45.6006 10.9003C42.6799 10.7473 39.4928 10.5803 37.6801 10.5504C37.1827 10.5501 36.702 10.4913 36.35 10.1674C36.0058 9.85085 35.8948 9.37927 35.8295 8.89285C35.7095 8.14922 35.5619 7.26679 35.4139 6.38177C35.1651 4.89356 34.915 3.39804 34.7928 2.54293C34.7769 2.43163 34.76 2.3045 34.7585 2.1859C34.7571 2.06967 34.7685 1.90315 34.8557 1.74128C35.0604 1.36112 35.4782 1.3245 35.7412 1.3245ZM16.3098 15.9912C12.8909 15.9912 10.0736 18.75 10.0736 22.2274C10.0736 25.637 12.8877 28.3989 16.3098 28.3989C19.732 28.3989 22.546 25.637 22.546 22.2274C22.546 18.75 19.7288 15.9912 16.3098 15.9912ZM71.754 15.9912C68.3413 15.9912 65.5826 18.7437 65.5826 22.2274C65.5826 25.6433 68.3382 28.3989 71.754 28.3989C75.2378 28.3989 77.9902 25.6401 77.9902 22.2274C77.9902 18.7469 75.2346 15.9912 71.754 15.9912Z" fill="white" stroke="#0C2434"/>
</svg>
