<svg width="77" height="30" viewBox="0 0 77 30" fill="none" xmlns="http://www.w3.org/2000/svg">
<path d="M56.3618 25.8414L56.3616 25.8415L56.3579 25.8282C56.1633 25.1277 56.0672 24.3921 56.0672 23.6233C56.0672 19.2596 59.5611 15.7656 63.9249 15.7656C68.2886 15.7656 71.7825 19.2596 71.7825 23.6233C71.7825 24.0033 71.7636 24.367 71.725 24.7141L71.7238 24.7245L71.7222 24.7349C71.6688 25.0823 71.6376 25.2972 71.6299 25.4429C71.6322 25.4433 71.6346 25.4436 71.637 25.444C71.7061 25.454 71.788 25.4628 71.8968 25.4745L71.9193 25.4769C72.0235 25.4881 72.1448 25.5014 72.2818 25.5194L74.0319 25.4133L74.047 25.4124H74.0621C74.3697 25.4124 74.6228 25.2986 74.7986 25.1228L74.8237 25.0977L74.8522 25.0764C75.1431 24.8582 75.3263 24.5685 75.5367 23.6754C75.7384 22.7651 75.7425 21.4623 75.6883 20.3782L75.6877 20.3658V20.3533C75.6877 20.2303 75.6905 20.1364 75.6929 20.053C75.696 19.9501 75.6986 19.8633 75.6948 19.758C75.6916 19.6684 75.6833 19.5988 75.67 19.5421C75.6291 19.544 75.5837 19.5452 75.5337 19.5452H75.1872L75.0655 19.2208C74.901 18.7823 74.675 18.1618 74.5043 17.48C74.2296 16.4361 74.0233 15.6694 73.7742 15.1183C73.533 14.6363 73.3309 14.2783 73.0308 13.9726C72.7349 13.6711 72.3151 13.3931 71.6049 13.1394L71.6049 13.1394L71.6005 13.1378C70.1103 12.59 68.5376 12.0002 67.0091 11.427C64.7223 10.5694 62.5344 9.74895 60.8699 9.16145L60.8215 9.14438L60.7776 9.11787C60.0634 8.68616 59.3114 8.21836 58.5298 7.73211C56.5722 6.51421 54.4284 5.18054 52.2243 4.00826C49.1383 2.36688 46.0141 1.08811 43.2359 0.904636L43.2274 0.904081L43.2191 0.903242C42.1282 0.794159 41.0064 0.687721 39.8352 0.68773L39.8321 0.687711L13.838 0.524223C13.8375 0.524223 13.837 0.524223 13.8364 0.524223C12.9855 0.524213 12.2293 0.516546 11.5657 0.509817C10.4734 0.498742 9.63184 0.490209 9.03166 0.522547C8.89604 0.539078 8.75211 0.551949 8.64591 0.561445C8.59262 0.56621 8.54884 0.570124 8.52038 0.573225C8.5187 0.573408 8.51704 0.573591 8.5154 0.573774C8.50972 0.643357 8.50636 0.745183 8.50636 0.896233V0.9124C8.5064 1.09303 8.50645 1.33513 8.46452 1.57002C8.42098 1.81383 8.3251 2.09621 8.09832 2.32877C7.1964 3.33672 6.41969 4.72483 5.79347 6.03113C5.48138 6.68215 5.21051 7.30451 4.98236 7.83884C4.93356 7.95313 4.88636 8.06427 4.8409 8.17129C4.67705 8.55705 4.5359 8.88934 4.42468 9.12292L4.42076 9.13115L4.41654 9.13924C4.23135 9.49418 4.0422 9.82372 3.85748 10.1455C3.3484 11.0324 2.873 11.8607 2.60712 13.0002L2.60724 13.0002L2.60453 13.0107C2.07381 15.0806 1.9114 17.2679 1.80251 19.3885C1.7959 19.6918 1.60535 19.8795 1.47408 19.9733C1.35706 20.0568 1.21696 20.1166 1.13347 20.1523L1.11813 20.1588C1.0836 20.1736 1.05596 20.1857 1.03371 20.1958C1.00903 20.889 0.991631 21.8108 1.06508 22.6677C1.10454 23.1281 1.16908 23.5547 1.26691 23.9094C1.36562 24.2672 1.48573 24.5047 1.60702 24.6375C1.67154 24.6994 1.81068 24.7882 2.05674 24.8761C2.30184 24.9636 2.62032 25.0387 3.00381 25.0898L3.02401 25.0925L3.04394 25.0968C4.08669 25.3235 5.40798 25.4339 6.56828 25.5308C6.75631 25.5465 6.94011 25.5619 7.11782 25.5773C7.28526 25.5881 7.37852 25.5733 7.42484 25.5585C7.43546 25.5552 7.4425 25.5521 7.44672 25.5501C7.44845 25.5492 7.44975 25.5485 7.45069 25.548C7.45512 25.5399 7.47107 25.5058 7.47836 25.4203C7.48666 25.323 7.48137 25.1885 7.45726 25.0051C7.38105 24.5451 7.34286 24.0845 7.34286 23.6233C7.34286 19.2596 10.8368 15.7656 15.2006 15.7656C19.5074 15.7656 23.0582 19.2572 23.0582 23.6233C23.0582 24.3229 22.9612 25.0049 22.7666 25.6679C22.662 26.0481 22.6324 26.2634 22.6362 26.3809C22.6731 26.388 22.735 26.397 22.8344 26.404C22.8875 26.4078 22.9587 26.4112 23.0406 26.4152C23.1934 26.4225 23.3835 26.4316 23.5629 26.448L55.8902 26.5024C56.0317 26.4893 56.1586 26.481 56.2679 26.4741L56.3026 26.4719C56.3931 26.4662 56.4659 26.4616 56.5292 26.456C56.503 26.3226 56.4502 26.1288 56.3618 25.8414ZM56.5483 26.6151C56.5483 26.6152 56.5485 26.6137 56.5486 26.6103C56.5482 26.6133 56.5482 26.615 56.5483 26.6151ZM36.0746 10.7705L36.0679 10.7704C33.5936 10.737 31.5208 10.6623 29.3616 10.5846C28.0001 10.5355 26.6043 10.4853 25.0518 10.4433L25.0419 10.443L25.0321 10.4424C24.5691 10.4115 24.1212 10.2726 23.9245 9.81343C23.8439 9.62538 23.8295 9.42932 23.8295 9.26902C23.8295 9.12761 23.8419 8.96982 23.8536 8.82091C23.8548 8.80473 23.8561 8.78865 23.8573 8.77272L24.0203 2.90564C24.0213 2.42884 24.1233 1.97469 24.5308 1.72394C24.7104 1.61341 24.9041 1.57439 25.0651 1.55721C25.2196 1.54073 25.389 1.54075 25.541 1.54077L25.5558 1.54076L25.5585 1.54077L35.6386 1.59527V2.09527L35.6413 1.59528L35.6402 1.59527C35.8536 1.59564 36.07 1.66897 36.2336 1.75557C36.3202 1.80139 36.4103 1.86049 36.4903 1.93394C36.5653 2.00278 36.6618 2.11209 36.7125 2.26416L36.7125 2.26414L36.7149 2.27172C36.8953 2.8429 37.0081 3.61194 37.1302 4.71778C37.1914 5.27173 37.2566 5.92849 37.3336 6.704C37.4103 7.47668 37.4986 8.36724 37.6064 9.39143C37.6448 9.66031 37.6762 9.89874 37.6703 10.0799C37.6672 10.1745 37.6536 10.3033 37.5928 10.4303C37.5223 10.5778 37.4052 10.688 37.2594 10.7505C37.135 10.8038 37.0128 10.8122 36.9328 10.8135C36.849 10.8149 36.7587 10.8084 36.6797 10.8021C36.6589 10.8005 36.6378 10.7988 36.6163 10.797C36.4643 10.7846 36.2922 10.7705 36.0746 10.7705ZM56.3955 7.92334L57.5543 8.88294L56.0517 8.80781C55.5145 8.78095 54.8568 8.78542 54.3557 8.91511C54.1052 8.97994 53.9415 9.06448 53.8493 9.15008C53.7759 9.21822 53.7356 9.29486 53.742 9.42919L53.7426 9.44107V9.45297C53.7426 9.96106 53.9332 10.5433 53.9894 10.7119L54.0151 10.7889V10.87C54.0151 11.0443 53.9287 11.1663 53.8641 11.2299C53.8043 11.2888 53.7439 11.3191 53.7148 11.3323C53.655 11.3594 53.6011 11.3702 53.5798 11.3742C53.528 11.3841 53.4737 11.3882 53.432 11.3906C53.3419 11.3958 53.2209 11.3969 53.0805 11.3958C52.7959 11.3933 52.391 11.3807 51.9017 11.3611C50.9214 11.3218 49.5814 11.2535 48.1411 11.1786C47.9135 11.1667 47.6833 11.1547 47.4517 11.1427C44.7476 11.0016 41.8432 10.8501 40.3215 10.825C39.9017 10.8247 39.4632 10.7766 39.1415 10.4677C38.833 10.1715 38.74 9.73443 38.6856 9.30142C38.5718 8.50424 38.4582 7.48285 38.3456 6.47145C38.3222 6.26102 38.2989 6.05103 38.2756 5.84358C38.1398 4.63525 38.0071 3.52448 37.8771 2.86629C37.8498 2.76866 37.8231 2.65973 37.8107 2.55177C37.7979 2.43995 37.7941 2.28191 37.8586 2.12078C38.0214 1.71371 38.4298 1.64978 38.6907 1.64978H42.2333C44.5484 1.64978 47.2159 2.50228 49.7175 3.69453C52.2277 4.89085 54.6198 6.45277 56.3955 7.92334ZM12.4135 3.63118L12.4135 3.63112L12.4199 3.62552C12.7955 3.29893 13.3327 3.02211 13.897 2.79079C14.4704 2.55575 15.1112 2.35202 15.723 2.18516C16.3359 2.01801 16.9278 1.88567 17.4066 1.7948C17.8681 1.70721 18.2669 1.64978 18.4706 1.64978C20.0848 1.64978 20.0888 1.64989 20.7971 1.67027C21.0719 1.67817 21.4527 1.68912 22.0747 1.7043C22.3032 1.70564 22.5205 1.77289 22.6944 1.87067C22.8536 1.96023 23.0582 2.12286 23.1416 2.37317L23.1477 2.39138L23.1523 2.41L23.1536 2.415C23.2096 2.63904 23.2762 2.90564 23.2762 3.29431V3.30374L23.2759 3.31316C23.2031 5.24202 23.1121 7.17086 23.0029 9.09971L23.0025 9.10806C22.99 9.35972 22.9787 9.58586 22.946 9.75372C22.912 9.92816 22.8233 10.2104 22.5168 10.3417C22.3941 10.3943 22.275 10.4036 22.1909 10.4044C22.1056 10.4052 22.0163 10.397 21.938 10.3888C21.9023 10.3851 21.8659 10.381 21.8282 10.3768C21.6918 10.3615 21.539 10.3444 21.3431 10.3343C18.9557 10.3017 16.6756 10.1535 14.3856 10.0047C12.8178 9.90276 11.2453 9.80055 9.63062 9.73494C9.14974 9.73276 8.66426 9.58412 8.43798 9.13156C8.22809 8.71178 8.35467 8.23783 8.54017 7.86683C8.76773 7.4117 9.34925 6.70808 10.0309 5.97248C10.7298 5.21817 11.5854 4.37644 12.4135 3.63118ZM15.2006 18.4552C12.3187 18.4552 10.0324 20.7898 10.0324 23.6233C10.0324 26.4569 12.3187 28.7915 15.2006 28.7915C18.031 28.7915 20.3687 26.4538 20.3687 23.6233C20.3687 20.7929 18.031 18.4552 15.2006 18.4552ZM63.9249 18.4552C61.0944 18.4552 58.7567 20.7929 58.7567 23.6233C58.7567 26.4538 61.0944 28.7915 63.9249 28.7915C66.7553 28.7915 69.093 26.4538 69.093 23.6233C69.093 20.7929 66.7553 18.4552 63.9249 18.4552Z" fill="white" stroke="#0C2434"/>
</svg>
