<?xml version="1.0" encoding="UTF-8" standalone="no"?>
<svg
   width="80"
   height="30"
   viewBox="0 0 80 30"
   fill="none"
   version="1.1"
   id="svg6"
   sodipodi:docname="pickup.svg"
   inkscape:version="1.1.1 (3bf5ae0d25, 2021-09-20)"
   xmlns:inkscape="http://www.inkscape.org/namespaces/inkscape"
   xmlns:sodipodi="http://sodipodi.sourceforge.net/DTD/sodipodi-0.dtd"
   xmlns="http://www.w3.org/2000/svg"
   xmlns:svg="http://www.w3.org/2000/svg">
  <defs
     id="defs10" />
  <sodipodi:namedview
     id="namedview8"
     pagecolor="#ffffff"
     bordercolor="#666666"
     borderopacity="1.0"
     inkscape:pageshadow="2"
     inkscape:pageopacity="0.0"
     inkscape:pagecheckerboard="0"
     showgrid="false"
     inkscape:zoom="16.2375"
     inkscape:cx="40"
     inkscape:cy="14.996151"
     inkscape:window-width="1920"
     inkscape:window-height="1001"
     inkscape:window-x="-9"
     inkscape:window-y="-9"
     inkscape:window-maximized="1"
     inkscape:current-layer="svg6" />
  <path
     d="M40.1284 28.6998C18.0739 28.6998 0.256897 28.9888 0.256897 29.374C0.256897 29.7111 18.0739 30 40.1284 30C62.1349 30 80 29.7111 80 29.374C80 28.9888 62.1349 28.6998 40.1284 28.6998Z"
     fill="#8FA2E3"
     fill-opacity="0.4"
     id="path2" />
  <path
     d="m 8.37845,22.2019 2.6e-4,-0.0027 c 2.880175,-10.376987 14.866098,-9.317248 16.14779,0.1924 l 0.4985,-0.0383 c 0,4e-4 10e-5,8e-4 10e-5,0.0013 0.0111,0.1437 0.0263,0.2485 0.0465,0.3268 0.0199,0.0773 0.0398,0.1088 0.0482,0.1196 0.004,0.0052 0.01,0.0133 0.0377,0.0238 0.0348,0.0132 0.1054,0.0299 0.2351,0.0299 h 6e-4 l 31.6365,-0.0481 h 8e-4 c 0.2114,0 0.3731,-6e-4 0.5134,-0.0153 0.1375,-0.0145 0.2184,-0.0398 0.2704,-0.0681 0.0616,-0.0336 0.1973,-0.1297 0.2605,-0.6309 0.4627,-4.1971 3.9952,-7.4222 8.2945,-7.4238 4.1406,-0.0496 7.6299,2.867 8.249,6.9183 0.0973,0.5332 0.1792,0.7642 0.2813,0.8958 0.0746,0.0963 0.2009,0.1897 0.5705,0.2738 l 1.2369,-0.0458 0.0092,-3e-4 h 0.0093 c 0.28,0 0.597,-0.1107 0.7874,-0.2694 l 0.0099,-0.0082 0.0096,-0.0072 c -10e-5,-2e-4 0.0224,-0.0199 0.0578,-0.0841 0.037,-0.0669 0.0764,-0.1608 0.1153,-0.2835 0.0779,-0.2462 0.1394,-0.5619 0.1857,-0.9066 0.0924,-0.6872 0.116,-1.4219 0.116,-1.7934 0,-0.0642 0.0054,-0.1657 0.0106,-0.2622 0.0031,-0.058 0.0061,-0.1143 0.0078,-0.1596 0.0056,-0.1529 0.0043,-0.2983 -0.0134,-0.4224 l -0.0011,-0.0077 -9e-4,-0.0078 C 78.009,18.4871 78.0078,18.4764 78.0067,18.4661 77.9965,18.374 77.9901,18.3169 77.9825,18.2713 77.9633,18.2626 77.9361,18.2512 77.8982,18.237 v 1e-4 l -0.0101,-0.004 c -0.201,-0.0804 -0.3292,-0.1087 -0.4885,-0.1087 h -0.5048 l 0.0049,-0.5049 0.0481,-4.955 v -0.0024 c -3e-4,-0.6679 -0.1244,-1.0531 -0.325,-1.3059 -0.202,-0.2545 -0.5468,-0.4574 -1.1743,-0.6143 v 0 L 75.4433,10.7406 C 71.237,9.64119 65.8246,8.73059 60.5531,8.29929 L 60.3985,8.28665 60.2783,8.18877 53.2962,2.50683 C 51.8085,1.29801 50.0868,0.5 48.4109,0.5 H 36.1316 c -0.6431,0 -0.7796,0.133902 -0.8484,0.232157 -0.0552,0.078875 -0.1078,0.201583 -0.1656,0.414483 -0.0385,0.14191 -0.0721,0.29386 -0.112,0.47444 -0.0213,0.09619 -0.0444,0.2005 -0.0709,0.31575 -0.1712,0.8227 -0.3231,1.85158 -0.4725,2.86348 -0.0574,0.38843 -0.1144,0.77437 -0.172,1.14517 -0.1024,0.65984 -0.2072,1.27396 -0.3189,1.74813 -0.0555,0.23595 -0.1163,0.45267 -0.1848,0.629 -0.0343,0.08822 -0.0748,0.1777 -0.124,0.25891 -0.0458,0.07578 -0.1185,0.17721 -0.2297,0.25506 l 10e-5,10e-5 -0.0095,0.00631 c -0.0946,0.06305 -0.2377,0.15212 -0.4664,0.21987 -0.22,0.0652 -0.4987,0.10487 -0.8703,0.10487 H 32.0849 L 4.59071,9.07142 H 4.58978 C 4.01709,9.07144 3.57989,9.0898 3.23707,9.14301 2.89584,9.19596 2.68421,9.27845 2.53983,9.38158 2.26933,9.57479 2.07766,9.95566 1.95758,10.9867 1.86448,11.8493 1.8403,13.0043 1.82824,14.1805 1.82597,14.4017 1.82413,14.6238 1.8223,14.8445 1.81452,15.7839 1.80696,16.6974 1.7673,17.4113 l -0.01348,0.2426 -0.19903,0.1393 c -0.19442,0.1361 -0.38723,0.1932 -0.52219,0.228 -0.048225,0.0125 -0.084312,0.0215 -0.111938,0.0284 -0.045914,0.0115 -0.068466,0.0172 -0.084526,0.0229 -0.01754,0.0505 -0.042282,0.1762 -0.031601,0.4455 0.016403,0.3471 0.011101,0.7641 0.005768,1.1836 -0.002655,0.2087 -0.005318,0.4179 -0.005318,0.6194 0,0.6355 0.025246,1.2197 0.129997,1.6623 0.01603,0.0598 0.104618,0.1973 0.449378,0.3558 0.32573,0.1498 0.77203,0.2672 1.27532,0.3544 1.00105,0.1736 2.11258,0.2094 2.65334,0.2094 h 2.55215 c 0.22629,0 0.35156,-0.0069 0.42832,-0.0212 0.0057,-0.0204 0.01291,-0.0506 0.02052,-0.0938 0.02307,-0.1309 0.03915,-0.3078 0.06374,-0.5783 z M 40.9131,7.83225 l 10e-4,0.00761 7e-4,0.00765 c 0.023,0.22957 0.0434,0.44566 0.0341,0.61823 -0.0093,0.17374 -0.0541,0.44041 -0.2948,0.62378 -0.2006,0.15287 -0.4467,0.16821 -0.5885,0.17409 -0.1047,0.00434 -0.2391,0.00312 -0.384,0.0018 -0.0739,-6.8e-4 -0.1505,-0.00137 -0.2274,-0.00137 h -1.9743 c -0.0386,0 -0.0875,0.00102 -0.1398,0.00211 -0.103,0.00215 -0.2197,0.00458 -0.2991,10e-5 C 36.8995,9.25829 36.6494,9.22669 36.4582,9.01425 36.285,8.82186 36.2481,8.57464 36.2361,8.39007 36.2231,8.19024 36.2348,7.93542 36.2586,7.62391 L 36.5465,2.24952 C 36.5473,1.96714 36.5729,1.70497 36.6313,1.4964 36.6601,1.39339 36.706,1.26979 36.786,1.16107 36.8668,1.05123 37.0317,0.896465 37.2873,0.896465 h 1.878 c 0.3141,0 0.6114,0.092129 0.8194,0.344665 0.1776,0.21574 0.2273,0.48098 0.2526,0.65665 0.0669,0.40396 0.1329,1.05516 0.2174,1.88902 0.0106,0.10446 0.0215,0.21179 0.0327,0.32187 0.1022,1.00384 0.234,2.26216 0.4257,3.72358 z m 0.8908,0.10901 -2e-4,3e-5 -0.002,-0.01256 C 41.6794,7.17035 41.5336,5.9792 41.3957,4.83938 L 41.3709,4.63452 C 41.241,3.56068 41.1199,2.55981 41.0311,2.00516 v 1e-5 L 41.0299,1.99688 C 41.0283,1.98572 41.0265,1.9737 41.0247,1.96102 41.015,1.89482 41.0026,1.81051 40.9975,1.7356 40.9914,1.64829 40.9879,1.50089 41.0486,1.34923 41.1207,1.16896 41.2582,1.04115 41.4265,0.970662 41.5715,0.909905 41.7268,0.896465 41.8619,0.896465 h 6.0674 c 1.0673,0 2.0585,0.321715 3.1443,0.815285 l 1e-4,-2e-5 0.0045,0.00211 c 0.7608,0.35505 1.1838,0.61944 1.8451,1.17894 l 0.0068,0.00575 0.0065,0.00598 4.2376,3.85232 1.1111,1.01008 -1.4949,-0.14236 C 56.3128,7.57906 55.7092,7.58251 55.2512,7.6866 55.0193,7.73931 54.871,7.80778 54.7928,7.87006 c -0.0515,0.04099 -0.057,0.06232 -0.0565,0.08622 0.0103,0.08104 0.0646,0.15905 0.1818,0.29576 l 0.0035,0.00402 c 0.0232,0.02708 0.0618,0.07209 0.0935,0.11746 0.0175,0.02503 0.0437,0.06512 0.0661,0.11575 0.0212,0.04768 0.0541,0.13782 0.0485,0.25323 -0.0065,0.13314 -0.0625,0.25861 -0.1582,0.35259 -0.0832,0.08166 -0.1739,0.11782 -0.2274,0.13461 -0.1013,0.0318 -0.2035,0.03434 -0.2658,0.03434 H 43.3547 C 42.9831,9.26404 42.5681,9.24203 42.26,8.97085 41.9617,8.70842 41.8717,8.30301 41.8039,7.94126 Z m 12.698,0.32208 c 0,-3e-5 -0.0011,3e-5 -0.0031,2.5e-4 z m 11.8705,8.99426 c -3.191,0 -5.7601,2.5691 -5.7601,5.76 0,3.191 2.5691,5.7601 5.7601,5.7601 3.1909,0 5.76,-2.5691 5.76,-5.7601 0,-3.1909 -2.5691,-5.76 -5.76,-5.76 z m -49.695,0 c -3.191,0 -5.7601,2.5691 -5.7601,5.76 0,3.191 2.5691,5.7601 5.7601,5.7601 3.1909,0 5.76,-2.5691 5.76,-5.7601 0,-3.1909 -2.5691,-5.76 -5.76,-5.76 z"
     fill="#0C2434"
     stroke="#0c2434"
     id="path4"
     sodipodi:nodetypes="ccccccccsccscccccccccsccccccsccscccccccscccscsccscccsscccccccccccccsccscccscsccccccsscccssccscsccccssssscccccccssccccsccccccccccccssccsscccccsccccscccssscccccssssssssss" />
</svg>
