<svg width="81" height="30" viewBox="0 0 81 30" fill="none" xmlns="http://www.w3.org/2000/svg">
<path d="M40.3706 28.6998C18.3161 28.6998 0.499084 28.9888 0.499084 29.374C0.499084 29.7111 18.3161 30 40.3706 30C62.377 30 80.2422 29.7111 80.2422 29.374C80.2422 28.9888 62.377 28.6998 40.3706 28.6998Z" fill="#8FA2E3" fill-opacity="0.4"/>
<path d="M8.62064 22.2019L8.6209 22.1992L24.7687 22.3916L25.2672 22.3533C25.2672 22.3537 25.2673 22.3541 25.2673 22.3546C25.2784 22.4983 25.2936 22.6031 25.3138 22.6814C25.3337 22.7587 25.3536 22.7902 25.362 22.801C25.366 22.8062 25.372 22.8143 25.3997 22.8248C25.4345 22.838 25.5051 22.8547 25.6348 22.8547C25.635 22.8547 25.6352 22.8547 25.6354 22.8547L57.2719 22.8066H57.2726C57.484 22.8066 57.6457 22.806 57.7861 22.7913C57.9235 22.7768 58.0045 22.7515 58.0565 22.7232C58.1181 22.6896 58.2538 22.5935 58.317 22.0923C58.7797 17.8952 62.3122 14.6701 66.6115 14.6685C70.7521 14.6189 74.2414 17.5355 74.8605 21.5868C74.9578 22.12 75.0397 22.351 75.1418 22.4826C75.2164 22.5789 75.3427 22.6723 75.7123 22.7564L76.9492 22.7106L76.9584 22.7103H76.9677C77.2477 22.7103 77.5647 22.5996 77.7551 22.4409L77.765 22.4327L77.7746 22.4255C77.7745 22.4253 77.797 22.4056 77.8324 22.3414C77.8694 22.2745 77.9088 22.1806 77.9476 22.0579C78.0256 21.8117 78.0871 21.496 78.1334 21.1513C78.2258 20.4641 78.2494 19.7294 78.2494 19.3579C78.2494 19.2937 78.2548 19.1922 78.26 19.0957C78.2631 19.0377 78.2661 18.9814 78.2678 18.9361C78.2734 18.7832 78.2721 18.6378 78.2544 18.5137L78.2533 18.506L78.2524 18.4982C78.2512 18.4871 78.25 18.4764 78.2489 18.4661C78.2387 18.374 78.2323 18.3169 78.2247 18.2713C78.2055 18.2626 78.1783 18.2512 78.1404 18.237L78.1404 18.2371L78.1303 18.2331C77.9293 18.1527 77.8011 18.1244 77.6418 18.1244H77.1369L77.1418 17.6195L77.19 12.6645C77.19 12.6637 77.19 12.6629 77.19 12.6621C77.1897 11.9942 77.0656 11.609 76.8649 11.3562C76.663 11.1017 76.3182 10.8988 75.6907 10.7419L75.6907 10.7419L75.6855 10.7406C71.4792 9.64119 66.0668 8.73059 60.7953 8.29929L60.6407 8.28665L60.5205 8.18877L53.5384 2.50683C52.0506 1.29801 50.329 0.5 48.6531 0.5H36.3738C35.7307 0.5 35.5942 0.633902 35.5254 0.732157C35.4702 0.811032 35.4176 0.93374 35.3598 1.14664C35.3213 1.28855 35.2877 1.4405 35.2478 1.62108C35.2265 1.71727 35.2034 1.82158 35.1769 1.93683C35.0057 2.75953 34.8538 3.78841 34.7043 4.80031C34.647 5.18874 34.59 5.57468 34.5324 5.94548C34.43 6.60532 34.3252 7.21944 34.2135 7.69361C34.158 7.92956 34.0972 8.14628 34.0287 8.32261C33.9944 8.41083 33.9539 8.50031 33.9047 8.58152C33.8589 8.6573 33.7862 8.75873 33.675 8.83658L33.6751 8.83668L33.6656 8.84299C33.571 8.90604 33.4279 8.99511 33.1992 9.06286C32.9792 9.12806 32.7005 9.16773 32.3289 9.16773L32.3271 9.16773L4.8329 9.07142C4.83258 9.07142 4.83228 9.07142 4.83196 9.07142C4.25928 9.07144 3.82208 9.0898 3.47926 9.14301C3.13803 9.19596 2.9264 9.27845 2.78202 9.38158C2.51152 9.57479 2.31985 9.95566 2.19977 10.9867C2.10667 11.8493 2.08249 13.0043 2.07043 14.1805C2.06816 14.4017 2.06632 14.6238 2.06449 14.8445C2.05671 15.7839 2.04915 16.6974 2.00949 17.4113L1.99601 17.6539L1.79698 17.7932C1.60256 17.9293 1.40975 17.9864 1.27479 18.0212C1.22656 18.0337 1.19048 18.0427 1.16285 18.0496C1.11694 18.0611 1.09439 18.0668 1.07833 18.0725C1.06079 18.123 1.03604 18.2487 1.04672 18.518C1.06313 18.8651 1.05783 19.2821 1.05249 19.7016C1.04984 19.9103 1.04717 20.1195 1.04717 20.321C1.04717 20.9565 1.07242 21.5407 1.17717 21.9833C1.1932 22.0431 1.28179 22.1806 1.62655 22.3391C1.95228 22.4889 2.39858 22.6063 2.90187 22.6935C3.90292 22.8671 5.01445 22.9029 5.55521 22.9029H8.10736C8.33365 22.9029 8.45892 22.896 8.53568 22.8817C8.54138 22.8613 8.54859 22.8311 8.5562 22.7879C8.57927 22.657 8.59535 22.4801 8.61994 22.2096L8.62064 22.2019ZM41.1553 7.83225L41.1563 7.83986L41.157 7.84751C41.18 8.07708 41.2004 8.29317 41.1911 8.46574C41.1818 8.63948 41.137 8.90615 40.8963 9.08952C40.6957 9.24239 40.4496 9.25773 40.3078 9.26361C40.203 9.26795 40.0687 9.26673 39.9238 9.26541C39.8499 9.26473 39.7733 9.26404 39.6964 9.26404H37.7221C37.6835 9.26404 37.6346 9.26506 37.5822 9.26615C37.4792 9.2683 37.3626 9.27073 37.2832 9.26625C37.1417 9.25829 36.8916 9.22669 36.7004 9.01425C36.5272 8.82186 36.4902 8.57464 36.4783 8.39007C36.4653 8.19024 36.477 7.93542 36.5008 7.62391L36.7887 2.24952C36.7895 1.96714 36.8151 1.70497 36.8734 1.4964C36.9023 1.39339 36.9482 1.26979 37.0282 1.16107C37.109 1.05123 37.2739 0.896465 37.5295 0.896465H39.4075C39.7216 0.896465 40.0189 0.988594 40.2269 1.24113C40.4045 1.45687 40.4541 1.72211 40.4795 1.89778C40.5464 2.30174 40.6124 2.95294 40.6969 3.7868C40.7075 3.89126 40.7184 3.99859 40.7296 4.10867C40.8318 5.11251 40.9636 6.37083 41.1553 7.83225ZM42.0461 7.94126L42.0459 7.94129L42.0439 7.92873C41.9216 7.17035 41.7758 5.9792 41.6379 4.83938L41.6131 4.63452C41.4832 3.56068 41.3621 2.55981 41.2733 2.00516L41.2733 2.00517L41.2721 1.99688C41.2705 1.98572 41.2687 1.9737 41.2669 1.96102C41.2572 1.89482 41.2448 1.81051 41.2396 1.7356C41.2336 1.64829 41.2301 1.50089 41.2908 1.34923C41.3629 1.16896 41.5004 1.04115 41.6686 0.970662C41.8137 0.909905 41.969 0.896465 42.1041 0.896465H48.1715C49.2388 0.896465 50.23 1.21818 51.3158 1.71175L51.3158 1.71173L51.3204 1.71384C52.0812 2.06889 52.5042 2.33328 53.1655 2.89278L53.1722 2.89853L53.1788 2.90451L57.4164 6.75683L58.5275 7.76691L57.0326 7.62455C56.555 7.57906 55.9514 7.58251 55.4934 7.6866C55.2615 7.73931 55.1132 7.80778 55.035 7.87006C54.9835 7.91105 54.978 7.93238 54.9785 7.95628C54.9888 8.03732 55.0431 8.11533 55.1603 8.25204L55.1638 8.25606C55.187 8.28314 55.2256 8.32815 55.2573 8.37352C55.2748 8.39855 55.301 8.43864 55.3234 8.48927C55.3446 8.53695 55.3775 8.62709 55.3719 8.7425C55.3654 8.87564 55.3094 9.00111 55.2136 9.09509C55.1305 9.17675 55.0398 9.21291 54.9863 9.2297C54.885 9.2615 54.7827 9.26404 54.7205 9.26404H43.5969C43.2253 9.26404 42.8103 9.24203 42.5021 8.97085C42.2039 8.70842 42.1139 8.30301 42.0461 7.94126ZM54.744 8.26334C54.744 8.26331 54.743 8.26337 54.741 8.26359L54.744 8.26334ZM66.6145 17.2576C63.4236 17.2576 60.8545 19.8267 60.8545 23.0176C60.8545 26.2086 63.4236 28.7777 66.6145 28.7777C69.8055 28.7777 72.3746 26.2086 72.3746 23.0176C72.3746 19.8267 69.8055 17.2576 66.6145 17.2576ZM16.9196 17.2576C13.7286 17.2576 11.1595 19.8267 11.1595 23.0176C11.1595 26.2086 13.7286 28.7777 16.9196 28.7777C20.1105 28.7777 22.6796 26.2086 22.6796 23.0176C22.6796 19.8267 20.1105 17.2576 16.9196 17.2576Z" fill="white" stroke="#0C2434"/>
</svg>
