<svg width="89" height="29" viewBox="0 0 89 29" fill="none" xmlns="http://www.w3.org/2000/svg">
<path d="M44.1193 27.3752C20.0425 27.3752 0.53978 27.6877 0.53978 28.1876C0.53978 28.625 20.0425 28.9999 44.1193 28.9999C68.196 28.9999 87.6987 28.625 87.6987 28.1876C87.6987 27.6877 68.196 27.3752 44.1193 27.3752Z" fill="#8FA2E3" fill-opacity="0.4"/>
<path d="M8.04653 22.7395L8.04413 22.7151V22.6906V22.6881V22.6857V22.6832V22.6808V22.6784V22.6759V22.6735V22.6711V22.6686V22.6662V22.6637V22.6613V22.6589V22.6564V22.654V22.6516V22.6491V22.6467V22.6443V22.6418V22.6394V22.637V22.6346V22.6321V22.6297V22.6273V22.6248V22.6224V22.62V22.6176V22.6151V22.6127V22.6103V22.6078V22.6054V22.603V22.6006V22.5982V22.5957V22.5933V22.5909V22.5885V22.586V22.5836V22.5812V22.5788V22.5764V22.574V22.5715V22.5691V22.5667V22.5643V22.5619V22.5595V22.557V22.5546V22.5522V22.5498V22.5474V22.545V22.5426V22.5401V22.5377V22.5353V22.5329V22.5305V22.5281V22.5257V22.5233V22.5209V22.5185V22.5161V22.5137V22.5112V22.5088V22.5064V22.504V22.5016V22.4992V22.4968V22.4944V22.492V22.4896V22.4872V22.4848V22.4824V22.48V22.4776V22.4752V22.4728V22.4704V22.468V22.4656V22.4632V22.4608V22.4584V22.456V22.4536V22.4513V22.4489V22.4465V22.4441V22.4417V22.4393V22.4369V22.4345V22.4321V22.4297V22.4273V22.425V22.4226V22.4202V22.4178V22.4154V22.413V22.4106V22.4082V22.4059V22.4035V22.4011V22.3987V22.3963V22.3939V22.3916V22.3892V22.3868V22.3844V22.382V22.3797V22.3773V22.3749V22.3725V22.3701V22.3678V22.3654V22.363V22.3606V22.3583V22.3559V22.3535V22.3511V22.3488V22.3464V22.344V22.3417V22.3393V22.3369V22.3345V22.3322V22.3298V22.3274V22.3251V22.3227V22.3203V22.318V22.3156V22.3132V22.3109V22.3085V22.3061V22.3038V22.3014V22.299V22.2967V22.2943V22.292V22.2896V22.2872V22.2849V22.2825V22.2801V22.2778V22.2754V22.2731V22.2707V22.2684V22.266V22.2636V22.2613V22.2589V22.2566V22.2542V22.2519V22.2495V22.2472V22.2448V22.2425V22.2401V22.2378V22.2354V22.2331V22.2307V22.2284V22.226V22.2237V22.2213V22.219V22.2166V22.2143V22.2119V22.2096V22.2072V22.2049V22.2025V22.2002V22.1979V22.1955V22.1932V22.1908V22.1885V22.1862V22.1838V22.1815V22.1791V22.1768V22.1745V22.1721V22.1698V22.1674V22.1651V22.1628V22.1604V22.1581V22.1558V22.1534V22.1511V22.1488V22.1464V22.1441V22.1418V22.1394V22.1371V22.1348V22.1325V22.1301V22.1278V22.1255V22.1231V22.1208V22.1185V22.1162V22.1138V22.1115V22.1092V22.1069V22.1045V22.1022V22.0999V22.0976V22.0952V22.0929V22.0906V22.0883V22.086V22.0836V22.0813V22.079V22.0767V22.0744V22.0721V22.0697V22.0674V22.0651V22.0628V22.0605V22.0582V22.0558V22.0535V22.0512V22.0489V22.0466V22.0443V22.042V22.0397V22.0374V22.035V22.0327V22.0304V22.0281V22.0258V22.0235V22.0212V22.0189V22.0166V22.0143V22.012V22.0097V22.0074V22.0051V22.0028V22.0005V21.9982V21.9959V21.9936V21.9913V21.989V21.9867V21.9844V21.9821V21.9798V21.9775V21.9752V21.9729V21.9706V21.9683V21.966V21.9637V21.9614V21.9591V21.9568V21.9545V21.9522V21.9499V21.9476V21.9453V21.9431V21.9408V21.9385V21.9362V21.9339V21.9316V21.9293V21.927V21.9247V21.9225V21.9202V21.9179V21.9156V21.9133V21.911V21.9088V21.9065V21.9042V21.9019V21.8996V21.8973V21.8951V21.8928V21.8905V21.8882V21.8859V21.8837V21.8814V21.8791V21.8768V21.8746V21.8723V21.87V21.8677V21.8655V21.8632V21.8609V21.8586V21.8564V21.8541V21.8518V21.8496V21.8473V21.845V21.8427V21.8405V21.8382V21.8359V21.8337V21.8314V21.8291V21.8269V21.8246V21.8223V21.8201V21.8178V21.8156V21.8133V21.811V21.8088V21.8065V21.8042V21.802V21.7997V21.7975V21.7952V21.7929V21.7907V21.7884V21.7862V21.7839V21.7817V21.7794V21.7771V21.7749V21.7726V21.7704V21.7681V21.7659V21.7636V21.7614V21.7591V21.7569V21.7546V21.7524V21.7501V21.7479V21.7456V21.7434V21.7411V21.7389V21.7366V21.7344V21.7321V21.7299V21.7276V21.7254V21.7231V21.7209V21.7187V21.7164V21.7142V21.7119V21.7097V21.7075V21.7052V21.703V21.7007V21.6985V21.6963V21.694V21.6918V21.6895V21.6873V21.6851V21.6828V21.6806V21.6784V21.6761V21.6739V21.6717V21.6694V21.6672V21.665V21.6627V21.6605V21.6583V21.656V21.6538V21.6516V21.6494V21.6471V21.6449V21.6427V21.6404V21.6382V21.636V21.6338V21.6315V21.6293V21.6271V21.6249V21.6227V21.6204V21.6182V21.616V21.6138V21.6115V21.6093V21.6071V21.6049V21.6027V21.6005V21.5982V21.596V21.5938V21.5916V21.5894V21.5872V21.5849V21.5827V21.5805V21.5783V21.5761V21.5739V21.5717V21.5695V21.5672V21.565V21.5628V21.5606V21.5584V21.5562V21.554V21.5518V21.5496V21.5474V21.5452V21.543V21.5407V21.5385V21.5363V21.5341V21.5319V21.5297V21.5275V21.5253V21.5231V21.5209V21.5187V21.5165V21.5143V21.5121V21.5099V21.5077V21.5055V21.5033C8.04413 16.533 12.0874 12.5677 17.1203 12.5677C22.0871 12.5677 26.1964 16.5306 26.1964 21.5033C26.1964 21.976 26.1746 22.4486 26.131 22.9211C26.1171 23.094 26.1039 23.2505 26.0918 23.3929C26.0613 23.7529 26.0385 24.0227 26.0324 24.2393C26.0251 24.5018 26.0491 24.5914 26.0574 24.6143C26.0756 24.6248 26.1269 24.6478 26.2477 24.6739C26.4099 24.709 26.6146 24.7345 26.9031 24.7705C27.0081 24.7836 27.1243 24.7981 27.2536 24.815H63.2289C63.5572 24.7994 63.8402 24.7935 64.0814 24.7898C64.1318 24.789 64.1799 24.7883 64.2258 24.7876C64.4064 24.785 64.5543 24.7829 64.6824 24.7774C64.8426 24.7704 64.9389 24.7591 64.9991 24.745C65.0087 24.6886 65.0145 24.5957 65.0101 24.4416C65.0045 24.2433 64.9854 24.0043 64.9606 23.6937C64.9431 23.4745 64.9228 23.2195 64.9023 22.9179C64.8589 22.4465 64.8372 21.975 64.8372 21.5033C64.8372 16.533 68.8805 12.5677 73.9133 12.5677C78.9462 12.5677 82.9895 16.533 82.9895 21.5033V21.5048V21.5063V21.5077V21.5092V21.5107V21.5121V21.5136V21.515V21.5165V21.518V21.5194V21.5209V21.5224V21.5238V21.5253V21.5268V21.5282V21.5297V21.5312V21.5326V21.5341V21.5356V21.537V21.5385V21.5399V21.5414V21.5429V21.5443V21.5458V21.5473V21.5487V21.5502V21.5517V21.5531V21.5546V21.5561V21.5575V21.559V21.5604V21.5619V21.5634V21.5648V21.5663V21.5678V21.5692V21.5707V21.5722V21.5736V21.5751V21.5766V21.578V21.5795V21.581V21.5824V21.5839V21.5853V21.5868V21.5883V21.5897V21.5912V21.5927V21.5941V21.5956V21.5971V21.5985V21.6V21.6015V21.6029V21.6044V21.6058V21.6073V21.6088V21.6102V21.6117V21.6132V21.6146V21.6161V21.6176V21.619V21.6205V21.622V21.6234V21.6249V21.6264V21.6278V21.6293V21.6307V21.6322V21.6337V21.6351V21.6366V21.6381V21.6395V21.641V21.6425V21.6439V21.6454V21.6469V21.6483V21.6498V21.6512V21.6527V21.6542V21.6556V21.6571V21.6586V21.66V21.6615V21.663V21.6644V21.6659V21.6674V21.6688V21.6703V21.6718V21.6732V21.6747V21.6761V21.6776V21.6791V21.6805V21.682V21.6835V21.6849V21.6864V21.6879V21.6893V21.6908V21.6923V21.6937V21.6952V21.6966V21.6981V21.6996V21.701V21.7025V21.704V21.7054V21.7069V21.7084V21.7098V21.7113V21.7128V21.7142V21.7157V21.7172V21.7186V21.7201V21.7215V21.723V21.7245V21.7259V21.7274V21.7289V21.7303V21.7318V21.7333V21.7347V21.7362V21.7377V21.7391V21.7406V21.742V21.7435V21.745V21.7464V21.7479V21.7494V21.7508V21.7523V21.7538V21.7552V21.7567V21.7582V21.7596V21.7611V21.7626V21.764V21.7655V21.7669V21.7684V21.7699V21.7713V21.7728V21.7743V21.7757V21.7772V21.7787V21.7801V21.7816V21.7831V21.7845V21.786V21.7874V21.7889V21.7904V21.7918V21.7933V21.7948V21.7962V21.7977V21.7992V21.8006V21.8021V21.8036V21.805V21.8065V21.808V21.8094V21.8109V21.8123V21.8138V21.8153V21.8167V21.8182V21.8197V21.8211V21.8226V21.8241V21.8255V21.827V21.8285V21.8299V21.8314V21.8328V21.8343V21.8358V21.8372V21.8387V21.8402V21.8416V21.8431V21.8446V21.846V21.8475V21.849V21.8504V21.8519V21.8533V21.8548V21.8563V21.8577V21.8592V21.8607V21.8621V21.8636V21.8651V21.8665V21.868V21.8695V21.8709V21.8724V21.8739V21.8753V21.8768V21.8782V21.8797V21.8812V21.8826V21.8841V21.8856V21.887V21.8885V21.89V21.8914V21.8929V21.8944V21.8958V21.8973V21.8988V21.9002V21.9017V21.9031V21.9046V21.9061V21.9075V21.909V21.9105V21.9119V21.9134V21.9149V21.9163V21.9178V21.9193V21.9207V21.9222V21.9236V21.9251V21.9266V21.928V21.9295V21.931V21.9324V21.9339V21.9354V21.9368V21.9383V21.9398V21.9412V21.9427V21.9442V21.9456V21.9471V21.9485V21.95V21.9515V21.9529V21.9544V21.9559V21.9573V21.9588V21.9603V21.9617V21.9632V21.9647V21.9661V21.9676V21.969V21.9705V21.972V21.9734V21.9749V21.9764V21.9778V21.9793V21.9808V21.9822V21.9837V21.9852V21.9866V21.9881V21.9895V21.991V21.9925V21.9939V21.9954V21.9969V21.9983V21.9998V22.0013V22.0027V22.0042V22.0057V22.0071V22.0086V22.0101V22.0115V22.013V22.0144V22.0159V22.0174V22.0188V22.0203V22.0218V22.0232V22.0247V22.0262V22.0276V22.0291V22.0306V22.032V22.0335V22.035V22.0364V22.0379V22.0393V22.0408V22.0423V22.0437V22.0452V22.0467V22.0481V22.0496V22.0511V22.0525V22.054V22.0555V22.0569V22.0584V22.0598V22.0613V22.0628V22.0642V22.0657V22.0672V22.0686V22.0701V22.0716V22.073V22.0745V22.076V22.0774V22.0789V22.0804V22.0818V22.0833V22.0847V22.0862V22.0877V22.0891V22.0906V22.0921V22.0935V22.095V22.0965V22.0979V22.0994V22.1009V22.1023V22.1038V22.1052V22.1067V22.1082V22.1096V22.1111V22.1126V22.114V22.1155V22.117V22.1184V22.1199V22.1214V22.1228V22.1243V22.1257V22.1272V22.1287V22.1301V22.1316V22.1331V22.1345V22.136V22.1375V22.1389V22.1404V22.1419V22.1433V22.1448V22.1463V22.1477V22.1492V22.1506V22.1521V22.1536V22.155V22.1565V22.158V22.1594V22.1609V22.1624V22.1638V22.1653V22.1668V22.1682V22.1697V22.1712V22.1726V22.1741V22.1755V22.177V22.1785V22.1799V22.1814V22.1829V22.1843V22.1858V22.1873V22.1887V22.1902V22.1917V22.1931V22.1946V22.196V22.1975V22.199V22.2004V22.2019V22.2034V22.2048V22.2063V22.2078V22.2092V22.2107V22.2122V22.2136V22.2151V22.2165V22.218V22.2195V22.2209V22.2224V22.2239V22.2253V22.2268V22.2283V22.2297V22.2312V22.2327V22.2341V22.2356V22.2371V22.2385V22.24V22.2414V22.2429V22.2444V22.2458V22.2473V22.2488V22.2502V22.2517V22.2532V22.272L82.9881 22.2907C82.9717 22.5075 82.9534 22.6986 82.9369 22.8652C82.9342 22.8928 82.9315 22.9195 82.9289 22.9455C82.9157 23.0786 82.9045 23.1908 82.8966 23.2911C82.8791 23.5147 82.8863 23.607 82.8943 23.6444C82.9028 23.6494 82.9163 23.6565 82.9367 23.6653C83.0418 23.7104 83.2201 23.7549 83.5437 23.8139L85.7153 23.7529L85.7153 23.7527H85.7293C86.1118 23.7527 86.4289 23.6131 86.6493 23.3964L86.6897 23.3566L86.738 23.3269C87.0825 23.1151 87.2905 22.8307 87.5327 21.9388C87.7655 21.019 87.7708 19.6502 87.7078 18.5963L87.7069 18.5814V18.5665C87.7069 18.4539 87.7099 18.3464 87.7126 18.252C87.7131 18.2344 87.7136 18.2172 87.714 18.2006C87.717 18.0902 87.7185 18.0019 87.7152 17.9229C87.7105 17.8061 87.696 17.7348 87.6753 17.6841C87.611 17.6884 87.5344 17.6918 87.4446 17.6918H87.1134L86.9842 17.3868C86.869 17.115 86.7515 16.7822 86.6267 16.4286C86.5722 16.2741 86.5162 16.1157 86.4584 15.9565C86.2639 15.4207 86.0351 14.8366 85.7333 14.2414C85.4338 13.7126 85.1057 13.2576 84.6416 12.876C84.1762 12.4935 83.548 12.1635 82.6229 11.9284C76.4817 10.4339 69.7712 9.25099 63.7611 8.62871L63.6786 8.62018L63.6033 8.5855C61.9209 7.81043 60.2587 6.9544 58.608 6.10428C57.7881 5.68206 56.9711 5.2613 56.1558 4.85264C53.6857 3.61447 51.2058 2.47326 48.6094 1.6733L48.6058 1.67214C45.917 0.820957 42.4063 0.554952 38.7844 0.508179C36.6701 0.480874 34.5707 0.527219 32.587 0.571011C31.1482 0.602773 29.7702 0.633192 28.4916 0.633192C25.1719 0.633192 22.4039 1.82466 19.122 3.23738C18.9463 3.31298 18.7692 3.38922 18.5905 3.46595C17.2234 4.06983 16.0694 4.72203 14.9723 5.34206C14.8429 5.41518 14.7143 5.48785 14.5863 5.55994C13.3796 6.23926 12.2138 6.87118 10.9233 7.29429L10.9234 7.29435L10.9155 7.2968C10.0287 7.5714 9.01084 7.779 8.00203 7.97668C7.89395 7.99786 7.78597 8.01892 7.67819 8.03995C6.76949 8.21722 5.8752 8.39169 5.05853 8.60704C4.14063 8.84908 3.36803 9.13142 2.81448 9.49527C2.27218 9.85173 1.98303 10.2555 1.92582 10.7507L1.92578 10.751C1.69689 12.721 1.57174 14.8975 1.45523 16.9236C1.44366 17.1248 1.43218 17.3246 1.42068 17.5225C1.41319 17.8406 1.21069 18.0374 1.06614 18.1372C0.927574 18.233 0.762306 18.2968 0.659615 18.3365L0.656433 18.3377C0.600525 18.3593 0.55748 18.376 0.52359 18.3897C0.495377 19.0906 0.476593 20.0206 0.560921 20.8846C0.60672 21.3538 0.681496 21.7869 0.794273 22.1449C0.909317 22.51 1.04967 22.7507 1.1955 22.8846L1.20185 22.8904L1.20799 22.8965C1.28241 22.9697 1.44595 23.0655 1.75959 23.1684C2.06044 23.267 2.44513 23.3554 2.91331 23.4477C3.90817 23.6017 5.12251 23.713 6.28014 23.819C6.49876 23.8391 6.71535 23.8589 6.92807 23.8788C7.03307 23.8841 7.12778 23.8896 7.21459 23.8948C7.40853 23.9062 7.56306 23.9153 7.7048 23.9129C7.91064 23.9094 7.97234 23.879 7.98661 23.8694L7.98689 23.8692C7.98908 23.8678 7.99493 23.8639 8.00476 23.8465C8.01717 23.8245 8.03716 23.778 8.05336 23.6898C8.08717 23.5058 8.09283 23.2101 8.04653 22.7395ZM26.0489 24.6084C26.0487 24.6085 26.0498 24.6095 26.0526 24.6114C26.0505 24.6093 26.0491 24.6083 26.0489 24.6084ZM0.417641 18.4404C0.417747 18.4404 0.419411 18.4393 0.42231 18.4372C0.418976 18.4393 0.417542 18.4404 0.417641 18.4404ZM24.6541 9.69296L24.2223 9.67061L24.1821 9.24011L24.1295 8.67636L24.162 9.09216L24.2063 9.65844L23.639 9.63054L23.6381 9.6305C22.373 9.56828 21.1062 9.50598 19.9647 9.44365C19.7056 9.44236 19.4558 9.40531 19.2287 9.27965C19.0053 9.15606 18.8578 8.97653 18.7432 8.79395C18.5788 8.58167 18.4071 8.24924 18.2696 7.94885C18.1258 7.63448 17.9925 7.29484 17.9181 7.04639C17.8535 6.88508 17.7827 6.67723 17.8159 6.43176C17.8487 6.18975 17.9737 5.98107 18.104 5.78882L18.1118 5.77727L18.1203 5.76617C18.2756 5.56247 18.571 5.34814 18.8729 5.15208C19.1977 4.94109 19.6073 4.70377 20.0575 4.45861C20.9592 3.96763 22.0498 3.43141 23.0103 2.99052L23.6615 2.69161L23.6636 2.71871L23.9079 2.61189C24.4757 2.36369 25.0095 2.16362 25.3101 2.08778C26.8077 1.64054 28.3757 1.38313 29.9496 1.38279C29.9506 1.38279 29.9517 1.38279 29.9527 1.38279L35.0287 1.32035L35.0287 1.32031H35.0349C35.2309 1.32031 35.4533 1.36579 35.6434 1.4428C35.7401 1.48196 35.846 1.53627 35.9416 1.61114C36.0327 1.68244 36.1465 1.79767 36.2054 1.96704C36.413 2.54667 36.5454 3.1963 36.6893 4.21046C36.798 4.97679 36.9158 5.97192 37.0761 7.32541C37.1281 7.76425 37.1845 8.24075 37.2465 8.75934L37.2466 8.75933L37.2472 8.76551C37.2771 9.04425 37.3041 9.29791 37.2917 9.48865C37.2852 9.58905 37.2659 9.72188 37.1977 9.85093C37.12 9.99796 36.9993 10.1021 36.857 10.1621C36.7332 10.2142 36.6096 10.226 36.5205 10.2294C36.4278 10.233 36.3265 10.2284 36.2308 10.223C36.1956 10.221 36.1594 10.2188 36.1218 10.2166C35.9453 10.2059 35.7398 10.1935 35.4795 10.1935V10.1936L35.4699 10.1934C32.9724 10.1453 30.0598 9.98604 27.2064 9.83006C26.3459 9.78302 25.4908 9.73628 24.6541 9.69296ZM54.0414 10.3695C54.0415 10.3696 54.0413 10.3684 54.0407 10.3657C54.0411 10.3681 54.0413 10.3694 54.0414 10.3695ZM54.4181 9.84298C54.4181 9.84298 54.418 9.84298 54.4178 9.84301L54.4181 9.84298ZM38.5288 1.32031V1.32019L38.5398 1.32043L41.3931 1.38279C42.5355 1.3832 43.9086 1.51112 45.1448 1.69272C46.3715 1.87293 47.5062 2.11219 48.16 2.3483C51.5069 3.48846 55.2993 5.4475 57.8837 7.3541L59.3314 8.42207L57.5403 8.25428C56.9 8.19429 56.1013 8.19795 55.4909 8.3376C55.1828 8.40807 54.9692 8.50302 54.8454 8.60275C54.7453 8.68338 54.7158 8.75274 54.7188 8.8435C54.7472 9.11059 54.8166 9.40142 54.8855 9.65731C54.9027 9.72134 54.9195 9.78195 54.9355 9.8391L54.9416 9.86108C54.9551 9.90952 54.9682 9.95642 54.9796 9.99846C54.9925 10.0461 55.0051 10.0947 55.0148 10.1384C55.0206 10.1646 55.0327 10.2197 55.0365 10.2816C55.044 10.3807 55.0221 10.48 54.9736 10.5667C54.9159 10.6699 54.8375 10.7258 54.7987 10.7501C54.7227 10.7978 54.6503 10.8149 54.6289 10.82C54.5702 10.8339 54.5095 10.8394 54.4682 10.8423C54.3757 10.849 54.2509 10.8511 54.1072 10.8506C53.8152 10.8496 53.3962 10.8376 52.8876 10.818C51.8683 10.7788 50.4654 10.7083 48.9454 10.6303C48.7047 10.6179 48.4611 10.6053 48.2156 10.5927C45.3552 10.4453 42.2396 10.2848 40.494 10.256C39.9855 10.2557 39.4997 10.203 39.1547 9.87771C38.8208 9.56304 38.7307 9.09214 38.6696 8.64293C38.5662 8.01135 38.475 7.27338 38.3835 6.53313C38.3337 6.13021 38.2838 5.72661 38.2318 5.33912C38.0803 4.20995 37.9122 3.22711 37.6848 2.63456C37.6321 2.51245 37.5839 2.37859 37.5619 2.24352C37.5393 2.10502 37.536 1.9142 37.6376 1.72862C37.7442 1.53403 37.9176 1.43206 38.0723 1.38132C38.2192 1.33316 38.3787 1.32031 38.5288 1.32031ZM17.1203 15.5048C13.704 15.5048 11.0135 18.1631 11.0135 21.5033C11.0135 24.778 13.7008 27.4394 17.1203 27.4394C20.4793 27.4394 23.2271 24.7749 23.2271 21.5033C23.2271 18.1662 20.4761 15.5048 17.1203 15.5048ZM73.9133 15.5048C70.5575 15.5048 67.8065 18.1662 67.8065 21.5033C67.8065 24.7749 70.5543 27.4394 73.9133 27.4394C77.2724 27.4394 80.0201 24.7749 80.0201 21.5033C80.0201 18.1662 77.2692 15.5048 73.9133 15.5048Z" fill="white" stroke="#0C2434"/>
</svg>
