<svg width="77" height="30" viewBox="0 0 77 30" fill="none" xmlns="http://www.w3.org/2000/svg">
<path d="M38.5284 28.7002C18.4533 28.7002 2.22954 28.989 2.22954 29.3742C2.22954 29.7111 18.4533 30 38.5284 30C58.5553 30 74.8272 29.7111 74.8272 29.3742C74.8272 28.989 58.5553 28.7002 38.5284 28.7002Z" fill="#8FA2E3" fill-opacity="0.4"/>
<path d="M20.4909 21.9064L20.491 21.908C20.5207 22.1894 20.5407 22.4675 20.5564 22.6863C20.5652 22.8078 20.5726 22.9111 20.5796 22.9866C20.5914 23.1128 20.6037 23.1973 20.6181 23.2575C20.6252 23.2873 20.6315 23.3055 20.6356 23.3155C20.6538 23.3234 20.6933 23.3364 20.7699 23.3486C20.9586 23.3788 21.2475 23.386 21.7269 23.386H53.356C53.7811 23.386 54.0273 23.385 54.1887 23.3644C54.2029 23.3626 54.2152 23.3608 54.2259 23.359C54.2316 23.3214 54.2388 23.2602 54.2448 23.1645C54.2485 23.1039 54.2519 23.0305 54.2558 22.9462C54.2648 22.7511 54.2765 22.4975 54.3018 22.2098C54.6111 17.8098 58.2941 14.3353 62.7917 14.3353C67.2938 14.3353 70.9723 17.8141 71.3298 22.2572L71.3298 22.2572L71.3303 22.2641C71.346 22.4997 71.3526 22.7276 71.3577 22.9052C71.3603 22.995 71.3626 23.072 71.3654 23.1306C71.3709 23.2427 71.3792 23.3066 71.3852 23.3409C71.3958 23.3435 71.409 23.3465 71.4252 23.3495C71.5632 23.3756 71.7881 23.386 72.1794 23.386H74.1532C74.6615 23.386 74.9902 23.2952 75.2012 23.137C75.3958 22.991 75.5684 22.7278 75.6303 22.1919L75.6302 22.1918L75.6314 22.1831C75.8169 20.7916 75.7243 18.2422 75.6755 17.0217L75.6751 17.0117V17.0017C75.6751 16.9355 75.6729 16.8774 75.6681 16.8277H75.6678H75.6671H75.6664H75.6658H75.6651H75.6645H75.6638H75.6632H75.6625H75.6619H75.6612H75.6605H75.6599H75.6592H75.6586H75.6579H75.6572H75.6566H75.6559H75.6552H75.6546H75.6539H75.6532H75.6526H75.6519H75.6512H75.6506H75.6499H75.6492H75.6486H75.6479H75.6472H75.6465H75.6459H75.6452H75.6445H75.6438H75.6432H75.6425H75.6418H75.6411H75.6404H75.6398H75.6391H75.6384H75.6377H75.637H75.6364H75.6357H75.635H75.6343H75.6336H75.6329H75.6322H75.6315H75.6309H75.6302H75.6295H75.6288H75.6281H75.6274H75.6267H75.626H75.6253H75.6246H75.6239H75.6232H75.6225H75.6218H75.6211H75.6204H75.6197H75.619H75.6183H75.6176H75.6169H75.6162H75.6155H75.6148H75.6141H75.6134H75.6127H75.612H75.6112H75.6105H75.6098H75.6091H75.6084H75.6077H75.607H75.6062H75.6055H75.6048H75.6041H75.6034H75.6026H75.6019H75.6012H75.6005H75.5998H75.599H75.5983H75.5976H75.5968H75.5961H75.5954H75.5947H75.5939H75.5932H75.5925H75.5917H75.591H75.5903H75.5895H75.5888H75.5881H75.5873H75.5866H75.5858H75.5851H75.5844H75.5836H75.5829H75.5821H75.5814H75.5806H75.5799H75.5791H75.5784H75.5776H75.5769H75.5761H75.5754H75.5746H75.5739H75.5731H75.5724H75.5716H75.5708H75.5701H75.5693H75.5686H75.5678H75.567H75.5663H75.5655H75.5647H75.564H75.5632H75.5624H75.5617H75.5609H75.5601H75.5594H75.5586H75.5578H75.557H75.5563H75.5555H75.5547H75.5539H75.5532H75.5524H75.5516H75.5508H75.55H75.5492H75.5485H75.5477H75.5469H75.5461H75.5453H75.5445H75.5437H75.5429H75.5421H75.5413H75.5405H75.5397H75.539H75.5382H75.5374H75.5366H75.5358H75.5349H75.5341H75.5333H75.5325H75.5317H75.5309H75.5301H75.5293H75.5285H75.5277H75.5269H75.5261H75.5252H75.5244H75.5236H75.5228H75.522H75.5212H75.5203H75.5195H75.5187H75.5179H75.517H75.5162H75.5154H75.5146H75.5137H75.5129H75.5121H75.5112H75.5104H75.5096H75.5087H75.5079H75.5071H75.5062H75.5054H75.5045H75.5037H75.5028H75.502H75.5012H75.0969L75.0123 16.4325C74.9333 16.0641 74.8828 15.5426 74.8304 15.0009L74.829 14.9858L74.828 14.9758C74.7741 14.4188 74.7157 13.8156 74.6237 13.2378C74.4382 12.2921 74.2184 11.9475 73.9377 11.7437C73.7817 11.6304 73.5745 11.5371 73.2672 11.4408C73.026 11.3652 72.7509 11.2956 72.4153 11.2107C72.3174 11.1859 72.2142 11.1598 72.1053 11.1319C67.4452 9.97735 62.4282 9.4993 57.6908 9.04789C56.9438 8.97671 56.2037 8.90619 55.473 8.83378L55.3264 8.81925L55.2111 8.72752C54.366 8.05527 53.4168 7.02111 52.4283 5.94405C52.1334 5.62274 51.835 5.29762 51.5348 4.97714C50.2109 3.56385 48.8294 2.21217 47.4293 1.4325C46.3623 1.10312 44.532 0.915041 42.2407 0.801963C40.211 0.701797 37.8695 0.661901 35.4638 0.620912C35.1354 0.615316 34.8059 0.609701 34.4757 0.603909C27.845 0.488257 21.0295 0.496179 14.3947 0.503892C12.7498 0.505804 11.116 0.507703 9.49886 0.507703C9.37543 0.507703 9.26131 0.507434 9.15541 0.507184C8.77305 0.506283 8.49805 0.505634 8.28043 0.518822C8.00382 0.535587 7.90762 0.572303 7.85932 0.602027C7.81543 0.629037 7.75246 0.685861 7.63496 0.899004C7.56188 1.03158 7.48771 1.18477 7.39192 1.38261C7.32532 1.52017 7.24827 1.67931 7.15389 1.86814L7.15114 1.8735C5.53175 5.017 4.67553 7.39452 3.81499 10.2152L3.81373 10.2192C3.29885 11.8575 2.96811 13.6433 2.82545 15.9152C2.81816 16.1503 2.68759 16.3155 2.56435 16.4106C2.45193 16.4974 2.3239 16.5457 2.23142 16.5753C2.09787 16.618 1.92164 16.6549 1.76585 16.6875C1.71262 16.6987 1.66177 16.7093 1.61582 16.7196L1.61212 16.7204C1.4463 16.7559 1.38261 16.8288 1.33897 16.9366C1.281 17.0798 1.26176 17.2972 1.28335 17.5838C1.32486 18.0046 1.33212 18.6724 1.33994 19.3926C1.34161 19.5465 1.34331 19.7028 1.34537 19.8596C1.35741 20.7742 1.38146 21.7312 1.47306 22.4689C1.56431 23.0564 1.68937 23.1439 1.73904 23.1735C1.78589 23.2014 1.8639 23.2295 2.02402 23.2571C2.12151 23.2739 2.20966 23.2852 2.31375 23.2986C2.40485 23.3102 2.50816 23.3235 2.64065 23.3434L2.71911 23.3551L2.78078 23.386H3.24045C3.35284 23.386 3.40118 23.3696 3.41602 23.3628C3.42145 23.3532 3.43237 23.3287 3.44331 23.277C3.46542 23.1725 3.47311 23.0314 3.47854 22.8172C3.47913 22.7938 3.4797 22.7697 3.48028 22.745C3.48464 22.5599 3.48986 22.3387 3.51277 22.1075C3.87327 17.7577 7.55559 14.3353 12.0022 14.3353C16.3983 14.3353 20.0301 17.6575 20.4909 21.9064ZM20.6226 23.3082C20.6222 23.3084 20.6239 23.3098 20.6287 23.3123C20.6253 23.3094 20.623 23.3081 20.6226 23.3082ZM71.3468 23.3286C71.3468 23.3286 71.3474 23.329 71.3487 23.3295C71.3475 23.3289 71.3469 23.3286 71.3468 23.3286ZM3.42135 23.36C3.42135 23.36 3.42088 23.3602 3.42002 23.3608L3.42135 23.36ZM3.41415 23.366C3.4129 23.3673 3.41241 23.3681 3.41254 23.3681C3.41264 23.368 3.41321 23.3674 3.41415 23.366ZM35.5807 8.03798L35.5807 8.03798L35.5795 8.03112C35.4935 7.50027 35.3994 6.90467 35.3034 6.29693C35.079 4.87643 34.8441 3.38961 34.6765 2.50834C34.594 2.29249 34.5353 1.98361 34.7034 1.69792C34.898 1.3671 35.2601 1.28894 35.5435 1.28894H35.5532L35.5628 1.28931L36.8144 1.33745L38.0566 1.38523C39.0569 1.38554 41.0685 1.43398 42.9647 1.53029C43.9159 1.57861 44.8436 1.63925 45.6028 1.71249C45.9821 1.74909 46.3241 1.78929 46.6084 1.83346C46.8833 1.87619 47.1352 1.92708 47.3166 1.99303L47.3957 2.02179L47.461 2.07487C49.0121 3.33513 50.448 4.52284 52.1713 6.88623L52.8157 7.76991L51.7258 7.67909C51.1709 7.63284 50.4712 7.63657 49.9417 7.75836C49.6736 7.82002 49.4992 7.901 49.4055 7.97868C49.3352 8.03701 49.322 8.07753 49.3284 8.14439L49.3306 8.16804V8.19179C49.3306 8.39967 49.3831 8.60245 49.4498 8.78195C49.4828 8.87068 49.5177 8.94986 49.5499 9.02069C49.5534 9.02853 49.5575 9.03736 49.5619 9.04694C49.5867 9.10094 49.6225 9.17869 49.642 9.23722L49.6544 9.27444L49.6608 9.31314C49.6897 9.48633 49.6264 9.63037 49.5542 9.72068C49.4915 9.79909 49.4206 9.84164 49.384 9.86131C49.3092 9.90152 49.2339 9.92084 49.1914 9.93064C49.0952 9.95282 48.9756 9.96726 48.8523 9.97805C48.5981 10.0003 48.24 10.0141 47.8127 10.0216C46.9543 10.0368 45.7751 10.0277 44.4945 10.0036C41.9393 9.95547 38.957 9.84741 37.2617 9.75087C36.7339 9.74799 36.3052 9.59232 36.0105 9.21634C35.7499 8.88385 35.6518 8.44081 35.5807 8.03798ZM20.121 8.01043L20.122 7.99687L20.1237 7.98338C20.2783 6.78525 20.7908 5.1106 21.2087 3.74524C21.3291 3.3517 21.4417 2.98385 21.5355 2.66052L21.5383 2.65111L21.5414 2.64181L21.5524 2.60877C21.6402 2.3446 21.7583 1.98949 21.9634 1.71344C22.0779 1.55921 22.2298 1.41366 22.4332 1.3146C22.6352 1.21622 22.8594 1.1777 23.0992 1.19317C25.029 1.25062 26.8433 1.25624 28.6756 1.26192C29.9019 1.26572 31.1362 1.26955 32.4187 1.28895C32.6242 1.28977 32.8428 1.3479 33.0231 1.43801C33.1735 1.51321 33.4277 1.67681 33.5163 1.97197C33.7005 2.47891 33.8132 3.06294 33.9386 3.96467C34.0155 4.51767 34.0994 5.20832 34.2068 6.09302C34.2766 6.6679 34.3564 7.32473 34.4507 8.07897C34.4865 8.34167 34.5136 8.58826 34.5048 8.79934C34.4959 9.01372 34.4477 9.2672 34.2616 9.4756C34.0779 9.68139 33.8318 9.76196 33.6159 9.80036C33.3993 9.83885 33.138 9.84719 32.8476 9.84719H32.8443C30.2939 9.84719 25.4268 9.84719 21.9537 9.75072V9.75079L21.9449 9.75039C21.8543 9.74628 21.7564 9.74343 21.6596 9.74061C21.5143 9.73638 21.3716 9.73222 21.2598 9.72398C21.0648 9.70959 20.8165 9.67773 20.5996 9.54516C20.3499 9.3926 20.2149 9.15631 20.1534 8.88913C20.097 8.64376 20.096 8.34794 20.121 8.01043ZM6.28767 9.7507L6.28053 9.75091H6.27339C5.85394 9.75091 5.3363 9.63644 5.12831 9.10954C5.04005 8.88594 5.03603 8.64343 5.06698 8.41266C5.09837 8.17865 5.17103 7.91875 5.27392 7.63579L5.27444 7.63435C6.673 3.82451 7.16356 2.83702 7.65864 1.89625C7.72507 1.76636 7.82404 1.66657 7.90131 1.59948C7.98651 1.52548 8.08232 1.45973 8.1758 1.4052C8.26951 1.35053 8.37098 1.30126 8.47105 1.26428C8.56153 1.23084 8.6897 1.19266 8.8249 1.19266C9.6423 1.19266 11.0607 1.18249 12.5957 1.17148L12.9976 1.1686C14.682 1.15657 16.4532 1.14452 17.683 1.14452H17.6929L17.7029 1.14492C18.0164 1.15746 18.3004 1.18947 18.532 1.2681C18.7741 1.35032 19.0203 1.50636 19.1392 1.79967C19.2466 2.06439 19.2052 2.33878 19.1473 2.55326C19.0871 2.77666 18.982 3.02769 18.861 3.29399C18.4687 4.17106 18.0576 5.12147 17.6783 5.99829C17.2802 6.91879 16.9171 7.75819 16.6476 8.34651C16.48 8.73553 16.2423 9.08988 15.9039 9.34774C15.5572 9.61184 15.1358 9.75091 14.65 9.75091C13.8372 9.75091 12.8525 9.7459 11.8353 9.74072C9.70069 9.72987 7.42259 9.71828 6.28767 9.7507ZM62.7917 16.9722C59.5054 16.9722 56.8889 19.5887 56.8889 22.875C56.8889 26.1157 59.5078 28.7779 62.7917 28.7779C66.0299 28.7779 68.6946 26.1132 68.6946 22.875C68.6946 19.5911 66.0324 16.9722 62.7917 16.9722ZM12.0022 16.9722C8.7159 16.9722 6.0994 19.5887 6.0994 22.875C6.0994 26.1157 8.71834 28.7779 12.0022 28.7779C15.2404 28.7779 17.9051 26.1132 17.9051 22.875C17.9051 19.5911 15.2429 16.9722 12.0022 16.9722Z" fill="#0C2434" stroke="#0C2434"/>
</svg>
