<svg width="28" height="30" viewBox="0 0 28 30" fill="none" xmlns="http://www.w3.org/2000/svg">
<path fill-rule="evenodd" clip-rule="evenodd" d="M7.85571 15.0195H1.35063C0.62917 15.0195 0.0407715 14.4311 0.0407715 13.7097V2.20513C0.0407715 1.48366 0.629229 0.895264 1.35063 0.895264H19.8511C20.2362 0.895264 20.5675 1.04286 20.825 1.32915L22.7347 3.45212L17.3442 3.87429C16.6953 3.92509 16.1327 4.23048 15.7366 4.74687L7.85571 15.0195ZM4.67894 4.3104C4.00845 4.3104 3.46499 4.85386 3.46499 5.52435C3.46499 6.19483 4.00845 6.73829 4.67894 6.73829C5.34942 6.73829 5.89288 6.19483 5.89288 5.52435C5.89288 4.85386 5.34942 4.3104 4.67894 4.3104ZM8.88995 4.15226L3.77688 11.2693C3.62624 11.4787 3.67376 11.7705 3.88312 11.9212C4.09247 12.0718 4.38427 12.0243 4.53497 11.815L9.64804 4.69794C9.79868 4.48858 9.75116 4.19673 9.54181 4.04608C9.33245 3.89538 9.0406 3.9429 8.88995 4.15226ZM8.74159 9.17644C8.0711 9.17644 7.52765 9.71989 7.52765 10.3904C7.52765 11.0609 8.0711 11.6043 8.74159 11.6043C9.41208 11.6043 9.95554 11.0609 9.95554 10.3904C9.9556 9.71995 9.41208 9.17644 8.74159 9.17644ZM27.6868 13.9146C27.9211 13.6092 28.0057 13.2563 27.9353 12.8779L26.7981 6.76237C26.6521 5.97757 26.4045 5.29524 25.7711 4.80933C25.1377 4.32341 24.4146 4.26083 23.6187 4.32317L17.4174 4.80886C17.0335 4.83892 16.7147 5.012 16.4804 5.31745L5.21946 19.9961C4.78036 20.5685 4.88899 21.3935 5.4614 21.8326L14.5893 28.8352C15.1617 29.2743 15.9868 29.1656 16.4259 28.5932L27.6868 13.9146ZM22.244 7.40655C21.8347 7.94011 21.9354 8.70446 22.4689 9.1138C23.0025 9.52314 23.7668 9.42241 24.1762 8.88886C24.5855 8.3553 24.4848 7.59095 23.9512 7.18161C23.4176 6.77228 22.6533 6.873 22.244 7.40655ZM22.7545 12.127L21.5159 13.742L17.8392 10.9222C17.6339 10.7655 17.3404 10.8048 17.1836 11.0101C17.0269 11.2154 17.0662 11.5089 17.2715 11.6657L21.3185 14.7694C21.5238 14.9262 21.8173 14.8868 21.9741 14.6816L23.4979 12.6946C23.6546 12.4894 23.6153 12.1959 23.41 12.0391C23.2048 11.8824 22.9113 11.9217 22.7545 12.127ZM19.0978 17.979L18.3674 16.9254L19.3401 15.6571L20.5471 16.0893C20.7908 16.1763 21.0588 16.0492 21.1458 15.8055C21.2328 15.5617 21.1058 15.2937 20.862 15.2067L15.8193 13.4012L15.8189 13.4023C15.6822 13.3537 15.5249 13.3692 15.3963 13.4579C15.184 13.6045 15.1307 13.8956 15.2773 14.1079L18.3287 18.51C18.4753 18.7223 18.7664 18.7756 18.9787 18.629C19.1911 18.4825 19.2445 18.1914 19.0978 17.979ZM16.877 14.7752L17.8079 16.1182L18.4154 15.3261L16.877 14.7752ZM17.4403 19.0561C17.597 18.8508 17.8905 18.8115 18.0958 18.9682C18.3011 19.125 18.3405 19.4184 18.1837 19.6238L16.6599 21.6107C16.5032 21.8159 16.2097 21.8553 16.0043 21.6986L11.9573 18.5948C11.7521 18.4381 11.7127 18.1446 11.8694 17.9392L13.3933 15.9523C13.55 15.7471 13.8435 15.7077 14.0488 15.8644C14.2541 16.0212 14.2935 16.3147 14.1367 16.52L12.8969 18.1366L14.1782 19.1193L14.9723 18.0839C15.129 17.8786 15.4225 17.8392 15.6278 17.996C15.8331 18.1527 15.8725 18.4462 15.7157 18.6515L14.9204 19.6885L16.2017 20.6712L17.4403 19.0561ZM9.33579 21.2429L10.0977 20.2494C10.386 19.8736 10.8016 19.6498 11.239 19.5922C11.6755 19.5346 12.1339 19.6426 12.5086 19.93L14.5687 21.5099C14.9446 21.7982 15.1683 22.2138 15.226 22.6512C15.2836 23.0877 15.1756 23.5461 14.8882 23.9208L14.1262 24.9143C13.9695 25.1196 13.676 25.1589 13.4707 25.0022L9.42368 21.8984C9.21837 21.7417 9.17905 21.4482 9.33579 21.2429ZM10.8411 20.8171C10.9719 20.6465 11.1608 20.5449 11.3598 20.5187C11.5595 20.4924 11.7694 20.5418 11.941 20.6734L14.0011 22.2534C14.1717 22.3842 14.2733 22.5731 14.2994 22.7721C14.3258 22.9718 14.2764 23.1817 14.1448 23.3533L13.668 23.9748L10.3632 21.4402L10.8411 20.8171Z" fill="#0C2434"/>
</svg>
