<svg width="12" height="16" viewBox="0 0 12 16" fill="none" xmlns="http://www.w3.org/2000/svg">
<path d="M11.9121 2.68782L10.7121 1.48781C10.5949 1.37061 10.4051 1.37061 10.2879 1.48781C10.1707 1.60501 10.1707 1.79485 10.2879 1.91202L11.2758 2.89991L10.2879 3.8878C10.2317 3.94405 10.2 4.02021 10.2 4.09992V4.99992C10.2 5.66176 10.7382 6.19993 11.4 6.19993V11.2999C11.4 11.4654 11.2656 11.5999 11.1 11.5999C10.9345 11.5999 10.8 11.4655 10.8 11.2999V10.6999C10.8 10.2036 10.3963 9.79993 9.90001 9.79993H9.60002V1.99994C9.60002 1.3381 9.06185 0.799927 8.40001 0.799927H2.40002C1.73821 0.799927 1.20001 1.3381 1.20001 1.99994V12.7999C0.5382 12.7999 0 13.3381 0 14V14.9C0 15.0658 0.134184 15.2 0.30001 15.2H10.5C10.6658 15.2 10.8 15.0658 10.8 14.9V14C10.8 13.3381 10.2619 12.7999 9.60002 12.7999V10.4H9.90003C10.0655 10.4 10.2 10.5344 10.2 10.7V11.3C10.2 11.7962 10.6038 12.2 11.1 12.2C11.5963 12.2 12 11.7962 12 11.3V2.89994C12 2.82023 11.9684 2.74407 11.9121 2.68782ZM8.40001 5.90549C8.40001 6.07131 8.26583 6.2055 8.1 6.2055H2.7C2.53418 6.2055 2.39999 6.07131 2.39999 5.90549V2.29992C2.39999 2.13409 2.53418 1.99991 2.7 1.99991H8.1C8.26583 1.99991 8.40001 2.13409 8.40001 2.29992V5.90549Z" fill="#717171"/>
</svg>
