<svg width="24" height="24" viewBox="0 0 24 24" fill="none" xmlns="http://www.w3.org/2000/svg">
<path d="M12 4.34606C11.6 4.34606 11.2756 4.02178 11.2756 3.6217V0.724359C11.2756 0.324281 11.6 0 12 0C12.4 0 12.7244 0.324281 12.7244 0.724359V3.62175C12.7244 4.02178 12.4 4.34606 12 4.34606Z" fill="#799EA8"/>
<path d="M12 24C11.6 24 11.2756 23.6758 11.2756 23.2757V20.3783C11.2756 19.9783 11.5999 19.6539 12 19.6539C12.4 19.6539 12.7244 19.9782 12.7244 20.3783V23.2757C12.7244 23.6758 12.4 24 12 24Z" fill="#CFDBE4"/>
<path d="M8.17303 5.37149C7.82658 5.57151 7.38356 5.45282 7.18355 5.10636L5.73488 2.59715C5.53486 2.25069 5.65355 1.80768 6 1.60766C6.34645 1.40765 6.78947 1.52633 6.98949 1.87279L8.43816 4.38201C8.63817 4.72846 8.51949 5.17147 8.17303 5.37149Z" fill="#8EB1BF"/>
<path d="M18 22.3922C17.6535 22.5923 17.2105 22.4736 17.0105 22.1271L15.5618 19.6179C15.3618 19.2714 15.4805 18.8284 15.827 18.6284C16.1734 18.4284 16.6164 18.5471 16.8165 18.8935L18.2651 21.4028C18.4651 21.7493 18.3465 22.1922 18 22.3922Z" fill="#E0EBF0"/>
<path d="M5.3715 8.17302C5.17148 8.51947 4.72847 8.63816 4.38202 8.43814L1.8728 6.98947C1.52634 6.78945 1.40766 6.34644 1.60767 5.99998C1.80769 5.65353 2.2507 5.53484 2.59716 5.73486L5.10638 7.18353C5.45283 7.38355 5.57152 7.82656 5.3715 8.17302Z" fill="#8EB1BF"/>
<path d="M22.3923 18C22.1923 18.3465 21.7493 18.4652 21.4028 18.2652L18.8936 16.8165C18.5472 16.6165 18.4285 16.1735 18.6285 15.827C18.8285 15.4806 19.2715 15.3619 19.618 15.5619L22.1272 17.0106C22.4736 17.2106 22.5923 17.6536 22.3923 18Z" fill="#E0EBF0"/>
<path d="M4.34606 12C4.34606 12.4 4.02178 12.7244 3.6217 12.7244H0.724359C0.324281 12.7244 0 12.4 0 12C0 11.6 0.324281 11.2756 0.724359 11.2756H3.62175C4.02178 11.2756 4.34606 11.6 4.34606 12Z" fill="#8EB1BF"/>
<path d="M24 12C24 12.4 23.6757 12.7244 23.2756 12.7244H20.3783C19.9782 12.7244 19.6539 12.4001 19.6539 12C19.6539 11.6 19.9782 11.2756 20.3783 11.2756H23.2756C23.6757 11.2756 24 11.6 24 12Z" fill="#E0EBF0"/>
<path d="M5.3715 15.827C5.57152 16.1735 5.45283 16.6165 5.10638 16.8165L2.59716 18.2652C2.2507 18.4652 1.80769 18.3465 1.60767 18C1.40766 17.6536 1.52634 17.2106 1.8728 17.0106L4.38202 15.5619C4.72847 15.3619 5.17148 15.4806 5.3715 15.827Z" fill="#CFDBE4"/>
<path d="M8.17303 18.6285C8.51949 18.8286 8.63817 19.2716 8.43816 19.618L6.98949 22.1272C6.78947 22.4737 6.34645 22.5924 6 22.3924C5.65355 22.1923 5.53486 21.7493 5.73488 21.4029L7.18355 18.8937C7.38356 18.5472 7.82658 18.4285 8.17303 18.6285Z" fill="#CFDBE4"/>
<path d="M18 1.60765C18.3465 1.80767 18.4651 2.25068 18.2651 2.59714L16.8165 5.10635C16.6164 5.45281 16.1734 5.5715 15.827 5.37148C15.4805 5.17146 15.3618 4.72845 15.5618 4.382L17.0105 1.87278C17.2105 1.52637 17.6535 1.40764 18 1.60765Z" fill="#658B96"/>
</svg>
