<svg width="12" height="14" viewBox="0 0 12 14" fill="none" xmlns="http://www.w3.org/2000/svg">
<path d="M6.32647 0.0770264C6.34188 0.459938 6.35722 0.842849 6.37267 1.22576C6.07454 1.22576 5.92553 1.22576 5.62744 1.22576C5.64281 0.842849 5.65823 0.459938 5.67356 0.0770264C5.06904 0.0770264 4.46456 0.0770264 3.86003 0.0770264C2.64478 4.69232 1.42933 9.30749 0.214111 13.9229C1.84852 13.9229 3.48293 13.9229 5.1173 13.9229C5.13267 13.5399 5.14805 13.157 5.16346 12.7741C5.72119 12.7741 6.27892 12.7741 6.83661 12.7741C6.8521 13.157 6.86743 13.5399 6.88277 13.9229C8.51718 13.9229 10.1515 13.9229 11.786 13.9229C10.5707 9.30757 9.35529 4.69236 8.14004 0.0770264C7.53555 0.0770264 6.93103 0.0770264 6.32647 0.0770264ZM5.55823 2.94574C5.85273 2.94574 6.14722 2.94558 6.44176 2.94566C6.48452 4.01041 6.52725 5.07523 6.57009 6.13994C6.19003 6.13994 5.81 6.13994 5.4299 6.13994C5.47282 5.07527 5.51551 4.01049 5.55823 2.94574ZM5.23251 11.0541C5.27524 9.98941 5.31808 8.92466 5.36085 7.85995C5.78696 7.85995 6.21307 7.85988 6.63914 7.85988C6.68195 8.92458 6.72475 9.98941 6.76748 11.0541C6.25588 11.0541 5.74415 11.0541 5.23251 11.0541Z" fill="#717171"/>
</svg>
