<svg width="12" height="18" viewBox="0 0 12 18" fill="none" xmlns="http://www.w3.org/2000/svg">
<path fill-rule="evenodd" clip-rule="evenodd" d="M6.9375 4.6875V6.75C6.9375 7.0605 6.6855 7.3125 6.375 7.3125C6.0645 7.3125 5.8125 7.0605 5.8125 6.75V4.6875H5.25C4.902 4.6875 4.56825 4.8255 4.32225 5.07225C4.0755 5.31825 3.9375 5.652 3.9375 6V13.875C3.9375 14.5995 4.52475 15.1875 5.25 15.1875H6C6.1035 15.1875 6.1875 15.2715 6.1875 15.375V15.75C6.1875 16.098 6.3255 16.4317 6.57225 16.6777C6.81825 16.9245 7.152 17.0625 7.5 17.0625H10.5C10.848 17.0625 11.1817 16.9245 11.4277 16.6777C11.6745 16.4317 11.8125 16.098 11.8125 15.75C11.8125 15.0968 11.8125 14.1532 11.8125 13.5C11.8125 13.152 11.6745 12.8183 11.4277 12.5723C11.1817 12.3255 10.848 12.1875 10.5 12.1875H8.25C8.2005 12.1875 8.1525 12.168 8.11725 12.1328C8.082 12.0975 8.0625 12.0495 8.0625 12V9C8.0625 8.9505 8.082 8.9025 8.11725 8.86725C8.1525 8.832 8.2005 8.8125 8.25 8.8125H9.75C10.4753 8.8125 11.0625 8.22525 11.0625 7.5V6C11.0625 5.27475 10.4745 4.6875 9.75 4.6875H6.9375Z" fill="#717171"/>
<path d="M6.375 4.3125C7.30698 4.3125 8.0625 3.55698 8.0625 2.625C8.0625 1.69302 7.30698 0.9375 6.375 0.9375C5.44302 0.9375 4.6875 1.69302 4.6875 2.625C4.6875 3.55698 5.44302 4.3125 6.375 4.3125Z" fill="#717171"/>
<path fill-rule="evenodd" clip-rule="evenodd" d="M2.25 6.1875H0.75C0.4395 6.1875 0.1875 6.4395 0.1875 6.75C0.1875 7.0605 0.4395 7.3125 0.75 7.3125H2.25C2.5605 7.3125 2.8125 7.0605 2.8125 6.75C2.8125 6.4395 2.5605 6.1875 2.25 6.1875Z" fill="#717171"/>
<path fill-rule="evenodd" clip-rule="evenodd" d="M2.25 8.8125H0.75C0.4395 8.8125 0.1875 9.0645 0.1875 9.375C0.1875 9.6855 0.4395 9.9375 0.75 9.9375H2.25C2.5605 9.9375 2.8125 9.6855 2.8125 9.375C2.8125 9.0645 2.5605 8.8125 2.25 8.8125Z" fill="#717171"/>
<path fill-rule="evenodd" clip-rule="evenodd" d="M2.25 11.4375H0.75C0.4395 11.4375 0.1875 11.6895 0.1875 12C0.1875 12.3105 0.4395 12.5625 0.75 12.5625H2.25C2.5605 12.5625 2.8125 12.3105 2.8125 12C2.8125 11.6895 2.5605 11.4375 2.25 11.4375Z" fill="#717171"/>
<path fill-rule="evenodd" clip-rule="evenodd" d="M2.25 14.0625H0.75C0.4395 14.0625 0.1875 14.3145 0.1875 14.625C0.1875 14.9355 0.4395 15.1875 0.75 15.1875H2.25C2.5605 15.1875 2.8125 14.9355 2.8125 14.625C2.8125 14.3145 2.5605 14.0625 2.25 14.0625Z" fill="#717171"/>
<path fill-rule="evenodd" clip-rule="evenodd" d="M5.8125 4.6875H6.9375V3.75C6.9375 3.4395 6.6855 3.1875 6.375 3.1875C6.0645 3.1875 5.8125 3.4395 5.8125 3.75V4.6875Z" fill="#717171"/>
</svg>
