<svg width="173" height="58" viewBox="0 0 173 58" fill="none" xmlns="http://www.w3.org/2000/svg">
<g clip-path="url(#clip0_95_6273)">
<path d="M12.2603 56.7813C11.8211 56.7813 11.3925 56.7756 10.9567 56.7657C10.0539 56.7539 9.1533 56.6748 8.26216 56.529C7.43121 56.3847 6.62626 56.1164 5.87384 55.7329C5.1283 55.3527 4.4483 54.854 3.85991 54.2562C3.26295 53.6654 2.76595 52.9801 2.3886 52.2276C2.00713 51.4702 1.74314 50.6583 1.6058 49.8203C1.45754 48.9199 1.37735 48.0094 1.36592 47.0967C1.35669 46.7903 1.34473 45.7704 1.34473 45.7704V12.2139C1.34473 12.2139 1.35741 11.2096 1.36592 10.9144C1.3769 10.0032 1.45666 9.09416 1.60451 8.19514C1.74211 7.35482 2.00633 6.54063 2.38802 5.78074C2.76392 5.02872 3.2581 4.34294 3.8514 3.74998C4.44408 3.1514 5.12628 2.6502 5.87312 2.26468C6.62383 1.88249 7.42727 1.61616 8.25654 1.4746C9.15062 1.32734 10.0544 1.24775 10.9603 1.23652L12.2611 1.21851H160.414L161.73 1.23695C162.628 1.2477 163.523 1.32666 164.409 1.47315C165.247 1.61652 166.059 1.88476 166.818 2.26904C168.314 3.04595 169.531 4.27511 170.299 5.78423C170.675 6.53891 170.935 7.3465 171.071 8.17959C171.221 9.08598 171.304 10.0022 171.322 10.9208C171.326 11.3322 171.326 11.7741 171.326 12.2139C171.337 12.7587 171.337 13.2771 171.337 13.7999V44.2012C171.337 44.7289 171.337 45.2439 171.326 45.763C171.326 46.2354 171.326 46.6681 171.32 47.1135C171.303 48.0159 171.221 48.9157 171.074 49.8059C170.939 50.65 170.677 51.4682 170.295 52.2318C169.915 52.9762 169.421 53.6555 168.831 54.2447C168.242 54.8458 167.561 55.3473 166.814 55.73C166.057 56.1164 165.246 56.3856 164.409 56.5287C163.518 56.6753 162.617 56.7545 161.714 56.7656C161.283 56.7757 160.852 56.7809 160.421 56.7811L158.858 56.784L12.2603 56.7813Z" fill="white"/>
<path d="M36.1218 28.8393C36.1379 27.5785 36.4703 26.3423 37.0879 25.2457C37.7056 24.1491 38.5885 23.2278 39.6546 22.5674C38.9774 21.5928 38.084 20.7908 37.0453 20.225C36.0067 19.6592 34.8514 19.3452 33.6713 19.308C31.154 19.0417 28.7134 20.826 27.4306 20.826C26.123 20.826 24.1479 19.3344 22.0209 19.3786C20.6452 19.4234 19.3045 19.8265 18.1294 20.5486C16.9543 21.2708 15.9848 22.2873 15.3155 23.4992C12.4162 28.5572 14.5789 35.9907 17.3561 40.0794C18.7456 42.0814 20.3695 44.3177 22.4945 44.2384C24.5739 44.1515 25.3506 42.9023 27.8604 42.9023C30.3472 42.9023 31.0758 44.2384 33.2439 44.188C35.4752 44.1515 36.881 42.1771 38.2217 40.1561C39.2201 38.7295 39.9884 37.1529 40.4981 35.4845C39.2018 34.932 38.0955 34.0073 37.3173 32.8256C36.5391 31.6439 36.1233 30.2575 36.1218 28.8393ZM32.0267 16.6192C33.2433 15.1475 33.8427 13.256 33.6975 11.3462C31.8389 11.5429 30.122 12.4381 28.889 13.8533C28.2862 14.5446 27.8244 15.3489 27.5302 16.2201C27.236 17.0914 27.1151 18.0125 27.1744 18.9309C28.1041 18.9405 29.0238 18.7375 29.8644 18.337C30.7049 17.9366 31.4443 17.3492 32.0268 16.619L32.0267 16.6192ZM61.069 39.3712H54.2453L52.6066 44.2468H49.7162L56.1796 26.2082H59.1825L65.6458 44.2468H62.7064L61.069 39.3712ZM54.952 37.1213H60.3609L57.6945 29.2086H57.6198L54.952 37.1213ZM79.6044 37.6718C79.6044 41.7586 77.4335 44.3844 74.1576 44.3844C73.3277 44.4281 72.5024 44.2355 71.7761 43.8286C71.0498 43.4216 70.452 42.8168 70.051 42.0834H69.989V48.5975H67.3097V31.0952H69.9031V33.2827H69.9524C70.3718 32.5529 70.9798 31.9512 71.7116 31.5418C72.4434 31.1324 73.2716 30.9305 74.1082 30.9577C77.4208 30.9577 79.6044 33.5962 79.6044 37.6717V37.6718ZM76.8506 37.6718C76.8506 35.0092 75.4851 33.2586 73.4016 33.2586C71.3545 33.2586 69.9777 35.0459 69.9777 37.6717C69.9777 40.3217 71.3545 42.0964 73.4016 42.0964C75.4851 42.0964 76.8506 40.3586 76.8506 37.6717V37.6718ZM93.9705 37.6718C93.9705 41.7586 91.799 44.3844 88.5229 44.3844C87.6931 44.4281 86.8678 44.2355 86.1415 43.8286C85.4152 43.4216 84.8174 42.8168 84.4164 42.0834H84.3544V48.5975H81.6753V31.0952H84.2685V33.2827H84.3178C84.7372 32.5529 85.3452 31.9512 86.077 31.5418C86.8088 31.1324 87.637 30.9305 88.4736 30.9577C91.7863 30.9577 93.9705 33.5962 93.9705 37.6717V37.6718ZM91.2162 37.6718C91.2162 35.0092 89.8505 33.2586 87.767 33.2586C85.7199 33.2586 84.3431 35.0459 84.3431 37.6717C84.3431 40.3217 85.7199 42.0964 87.767 42.0964C89.8505 42.0964 91.2162 40.3586 91.2162 37.6717V37.6718ZM103.464 39.2209C103.662 41.0097 105.387 42.1842 107.743 42.1842C110.001 42.1842 111.626 41.0097 111.626 39.3967C111.626 37.9965 110.646 37.1582 108.326 36.5837L106.006 36.0205C102.719 35.2204 101.193 33.6713 101.193 31.1576C101.193 28.0452 103.884 25.9075 107.705 25.9075C111.49 25.9075 114.083 28.0452 114.17 31.1576H111.466C111.304 29.3575 109.827 28.2708 107.669 28.2708C105.51 28.2708 104.034 29.3703 104.034 30.9703C104.034 32.2457 104.977 32.9961 107.284 33.5705L109.257 34.0586C112.93 34.9338 114.454 36.4205 114.454 39.0589C114.454 42.4338 111.788 44.5475 107.545 44.5475C103.575 44.5475 100.894 42.4833 100.721 39.2208L103.464 39.2209ZM120.239 27.983V31.0952H122.721V33.2331H120.239V40.4834C120.239 41.6097 120.736 42.1346 121.827 42.1346C122.122 42.1294 122.416 42.1085 122.708 42.0721V44.1973C122.218 44.2896 121.719 44.3313 121.22 44.3219C118.578 44.3219 117.547 43.3219 117.547 40.7713V33.2331H115.65V31.0952H117.547V27.983H120.239ZM124.157 37.6718C124.157 33.5338 126.576 30.9336 130.347 30.9336C134.132 30.9336 136.539 33.5338 136.539 37.6718C136.539 41.8211 134.144 44.4099 130.347 44.4099C126.552 44.4099 124.157 41.8211 124.157 37.6718ZM133.809 37.6718C133.809 34.8333 132.518 33.1578 130.347 33.1578C128.177 33.1578 126.886 34.8459 126.886 37.6718C126.886 40.5217 128.177 42.1842 130.347 42.1842C132.518 42.1842 133.809 40.5217 133.809 37.6718ZM138.748 31.0952H141.303V33.3337H141.365C141.538 32.6346 141.944 32.0168 142.516 31.5841C143.088 31.1514 143.79 30.9302 144.505 30.9577C144.813 30.9566 145.121 30.9904 145.422 31.0584V33.5834C145.033 33.4634 144.626 33.4083 144.219 33.4203C143.829 33.4044 143.441 33.4735 143.081 33.623C142.721 33.7724 142.397 33.9987 142.132 34.2861C141.867 34.5736 141.666 34.9155 141.545 35.2883C141.423 35.6612 141.383 36.0561 141.427 36.4461V44.2468H138.748V31.0952ZM157.775 40.384C157.414 42.7715 155.107 44.4099 152.155 44.4099C148.358 44.4099 146.001 41.8467 146.001 37.7341C146.001 33.609 148.37 30.9336 152.042 30.9336C155.653 30.9336 157.924 33.4331 157.924 37.4207V38.3456H148.705V38.5087C148.663 38.9927 148.723 39.4803 148.882 39.9391C149.041 40.3979 149.294 40.8174 149.627 41.1698C149.959 41.5221 150.361 41.7992 150.808 41.9827C151.254 42.1662 151.735 42.2518 152.217 42.2339C152.85 42.2937 153.485 42.1459 154.028 41.8126C154.571 41.4793 154.993 40.9783 155.231 40.384H157.775ZM148.718 36.4589H155.243C155.267 36.0237 155.202 35.5882 155.051 35.1797C154.9 34.7712 154.667 34.3985 154.366 34.0851C154.066 33.7717 153.704 33.5242 153.304 33.3583C152.904 33.1924 152.474 33.1116 152.042 33.1209C151.606 33.1183 151.173 33.2028 150.769 33.3694C150.366 33.5361 149.999 33.7817 149.69 34.092C149.381 34.4024 149.136 34.7713 148.969 35.1775C148.802 35.5838 148.717 36.0193 148.718 36.4589ZM54.6169 12.6305C55.1786 12.5898 55.7422 12.6753 56.2672 12.8808C56.7921 13.0862 57.2652 13.4065 57.6524 13.8185C58.0396 14.2305 58.3312 14.724 58.5062 15.2633C58.6812 15.8027 58.7352 16.3744 58.6644 16.9373C58.6644 19.7063 57.1791 21.2981 54.6169 21.2981H51.5098V12.6303L54.6169 12.6305ZM52.8459 20.0722H54.4677C54.8691 20.0964 55.2707 20.03 55.6434 19.8781C56.0161 19.7261 56.3505 19.4923 56.6222 19.1937C56.8939 18.8951 57.0961 18.5392 57.2141 18.1519C57.3322 17.7646 57.363 17.3557 57.3044 16.9549C57.3587 16.5557 57.3248 16.1493 57.205 15.7648C57.0852 15.3804 56.8824 15.0274 56.6113 14.7312C56.3402 14.4349 56.0075 14.2028 55.6369 14.0514C55.2663 13.8999 54.867 13.833 54.4677 13.8553H52.8459V20.0722ZM60.1736 18.0246C60.1328 17.5947 60.1816 17.161 60.3169 16.7513C60.4521 16.3416 60.6709 15.9648 60.9591 15.6453C61.2474 15.3257 61.5987 15.0704 61.9906 14.8957C62.3825 14.721 62.8063 14.6307 63.2349 14.6307C63.6634 14.6307 64.0873 14.721 64.4792 14.8957C64.8711 15.0704 65.2224 15.3257 65.5106 15.6453C65.7989 15.9648 66.0176 16.3416 66.1529 16.7513C66.2882 17.161 66.337 17.5947 66.2962 18.0246C66.3379 18.455 66.2897 18.8893 66.1549 19.2998C66.02 19.7103 65.8014 20.0879 65.5131 20.4081C65.2247 20.7284 64.8731 20.9843 64.4808 21.1595C64.0884 21.3346 63.664 21.4251 63.2349 21.4251C62.8058 21.4251 62.3814 21.3346 61.989 21.1595C61.5967 20.9843 61.245 20.7284 60.9567 20.4081C60.6684 20.0879 60.4498 19.7103 60.3149 19.2998C60.18 18.8893 60.1319 18.455 60.1736 18.0246ZM64.9785 18.0246C64.9785 16.6067 64.3464 15.7775 63.237 15.7775C62.1234 15.7775 61.497 16.6067 61.497 18.0246C61.497 19.4538 62.1235 20.2766 63.237 20.2766C64.3464 20.2766 64.9785 19.4482 64.9785 18.0246ZM74.4349 21.2979H73.1058L71.7642 16.4805H71.6628L70.3269 21.2979H69.0106L67.2212 14.7568H68.5206L69.6835 19.748H69.7792L71.1139 14.7568H72.3429L73.6775 19.748H73.7788L74.936 14.7568H76.2172L74.4349 21.2979ZM77.7221 14.7569H78.9554V15.796H79.0511C79.2135 15.4228 79.4874 15.1099 79.8347 14.901C80.1819 14.6921 80.5852 14.5975 80.9883 14.6306C81.3042 14.6066 81.6214 14.6546 81.9163 14.771C82.2113 14.8873 82.4764 15.0691 82.6922 15.3027C82.908 15.5363 83.0689 15.8159 83.1628 16.1207C83.2569 16.4255 83.2816 16.7477 83.2352 17.0634V21.2978H81.9541V17.3876C81.9541 16.3365 81.5007 15.8137 80.5533 15.8137C80.3388 15.8037 80.1248 15.8405 79.9257 15.9216C79.7267 16.0027 79.5475 16.1262 79.4002 16.2836C79.253 16.441 79.1413 16.6287 79.0728 16.8337C79.0043 17.0387 78.9806 17.2562 79.0033 17.4713V21.2979H77.7221V14.7569ZM85.2766 12.2034H86.5576V21.2979H85.2766V12.2034ZM88.3386 18.0246C88.2977 17.5947 88.3465 17.1609 88.4818 16.7511C88.6171 16.3413 88.8359 15.9645 89.1242 15.6449C89.4125 15.3254 89.7639 15.07 90.1558 14.8953C90.5478 14.7205 90.9716 14.6302 91.4003 14.6302C91.8289 14.6302 92.2527 14.7205 92.6447 14.8953C93.0367 15.07 93.388 15.3254 93.6763 15.6449C93.9646 15.9645 94.1834 16.3413 94.3187 16.7511C94.454 17.1609 94.5028 17.5947 94.462 18.0246C94.5034 18.4549 94.4551 18.8892 94.3201 19.2995C94.1852 19.7099 93.9665 20.0873 93.6781 20.4074C93.3898 20.7275 93.0382 20.9834 92.6459 21.1584C92.2536 21.3335 91.8293 21.4239 91.4003 21.4239C90.9712 21.4239 90.5469 21.3335 90.1546 21.1584C89.7623 20.9834 89.4107 20.7275 89.1224 20.4074C88.834 20.0873 88.6153 19.7099 88.4804 19.2995C88.3454 18.8892 88.2971 18.4549 88.3386 18.0246ZM93.1434 18.0246C93.1434 16.6067 92.5113 15.7775 91.402 15.7775C90.2883 15.7775 89.662 16.6067 89.662 18.0246C89.662 19.4538 90.2885 20.2766 91.402 20.2766C92.5113 20.2766 93.1434 19.4482 93.1434 18.0246ZM95.8106 19.4482C95.8106 18.2707 96.6806 17.5919 98.225 17.4954L99.9833 17.3933V16.8287C99.9833 16.1378 99.5301 15.7478 98.6544 15.7478C97.9393 15.7478 97.4436 16.0123 97.3015 16.4748H96.0611C96.192 15.3512 97.2409 14.6307 98.7136 14.6307C100.341 14.6307 101.259 15.4471 101.259 16.8287V21.2979H100.026V20.3787H99.9242C99.7185 20.7084 99.4296 20.9772 99.087 21.1577C98.7445 21.3381 98.3606 21.4237 97.9744 21.4057C97.7019 21.4343 97.4265 21.405 97.1659 21.3197C96.9053 21.2344 96.6654 21.0951 96.4615 20.9107C96.2576 20.7262 96.0944 20.5008 95.9823 20.2489C95.8702 19.997 95.8117 19.7242 95.8106 19.4482ZM99.9833 18.8892V18.3423L98.3981 18.4444C97.5042 18.5047 97.0987 18.8112 97.0987 19.3877C97.0987 19.9765 97.6055 20.3192 98.3024 20.3192C98.5066 20.34 98.7129 20.3192 98.909 20.2581C99.105 20.1969 99.2869 20.0967 99.4437 19.9633C99.6006 19.8298 99.7291 19.666 99.8219 19.4815C99.9146 19.297 99.9695 19.0955 99.9833 18.8892ZM102.943 18.0246C102.943 15.9577 103.997 14.6484 105.637 14.6484C106.043 14.6296 106.446 14.7275 106.798 14.9307C107.151 15.1339 107.438 15.434 107.628 15.796H107.724V12.2032H109.005V21.2978H107.777V20.2642H107.676C107.472 20.6238 107.174 20.9202 106.814 21.1213C106.455 21.3225 106.048 21.4208 105.637 21.4056C103.986 21.4056 102.943 20.0962 102.943 18.0245V18.0246ZM104.266 18.0246C104.266 19.4118 104.915 20.2468 106 20.2468C107.08 20.2468 107.748 19.3999 107.748 18.0301C107.748 16.667 107.073 15.8081 106 15.8081C104.922 15.8081 104.266 16.6485 104.266 18.0246ZM114.305 18.0246C114.264 17.5947 114.313 17.161 114.448 16.7513C114.584 16.3416 114.802 15.9648 115.091 15.6453C115.379 15.3257 115.73 15.0704 116.122 14.8957C116.514 14.721 116.938 14.6307 117.366 14.6307C117.795 14.6307 118.219 14.721 118.611 14.8957C119.003 15.0704 119.354 15.3257 119.642 15.6453C119.93 15.9648 120.149 16.3416 120.284 16.7513C120.42 17.161 120.469 17.5947 120.428 18.0246C120.469 18.455 120.421 18.8893 120.286 19.2998C120.152 19.7103 119.933 20.0879 119.645 20.4081C119.356 20.7284 119.005 20.9843 118.612 21.1595C118.22 21.3346 117.796 21.4251 117.366 21.4251C116.937 21.4251 116.513 21.3346 116.121 21.1595C115.728 20.9843 115.377 20.7284 115.088 20.4081C114.8 20.0879 114.581 19.7103 114.446 19.2998C114.312 18.8893 114.263 18.455 114.305 18.0246ZM119.11 18.0246C119.11 16.6067 118.478 15.7775 117.369 15.7775C116.255 15.7775 115.629 16.6067 115.629 18.0246C115.629 19.4538 116.255 20.2766 117.369 20.2766C118.478 20.2766 119.11 19.4482 119.11 18.0246ZM122.147 14.7569H123.38V15.796H123.476C123.638 15.4228 123.912 15.1099 124.259 14.901C124.607 14.6921 125.01 14.5975 125.413 14.6306C125.729 14.6066 126.046 14.6546 126.341 14.771C126.636 14.8873 126.901 15.0691 127.117 15.3027C127.333 15.5363 127.493 15.8159 127.587 16.1207C127.681 16.4255 127.706 16.7477 127.66 17.0634V21.2978H126.379V17.3876C126.379 16.3365 125.925 15.8137 124.978 15.8137C124.763 15.8037 124.549 15.8405 124.35 15.9216C124.151 16.0027 123.972 16.1262 123.825 16.2836C123.678 16.441 123.566 16.6287 123.497 16.8337C123.429 17.0387 123.405 17.2562 123.428 17.4713V21.2979H122.147L122.147 14.7569ZM134.899 13.1284V14.7867H136.305V15.874H134.899V19.2374C134.899 19.9226 135.179 20.2227 135.817 20.2227C135.98 20.2221 136.143 20.2121 136.305 20.1928V21.2681C136.075 21.3096 135.842 21.3317 135.608 21.3341C134.184 21.3341 133.616 20.829 133.616 19.568V15.874H132.586V14.7866H133.616V13.1286L134.899 13.1284ZM138.055 12.2034H139.325V15.8081H139.426C139.597 15.4313 139.878 15.1167 140.232 14.907C140.587 14.6973 140.996 14.6027 141.406 14.6362C141.72 14.619 142.034 14.6719 142.326 14.791C142.617 14.9102 142.879 15.0928 143.093 15.3257C143.306 15.5586 143.466 15.8362 143.561 16.1385C143.656 16.4409 143.683 16.7606 143.641 17.0749V21.2979H142.359V17.3933C142.359 16.3484 141.876 15.8194 140.971 15.8194C140.751 15.8012 140.529 15.8317 140.322 15.9088C140.115 15.9859 139.927 16.1076 139.771 16.2656C139.615 16.4235 139.496 16.6138 139.421 16.8232C139.346 17.0326 139.317 17.2559 139.336 17.4777V21.2979H138.055V12.2034ZM151.111 19.5317C150.937 20.1295 150.56 20.6467 150.046 20.9926C149.532 21.3386 148.913 21.4913 148.299 21.4242C147.871 21.4355 147.446 21.353 147.053 21.1823C146.66 21.0116 146.309 20.7568 146.024 20.4355C145.738 20.1143 145.526 19.7344 145.401 19.3221C145.276 18.9098 145.241 18.475 145.3 18.048C145.243 17.6196 145.278 17.1839 145.403 16.7704C145.527 16.3568 145.739 15.9751 146.022 15.6511C146.306 15.327 146.656 15.0682 147.048 14.8921C147.439 14.7161 147.864 14.6269 148.293 14.6306C150.099 14.6306 151.189 15.874 151.189 17.928V18.3785H146.605V18.4508C146.585 18.6908 146.615 18.9324 146.693 19.1601C146.771 19.3878 146.895 19.5966 147.058 19.773C147.221 19.9494 147.418 20.0897 147.638 20.1847C147.858 20.2797 148.095 20.3273 148.334 20.3247C148.64 20.3618 148.951 20.3062 149.226 20.165C149.501 20.0237 149.728 19.8033 149.878 19.5317H151.111ZM146.605 17.4238H149.884C149.9 17.2043 149.87 16.9838 149.797 16.7765C149.723 16.5691 149.608 16.3796 149.457 16.22C149.307 16.0604 149.125 15.9344 148.923 15.8498C148.721 15.7653 148.504 15.7243 148.286 15.7293C148.064 15.7265 147.844 15.7684 147.639 15.8526C147.434 15.9368 147.247 16.0615 147.091 16.2194C146.934 16.3773 146.81 16.5652 146.727 16.7721C146.644 16.9789 146.602 17.2005 146.605 17.4238Z" fill="black"/>
</g>
<defs>
<clipPath id="clip0_95_6273">
<rect width="172.682" height="58" fill="white"/>
</clipPath>
</defs>
</svg>
