<svg width="196" height="58" viewBox="0 0 196 58" fill="none" xmlns="http://www.w3.org/2000/svg">
<path d="M188.196 58H7.2383C3.25728 58 0 54.7375 0 50.75V7.25003C0 3.2625 3.25722 0 7.2383 0H188.196C192.177 0 195.434 3.2625 195.434 7.25003V50.75C195.434 54.7375 192.177 58 188.196 58" fill="white"/>
<path d="M68.6457 14.8529C68.6457 16.0678 68.2865 17.0352 67.5672 17.7568C66.7501 18.6149 65.6852 19.0443 64.376 19.0443C63.1224 19.0443 62.0564 18.6093 61.1799 17.7381C60.3018 16.8675 59.8635 15.788 59.8635 14.5C59.8635 13.2114 60.3018 12.1325 61.1799 11.2612C62.0564 10.3907 63.1224 9.95508 64.376 9.95508C64.9981 9.95508 65.5937 10.0769 66.1591 10.3199C66.7246 10.5635 67.1781 10.8869 67.5175 11.2918L66.754 12.057C66.1789 11.3689 65.3872 11.025 64.376 11.025C63.4618 11.025 62.6712 11.3468 62.0039 11.9908C61.3365 12.6354 61.003 13.4714 61.003 14.5C61.003 15.5286 61.3365 16.3645 62.0039 17.0092C62.6712 17.6532 63.4617 17.9749 64.376 17.9749C65.346 17.9749 66.1546 17.6514 66.8021 17.0036C67.2223 16.5815 67.4653 15.9948 67.5304 15.2414H64.376V14.1964H68.5851C68.6257 14.4236 68.6456 14.6417 68.6456 14.8529" fill="black"/>
<path d="M68.6458 14.8529H68.501C68.4999 16.04 68.1537 16.9621 67.4649 17.6543L67.4634 17.6555L67.4627 17.6566C66.6716 18.4852 65.6547 18.8975 64.3761 18.8993C63.1559 18.8975 62.1346 18.4807 61.2818 17.6356C60.4308 16.7888 60.01 15.7551 60.0084 14.5C60.01 13.2443 60.4308 12.2111 61.2818 11.3649C62.1346 10.5193 63.1559 10.1018 64.3761 10.1001C64.9796 10.1001 65.5541 10.218 66.1021 10.453C66.6506 10.6898 67.0839 11.0001 67.4067 11.3854L67.5175 11.2918L67.4152 11.1893L66.6517 11.955L66.754 12.057L66.8655 11.9642C66.2637 11.242 65.419 10.8779 64.3762 10.88C63.4279 10.8789 62.5938 11.2182 61.9038 11.8867C61.2072 12.5572 60.8572 13.4402 60.8584 14.5C60.8572 15.5598 61.2072 16.4427 61.9038 17.1133C62.5938 17.7817 63.4279 18.1211 64.3761 18.1199C65.3782 18.1217 66.2322 17.7812 66.9045 17.106C67.3535 16.6551 67.6081 16.0305 67.6748 15.2538L67.6883 15.0964H64.5209V14.3413H68.5852V14.1964L68.4426 14.2218C68.4823 14.4417 68.501 14.6506 68.501 14.8529H68.7905C68.7905 14.6325 68.7701 14.406 68.7277 14.1704L68.7062 14.0514H64.2314V15.3864H67.5305V15.2414L67.3864 15.2289C67.3225 15.9585 67.0906 16.5079 66.6998 16.9011C66.0778 17.5218 65.3144 17.8281 64.3762 17.8299C63.4958 17.8287 62.7488 17.5251 62.1047 16.9049C61.4668 16.287 61.1495 15.498 61.1479 14.5C61.1495 13.5019 61.4668 12.713 62.1047 12.095C62.7488 11.4748 63.4957 11.1712 64.3762 11.17C65.3551 11.1724 66.0943 11.4963 66.6434 12.1505L66.7452 12.2717L67.62 11.3944L67.7138 11.3004L67.6284 11.1989C67.2727 10.7742 66.7988 10.4371 66.2164 10.1869C65.6328 9.93583 65.017 9.81006 64.3762 9.81006C63.0892 9.80895 61.9786 10.2621 61.0777 11.1587C60.1735 12.0537 59.7178 13.1786 59.719 14.5C59.7178 15.8208 60.1735 16.9463 61.0783 17.8418C61.9786 18.7379 63.0892 19.1904 64.3762 19.1893C65.7165 19.1904 66.8283 18.7446 67.672 17.857L67.5673 17.7568L67.6696 17.8594C68.4195 17.1088 68.7915 16.095 68.7906 14.8529H68.6458M75.3185 11.2188H71.3629V13.9773H74.9301V15.0227H71.3629V17.7812H75.3185V18.85H70.2478V10.15H75.3185V11.2188Z" fill="black"/>
<path d="M75.3183 11.2187V11.0737H71.2179V14.1222H74.7851V14.8772L71.2179 14.8776V17.9261H75.1735V18.7049H70.3923V10.2949H75.1735V11.2187H75.3183V11.0737V11.2187H75.463V10.0049H70.1028V18.9949H75.463V17.6361H71.5074V15.1676H75.0746V13.8322H71.5074V11.3637H75.463V11.2187H75.3183ZM80.0248 18.8499H78.908V11.2186H76.482V10.1498H82.4509V11.2186H80.0248V18.8498" fill="black"/>
<path d="M80.025 18.8499V18.7049H79.0529V11.0737H76.6269V10.2949H82.3062V11.0737H79.8802V18.8499H80.025V18.7049V18.8499H80.1698V11.3637H82.5957V10.0049H76.3374V11.3636H78.7634V18.9948H80.1698V18.8498H80.025M86.7696 18.8499V10.1498H87.8854V18.8498H86.7696" fill="black"/>
<path d="M86.7697 18.8499H86.9145V10.2949H87.7406V18.7049H86.7697V18.8499H86.9145H86.7697V18.9949H88.0302V10.0049H86.625V18.9949H86.7697V18.8499M92.8363 18.8499H91.7195V11.2186H89.2936V10.1498H95.2623V11.2186H92.8363V18.8498" fill="black"/>
<path d="M92.8361 18.85V18.705H91.864V11.0738H89.4382V10.2951H95.1173V11.0738H92.6914V18.85H92.8361V18.705V18.85H92.9809V11.3638H95.4069V10.005H89.1487V11.3637H91.5745V18.9949H92.9809V18.8499H92.8361M101.017 16.9974C101.659 17.6492 102.446 17.9749 103.376 17.9749C104.307 17.9749 105.094 17.6492 105.736 16.9974C106.379 16.3454 106.702 15.5121 106.702 14.5C106.702 13.4879 106.379 12.6546 105.736 12.0027C105.094 11.3507 104.307 11.025 103.376 11.025C102.446 11.025 101.659 11.3507 101.017 12.0027C100.375 12.6546 100.052 13.4879 100.052 14.5C100.052 15.5121 100.375 16.3454 101.017 16.9974ZM106.561 17.7257C105.707 18.6052 104.645 19.0443 103.376 19.0443C102.106 19.0443 101.045 18.6052 100.193 17.7257C99.3382 16.8471 98.913 15.7716 98.913 14.5C98.913 13.2283 99.3382 12.1527 100.193 11.2743C101.045 10.3946 102.106 9.95508 103.376 9.95508C104.639 9.95508 105.698 10.3969 106.556 11.28C107.412 12.163 107.841 13.2363 107.841 14.5C107.841 15.7716 107.413 16.8471 106.561 17.7257Z" fill="black"/>
<path d="M101.017 16.9973L100.914 17.0993C101.581 17.7773 102.412 18.1217 103.376 18.1199C104.34 18.1217 105.173 17.7773 105.839 17.0993C106.51 16.4206 106.847 15.5427 106.846 14.5C106.847 13.4573 106.51 12.5793 105.839 11.9007C105.173 11.2227 104.34 10.8783 103.376 10.88C102.412 10.8783 101.581 11.2227 100.914 11.9007C100.244 12.5793 99.906 13.4573 99.9077 14.5C99.906 15.5426 100.244 16.4206 100.914 17.0993L101.017 16.9973L101.12 16.8954C100.506 16.2694 100.198 15.4821 100.197 14.5C100.198 13.5179 100.506 12.7306 101.12 12.1046C101.739 11.4788 102.48 11.1718 103.376 11.1701C104.273 11.1718 105.015 11.4788 105.633 12.1046C106.248 12.7306 106.555 13.5179 106.556 14.5C106.555 15.482 106.248 16.2694 105.633 16.8954C105.015 17.5212 104.273 17.8281 103.376 17.8298C102.48 17.8281 101.739 17.5212 101.12 16.8954L101.017 16.9973ZM106.561 17.7256L106.458 17.6249C105.628 18.4767 104.613 18.8976 103.376 18.8993C102.14 18.8975 101.125 18.4767 100.296 17.6249L100.292 17.6203L100.296 17.6249C99.4678 16.7701 99.059 15.7393 99.0578 14.5C99.059 13.2606 99.4678 12.2298 100.296 11.3751C101.125 10.5232 102.14 10.1018 103.376 10.1001C104.605 10.1018 105.617 10.5249 106.452 11.3813C107.283 12.24 107.695 13.2692 107.696 14.5C107.695 15.7393 107.285 16.7701 106.458 17.6249L106.561 17.7256L106.665 17.8264C107.543 16.9236 107.987 15.8038 107.986 14.5C107.987 13.2035 107.541 12.086 106.66 11.1792C105.778 10.2688 104.673 9.8085 103.376 9.81006C102.074 9.8085 100.965 10.2667 100.089 11.1735V11.1729C99.2094 12.0763 98.7671 13.1961 98.7683 14.5C98.7671 15.8038 99.2094 16.9236 100.089 17.827L100.093 17.8311L100.089 17.8264C100.965 18.7332 102.074 19.1905 103.376 19.1893C104.679 19.1905 105.787 18.7332 106.665 17.8264L106.561 17.7256ZM109.407 18.85V10.1499H110.766L114.987 16.9179H115.035L114.987 15.2413V10.1499H116.104V18.8499H114.939L110.523 11.7539H110.474L110.523 13.4311V18.8499H109.407" fill="black"/>
<path d="M109.407 18.8499H109.552V10.2949H110.685L114.907 17.0629H115.184L115.132 15.2391V10.2949H115.959V18.7049H115.019L110.603 11.6089H110.326L110.378 13.4334V18.7049H109.407V18.8499H109.552H109.407V18.9949H110.667V13.4288L110.619 11.75L110.475 11.7539V11.8989H110.523V11.7539L110.4 11.831L114.859 18.9949H116.249V10.0049H114.842V15.243L114.89 16.9218L115.035 16.9179V16.7729H114.987V16.9179L115.11 16.8409L110.846 10.0049H109.263V18.9949H109.408V18.8499M154.807 43.4999H157.508V25.3732H154.807L154.807 43.4999ZM179.138 31.9028L176.041 39.7617H175.949L172.735 31.9028H169.825L174.644 42.887L171.897 48.9969H174.715L182.142 31.9028L179.138 31.9028ZM163.819 41.4411C162.933 41.4411 161.699 40.9981 161.699 39.9016C161.699 38.5024 163.237 37.9661 164.563 37.9661C165.751 37.9661 166.309 38.2226 167.031 38.5728C166.821 40.2516 165.378 41.4411 163.819 41.4411ZM164.144 31.5062C162.188 31.5062 160.163 32.3694 159.325 34.2817L161.722 35.2842C162.235 34.2817 163.189 33.9548 164.191 33.9548C165.588 33.9548 167.008 34.7948 167.031 36.2873V36.4737C166.542 36.1938 165.495 35.7741 164.214 35.7741C161.63 35.7741 158.998 37.1963 158.998 39.855C158.998 42.2805 161.117 43.8431 163.491 43.8431C165.308 43.8431 166.309 43.0269 166.938 42.0709H167.031V43.4699H169.638V36.52C169.638 33.3024 167.241 31.5062 164.144 31.5062ZM147.45 34.1094H143.608V27.896H147.45C149.469 27.896 150.616 29.5708 150.616 31.0026C150.616 32.4074 149.469 34.1094 147.45 34.1094ZM147.38 25.3732H140.908V43.4999H143.608V36.6322H147.38C150.374 36.6322 153.317 34.4611 153.317 31.0026C153.317 27.5442 150.374 25.3732 147.38 25.3732ZM112.085 41.4444C110.219 41.4444 108.656 39.8794 108.656 37.7299C108.656 35.5578 110.219 33.969 112.085 33.969C113.927 33.969 115.373 35.5578 115.373 37.7299C115.373 39.8794 113.927 41.4444 112.085 41.4444H112.085ZM115.187 32.9178H115.093C114.487 32.1938 113.321 31.5397 111.852 31.5397C108.773 31.5397 105.951 34.2494 105.951 37.7299C105.951 41.1873 108.773 43.8737 111.852 43.8737C113.321 43.8737 114.487 43.2195 115.093 42.4724H115.187V43.36C115.187 45.7197 113.927 46.9811 111.898 46.9811C110.243 46.9811 109.216 45.7893 108.796 44.785L106.441 45.7661C107.117 47.4013 108.913 49.4104 111.898 49.4104C115.07 49.4104 117.752 47.5412 117.752 42.9862V31.9135H115.187V32.9178ZM119.618 43.4999H122.323V25.3725H119.618V43.4999ZM126.312 37.5198C126.242 35.1369 128.154 33.9225 129.53 33.9225C130.603 33.9225 131.513 34.4595 131.815 35.231L126.312 37.5198ZM134.708 35.4643C134.195 34.0856 132.632 31.5397 129.437 31.5397C126.265 31.5397 123.63 34.0392 123.63 37.7067C123.63 41.1641 126.242 43.8737 129.74 43.8737C132.562 43.8737 134.195 42.145 134.871 41.1407L132.772 39.7389C132.073 40.7669 131.116 41.4444 129.74 41.4444C128.364 41.4444 127.385 40.8134 126.754 39.5757L134.987 36.1649L134.708 35.4643ZM69.1168 33.432V36.0482H75.367C75.1805 37.5198 74.6907 38.5943 73.9443 39.3419C73.035 40.2532 71.6123 41.2575 69.1167 41.2575C65.2685 41.2575 62.2601 38.1507 62.2601 34.2963C62.2601 30.4419 65.2685 27.3347 69.1168 27.3347C71.1926 27.3347 72.7081 28.1525 73.8278 29.2037L75.6702 27.3585C74.1078 25.8631 72.0318 24.7185 69.1168 24.7185C63.8457 24.7185 59.4146 29.0169 59.4146 34.2963C59.4146 39.5757 63.8457 43.8737 69.1168 43.8737C71.9623 43.8737 74.1078 42.9398 75.7867 41.1873C77.5127 39.4586 78.0493 37.0293 78.0493 35.0673C78.0493 34.4595 78.0028 33.8993 77.909 33.432H69.1168ZM85.1553 41.4444C83.2891 41.4444 81.6797 39.9025 81.6797 37.7067C81.6797 35.4875 83.2891 33.969 85.1553 33.969C87.0207 33.969 88.6301 35.4875 88.6301 37.7067C88.6301 39.9026 87.0207 41.4444 85.1553 41.4444ZM85.1553 31.5397C81.7498 31.5397 78.9743 34.1326 78.9743 37.7067C78.9743 41.2575 81.7498 43.8737 85.1553 43.8737C88.56 43.8737 91.3354 41.2575 91.3354 37.7067C91.3354 34.1326 88.56 31.5397 85.1553 31.5397ZM98.6376 41.4444C96.7722 41.4444 95.1626 39.9025 95.1626 37.7067C95.1626 35.4875 96.7722 33.969 98.6376 33.969C100.503 33.969 102.113 35.4875 102.113 37.7067C102.113 39.9026 100.503 41.4444 98.6376 41.4444H98.6376ZM98.6376 31.5397C95.2323 31.5397 92.4574 34.1326 92.4574 37.7067C92.4574 41.2575 95.2323 43.8737 98.6376 43.8737C102.042 43.8737 104.818 41.2575 104.818 37.7067C104.818 34.1326 102.042 31.5397 98.6376 31.5397H98.6376Z" fill="black"/>
<path d="M15.2128 11.0364C14.727 11.4754 14.437 12.2077 14.437 13.1797V12.96V45.0356V44.8243C14.437 45.722 14.6858 46.4152 15.107 46.8616L15.2145 46.9647V46.9652C15.5555 47.2734 15.9927 47.437 16.4937 47.4365C16.9833 47.4365 17.5342 47.2801 18.1155 46.95L39.1286 34.9914L46.3464 30.8833C47.2631 30.3617 47.7777 29.6888 47.8638 29.0034V29.0006C47.7777 28.3136 47.2631 27.6412 46.3465 27.1195L39.128 23.0119L18.1156 11.0533C17.533 10.7226 16.9818 10.5657 16.4909 10.5657C15.9904 10.5657 15.5538 10.7288 15.2129 11.0364H15.2128Z" fill="#00C1FF"/>
<path d="M15.2146 46.9648L15.107 46.8618C14.6858 46.4154 14.437 45.7221 14.437 44.8244V45.0357V12.968V13.1798C14.437 12.2078 14.727 11.4755 15.2128 11.0365L33.149 29.0012L15.2146 46.9648Z" fill="url(#paint0_linear_95_6277)"/>
<path d="M39.1287 34.9915L33.1492 29.0012L39.1282 23.012L46.3466 27.1195C47.2633 27.6413 47.7779 28.3136 47.8639 29.0006V29.0034C47.7779 29.6888 47.2633 30.3618 46.3466 30.8833L39.1288 34.9914" fill="url(#paint1_linear_95_6277)"/>
<path d="M16.4937 47.4365C15.9927 47.437 15.5555 47.2733 15.2146 46.9652V46.9647L33.1491 29.0011L39.1286 34.9914L18.1155 46.95C17.5341 47.2802 16.9833 47.4365 16.4937 47.4365Z" fill="url(#paint2_linear_95_6277)"/>
<path d="M33.1492 29.0012L15.2129 11.0364C15.5538 10.7289 15.9905 10.5658 16.4909 10.5658C16.9818 10.5658 17.5331 10.7226 18.1156 11.0534L39.1281 23.012L33.1491 29.0012" fill="url(#paint3_linear_95_6277)"/>
<path d="M16.4944 47.6489C15.9934 47.6489 15.5556 47.4852 15.2146 47.1771L15.2141 47.1776C15.2126 47.1762 15.2111 47.1749 15.2096 47.1737L15.1163 47.0825C15.1134 47.0796 15.1106 47.0763 15.1072 47.073L15.2147 46.9653C15.5557 47.2734 15.9928 47.4371 16.4939 47.4365C16.9835 47.4365 17.5343 47.2802 18.1157 46.95L39.1287 34.9914L39.2634 35.1263L39.127 35.2039L18.1156 47.1618C17.5858 47.4626 17.0819 47.6195 16.6267 47.6456C16.5826 47.6478 16.5385 47.6488 16.4944 47.6489" fill="url(#paint4_linear_95_6277)"/>
<path d="M15.107 47.073C14.6858 46.6266 14.437 45.9339 14.437 45.0356V44.8244C14.437 45.722 14.6858 46.4153 15.107 46.8617L15.2145 46.9648L15.107 47.073Z" fill="url(#paint5_linear_95_6277)"/>
<path d="M39.2633 35.1262L39.1287 34.9913L46.3465 30.8832C47.2632 30.3616 47.7778 29.6887 47.8638 29.0032C47.8638 29.2548 47.8078 29.5063 47.6965 29.751C47.4719 30.2443 47.0219 30.7105 46.3466 31.095L39.2633 35.1262" fill="url(#paint6_linear_95_6277)"/>
<path d="M47.8637 29.0007C47.7777 28.3137 47.2631 27.6414 46.3464 27.1196L39.1279 23.0121L39.2626 22.8772H39.2632L46.3464 26.9084C47.357 27.4839 47.8631 28.2422 47.8637 29.0007Z" fill="url(#paint7_linear_95_6277)"/>
<path d="M14.437 13.1797V12.9581C14.437 12.8782 14.4392 12.8001 14.4433 12.7242V12.7208C14.4433 12.7197 14.4433 12.7186 14.4437 12.7175V12.7089C14.4873 11.9357 14.727 11.3326 15.107 10.9299L15.2128 11.0363C14.727 11.4754 14.437 12.2077 14.437 13.1797Z" fill="url(#paint8_linear_95_6277)"/>
<path d="M39.1281 23.012L18.1157 11.0533C17.5331 10.7225 16.9819 10.5657 16.491 10.5657C15.9905 10.5657 15.5539 10.7288 15.213 11.0364L15.1072 10.9299C15.1402 10.8949 15.1746 10.8611 15.2101 10.8286C15.2112 10.8274 15.213 10.8262 15.2141 10.8251C15.5523 10.5199 15.9843 10.3568 16.4803 10.3538H16.491C16.9819 10.3538 17.5331 10.5108 18.1157 10.8416L39.2634 22.8766L39.2628 22.8771L39.1281 23.012Z" fill="url(#paint9_linear_95_6277)"/>
<defs>
<linearGradient id="paint0_linear_95_6277" x1="25.8993" y1="12.6291" x2="10.4423" y2="28.111" gradientUnits="userSpaceOnUse">
<stop stop-color="#00A0FF"/>
<stop offset="0.00657" stop-color="#00A1FF"/>
<stop offset="0.2601" stop-color="#00BEFF"/>
<stop offset="0.5122" stop-color="#00D2FF"/>
<stop offset="0.7604" stop-color="#00DFFF"/>
<stop offset="1" stop-color="#00E3FF"/>
</linearGradient>
<linearGradient id="paint1_linear_95_6277" x1="48.9807" y1="28.8977" x2="13.9517" y2="28.8977" gradientUnits="userSpaceOnUse">
<stop stop-color="#FFE000"/>
<stop offset="0.4087" stop-color="#FFBD00"/>
<stop offset="0.7754" stop-color="#FFA500"/>
<stop offset="1" stop-color="#FF9C00"/>
</linearGradient>
<linearGradient id="paint2_linear_95_6277" x1="35.954" y1="34.6964" x2="9.76094" y2="60.74" gradientUnits="userSpaceOnUse">
<stop stop-color="#FF3A44"/>
<stop offset="1" stop-color="#C31162"/>
</linearGradient>
<linearGradient id="paint3_linear_95_6277" x1="10.5902" y1="8.37309" x2="22.2639" y2="19.998" gradientUnits="userSpaceOnUse">
<stop stop-color="#32A071"/>
<stop offset="0.0685" stop-color="#2DA771"/>
<stop offset="0.4762" stop-color="#15CF74"/>
<stop offset="0.8009" stop-color="#06E775"/>
<stop offset="1" stop-color="#00F076"/>
</linearGradient>
<linearGradient id="paint4_linear_95_6277" x1="35.9411" y1="38.8516" x2="14.9644" y2="59.8623" gradientUnits="userSpaceOnUse">
<stop stop-color="#CC2E36"/>
<stop offset="1" stop-color="#9C0E4E"/>
</linearGradient>
<linearGradient id="paint5_linear_95_6277" x1="16.8264" y1="12.629" x2="3.20898" y2="26.2686" gradientUnits="userSpaceOnUse">
<stop stop-color="#008DE0"/>
<stop offset="0.00657" stop-color="#008DE0"/>
<stop offset="0.2601" stop-color="#00A7E0"/>
<stop offset="0.5122" stop-color="#00B8E0"/>
<stop offset="0.7604" stop-color="#00C4E0"/>
<stop offset="1" stop-color="#00C7E0"/>
</linearGradient>
<linearGradient id="paint6_linear_95_6277" x1="48.9807" y1="29.0019" x2="13.9517" y2="29.0019" gradientUnits="userSpaceOnUse">
<stop stop-color="#E0C500"/>
<stop offset="0.4087" stop-color="#E0A600"/>
<stop offset="0.7754" stop-color="#E09100"/>
<stop offset="1" stop-color="#E08900"/>
</linearGradient>
<linearGradient id="paint7_linear_95_6277" x1="48.9806" y1="29.0022" x2="13.9516" y2="29.0022" gradientUnits="userSpaceOnUse">
<stop stop-color="#FFE840"/>
<stop offset="0.4087" stop-color="#FFCE40"/>
<stop offset="0.7754" stop-color="#FFBC40"/>
<stop offset="1" stop-color="#FFB540"/>
</linearGradient>
<linearGradient id="paint8_linear_95_6277" x1="16.8116" y1="12.6536" x2="3.69564" y2="25.2216" gradientUnits="userSpaceOnUse">
<stop stop-color="#40B8FF"/>
<stop offset="0.00657" stop-color="#40B9FF"/>
<stop offset="0.2601" stop-color="#40CEFF"/>
<stop offset="0.5122" stop-color="#40DDFF"/>
<stop offset="0.7604" stop-color="#40E7FF"/>
<stop offset="1" stop-color="#40EAFF"/>
</linearGradient>
<linearGradient id="paint9_linear_95_6277" x1="10.5641" y1="12.1722" x2="19.9312" y2="21.5545" gradientUnits="userSpaceOnUse">
<stop stop-color="#65B895"/>
<stop offset="0.0685" stop-color="#62BD95"/>
<stop offset="0.4762" stop-color="#50DB97"/>
<stop offset="0.8009" stop-color="#44ED98"/>
<stop offset="1" stop-color="#40F498"/>
</linearGradient>
</defs>
</svg>
