<svg width="139" height="50" viewBox="0 0 139 50" fill="none" xmlns="http://www.w3.org/2000/svg">
<g clip-path="url(#clip0_1_1754)">
<path d="M58.2069 4.86215C57.2413 4.82767 56.2758 4.79319 55.3103 4.68974C56.2758 4.58629 57.2413 4.55181 58.2069 4.51733L61.1379 4.44836C62.2184 4.42537 63.3103 4.40238 64.4138 4.37939L64 4.9656C63.0344 4.94261 62.0804 4.91962 61.1379 4.89664L58.2069 4.86215Z" fill="#A00000"/>
<path d="M49.8276 9.10336C48.4483 9.06888 47.0689 9.0344 45.7241 8.93095C47.0689 8.8275 48.4483 8.79302 49.8276 8.75854L53.9655 8.72405C56.4712 8.67808 58.9885 8.64359 61.5172 8.62061L61.069 9.27578C58.7011 9.25279 56.3333 9.21831 53.9655 9.17233L49.8276 9.10336Z" fill="#A00000"/>
<path d="M60.1034 0.586274C59.2069 0.551792 58.3448 0.517309 57.4482 0.41386C58.3448 0.310412 59.2069 0.275929 60.1034 0.275929L62.7241 0.206964C64.2643 0.160987 65.8046 0.126504 67.3448 0.103516L66.8965 0.724205C65.5172 0.724205 64.1264 0.701217 62.7241 0.65524L60.1034 0.586274Z" fill="#A00000"/>
<path d="M56.1034 12.9654C56.931 12.9425 57.7471 12.9195 58.5517 12.8965L58.1724 13.4827C57.4828 13.4597 56.7931 13.4482 56.1034 13.4482L54 13.3448C53.2759 13.3448 52.5862 13.3103 51.8621 13.2068C52.5862 13.1034 53.2759 13.0689 54 13.0344L56.1034 12.9654Z" fill="#A00000"/>
<path d="M52.2759 22.0346C50.5747 22.0116 48.8621 21.9771 47.1379 21.9311L44.0345 21.8622C43 21.8622 41.9655 21.8277 40.931 21.6897C41.9655 21.5863 43 21.5518 44.0345 21.5518L47.1379 21.4828C49 21.4369 50.8621 21.4024 52.7241 21.3794L52.2759 22.0346Z" fill="#A00000"/>
<path d="M51.8621 17.2067C53.1265 17.1837 54.3908 17.1607 55.6552 17.1377L55.2069 17.7584C54.1035 17.7354 52.9885 17.7124 51.8621 17.6894L49.2414 17.6205C48.3794 17.586 47.5173 17.5515 46.6207 17.448C47.5173 17.3446 48.3794 17.3101 49.2414 17.2756L51.8621 17.2067Z" fill="#A00000"/>
<path d="M65.3448 13.9311L68.7586 8.65527L69.3449 13.9311H65.3448Z" fill="#A00000"/>
<path d="M75.8276 8.37938L74.5862 0.103516H86.3103C80.7586 0.896619 77.3103 4.44834 75.8276 8.37938Z" fill="#A00000"/>
<path d="M94.931 17.5515L89.9655 13.6205C88.8275 15.0687 87.4827 15.8618 85.8275 15.8618C83.931 15.8618 82.4482 14.5515 82.4482 12.2067C82.4482 9.27563 84.5517 6.34459 87.7586 6.34459C89.3448 6.34459 90.6207 7.20666 91.0689 8.9308L97.4482 6.1377C98.1034 9.79287 97.4482 13.7929 94.931 17.5515Z" fill="#A00000"/>
<path d="M82.9655 22.0344H77.8621L77.4828 19.3447C78.8276 20.7585 80.7242 21.6896 82.9655 22.0344Z" fill="#A00000"/>
<path d="M69.7586 19.1035L70.1035 22.0346H60.2069L62.1035 19.1035H69.7586Z" fill="#A00000"/>
<path fill-rule="evenodd" clip-rule="evenodd" d="M13.8621 28.5864L15.8966 42.2071H11.069L10.8621 40.414H6.10345L4.93103 42.2071H0L9.34483 28.5864H13.8621ZM10.6207 37.2071L10.2759 33.8968L8.13793 37.2071H10.6207Z" fill="#2E2F30"/>
<path d="M31.4828 28.6895L29.3448 36.655C28.8621 38.4481 28.1724 39.7584 27.2069 40.7239C25.931 41.9998 24 42.4826 21.8621 42.4826C18.069 42.4826 16 40.6895 16 37.6205C16 36.9308 16.1034 36.1722 16.3103 35.4481L18.1034 28.6895H22.7241L20.8276 35.7239C20.7241 36.1032 20.6552 36.4826 20.6552 36.7929C20.6552 37.8963 21.3103 38.4826 22.5172 38.4826C23.069 38.4826 23.5862 38.3101 23.9655 37.9308C24.3793 37.517 24.6552 36.9998 24.931 35.9653L26.8966 28.6895H31.4828Z" fill="#2E2F30"/>
<path d="M43.7931 32.517H39.7931L37.2069 42.2067H32.6551L35.2758 32.517H31.3103L32.3103 28.6895H44.8275L43.7931 32.517Z" fill="#2E2F30"/>
<path fill-rule="evenodd" clip-rule="evenodd" d="M58.2758 34.5515C58.2758 38.7584 54.862 42.4825 50.3103 42.4825C46.3103 42.4825 43.5862 39.8274 43.5862 36.3791C43.5862 32.1722 47 28.4136 51.5517 28.4136C55.5172 28.4136 58.2758 31.1032 58.2758 34.5515ZM53.7241 34.9653C53.7241 33.517 52.862 32.4136 51.2414 32.4136C49.3448 32.4136 48.1379 34.2412 48.1379 35.9653C48.1379 37.3791 49 38.517 50.6207 38.517C52.5172 38.517 53.7241 36.655 53.7241 34.9653Z" fill="#2E2F30"/>
<path d="M74.5517 39.5515C73.2069 41.3446 71.2414 42.517 68.3448 42.517C64.5517 42.517 61.931 40.2067 61.931 36.586C61.931 32.8963 64.7931 28.4136 70.6207 28.4136C73.5517 28.4136 75.6207 29.9308 76.1724 32.3446L72.1379 34.1032C71.8276 32.9998 71.0345 32.4481 70.0345 32.4481C68 32.4481 66.6896 34.3101 66.6896 36.1722C66.6896 37.655 67.6207 38.4825 68.7931 38.4825C69.8621 38.4825 70.6896 37.9998 71.4483 37.0687L74.5517 39.5515Z" fill="#2E2F30"/>
<path d="M86.931 38.517L85.931 42.2067H74.3103L77.931 28.6895H89.4827L88.4827 32.4136H81.3793L81 33.7584H87.6207L86.7586 37.0343H80.1379L79.7241 38.517H86.931Z" fill="#2E2F30"/>
<path d="M103.862 28.6895L100.207 42.2067H96.2069L92.9656 35.4826L91.1725 42.2067H86.6897L90.3104 28.6895H94.5518L97.6207 35.1377L99.3449 28.6895H103.862Z" fill="#2E2F30"/>
<path d="M116.172 32.517H112.172L109.586 42.2067H105.035L107.655 32.517H103.69L104.69 28.6895H117.207L116.172 32.517Z" fill="#2E2F30"/>
<path d="M134.862 37.7239L136.724 42.2412H131.862L129.069 35.1377H131.724C133.241 35.1377 134 34.4481 134 33.586C134 33.3101 133.931 33.0688 133.724 32.8619C133.471 32.609 133.023 32.4826 132.379 32.4826H128.552H121.448L121.069 33.7584H127.69L126.828 37.0343H120.207L119.793 38.517H127L126 42.2067H114.379L118 28.6895H132.552C135.069 28.6895 136.655 29.2412 137.552 30.1377C138.31 30.8964 138.621 31.8964 138.621 32.9653C138.621 35.0688 137.517 36.8964 134.862 37.7239Z" fill="#2E2F30"/>
<path d="M7.41375 44.8276H7.86203L6.75858 48.9656H6.3103L7.41375 44.8276Z" fill="#A00000"/>
<path d="M10.5862 49C10.3793 49 10.2069 48.954 10.069 48.8621C9.93103 48.7701 9.86206 48.6207 9.86206 48.4138C9.86206 48.3678 9.86206 48.3103 9.86206 48.2414C9.86206 48.1954 9.87355 48.1494 9.89654 48.1034L10.3793 46.3103H9.96551L10.069 45.8966H10.4827L10.7241 45H11.1724L10.931 45.8966H11.8965L11.7931 46.3103H10.8276L10.3448 48.069C10.3448 48.092 10.3448 48.1264 10.3448 48.1724C10.3448 48.2184 10.3448 48.2529 10.3448 48.2759C10.3448 48.3908 10.3793 48.4713 10.4483 48.5172C10.5172 48.5632 10.6207 48.5862 10.7586 48.5862C10.8736 48.5862 11.0115 48.5632 11.1724 48.5172L11.069 48.931C11 48.954 10.9195 48.977 10.8276 49C10.7586 49 10.6782 49 10.5862 49Z" fill="#A00000"/>
<path d="M14.4828 44.8276H15.0345V44.8621L14.207 46.4483H13.9656L14.4828 44.8276Z" fill="#A00000"/>
<path d="M17.6896 49.0347C17.4597 49.0347 17.2298 48.9887 17 48.8968C16.7701 48.8048 16.5632 48.6669 16.3793 48.483L16.6551 48.2071C16.839 48.3681 17.0115 48.483 17.1724 48.552C17.3563 48.6209 17.5402 48.6554 17.7241 48.6554C17.8161 48.6554 17.908 48.6439 18 48.6209C18.0689 48.5979 18.1379 48.5635 18.2069 48.5175C18.2528 48.4715 18.2988 48.414 18.3448 48.3451C18.3908 48.2761 18.4138 48.2071 18.4138 48.1382C18.4138 48.0462 18.3678 47.9543 18.2758 47.8623C18.2069 47.7933 18.0574 47.7129 17.8275 47.6209C17.5517 47.506 17.3333 47.391 17.1724 47.2761C17.0344 47.1612 16.9655 47.0002 16.9655 46.7933C16.9655 46.6554 16.9885 46.529 17.0344 46.414C17.1034 46.2991 17.1839 46.2071 17.2758 46.1382C17.3908 46.0462 17.5172 45.9772 17.6551 45.9313C17.7931 45.8853 17.954 45.8623 18.1379 45.8623C18.3448 45.8623 18.5517 45.8968 18.7586 45.9658C18.9655 46.0577 19.1264 46.1612 19.2413 46.2761L19 46.5864C18.862 46.4715 18.7126 46.3795 18.5517 46.3106C18.4138 46.2416 18.2528 46.2071 18.0689 46.2071C17.862 46.2301 17.7011 46.2876 17.5862 46.3795C17.4712 46.4715 17.4138 46.5864 17.4138 46.7244C17.4138 46.7704 17.4252 46.8163 17.4482 46.8623C17.4712 46.8853 17.5057 46.9198 17.5517 46.9658C17.5977 47.0117 17.6551 47.0577 17.7241 47.1037C17.7931 47.1497 17.8965 47.1956 18.0344 47.2416C18.3103 47.3566 18.5172 47.4715 18.6551 47.5864C18.7931 47.7014 18.862 47.8623 18.862 48.0692C18.862 48.2071 18.8275 48.3336 18.7586 48.4485C18.7126 48.5635 18.6321 48.6669 18.5172 48.7589C18.4023 48.8508 18.2758 48.9198 18.1379 48.9658C18 49.0117 17.8505 49.0347 17.6896 49.0347Z" fill="#A00000"/>
<path d="M25.5862 44.8276H26.0345L26.9311 47.069L29.0345 44.8276H29.5518L28.4483 48.9656H27.9655L28.8621 45.6207L26.7586 47.8276H26.7242L25.8276 45.6207L24.9311 48.9656H24.4828L25.5862 44.8276Z" fill="#A00000"/>
<path fill-rule="evenodd" clip-rule="evenodd" d="M32.6896 49.0347C32.4827 49.0347 32.2988 49.0002 32.1379 48.9313C31.977 48.8623 31.8275 48.7704 31.6896 48.6554C31.5747 48.5175 31.4827 48.3681 31.4137 48.2071C31.3448 48.0462 31.3103 47.8623 31.3103 47.6554C31.3103 47.4255 31.3563 47.1956 31.4482 46.9658C31.5632 46.7589 31.7011 46.575 31.862 46.414C32.0229 46.2301 32.2069 46.0922 32.4137 46.0002C32.6436 45.9083 32.8735 45.8623 33.1034 45.8623C33.3103 45.8623 33.5057 45.8853 33.6896 45.9313C33.8505 46.0002 34 46.1037 34.1379 46.2416C34.2528 46.3566 34.3448 46.4945 34.4138 46.6554C34.4827 46.8393 34.5172 47.0232 34.5172 47.2071C34.5172 47.46 34.4597 47.6899 34.3448 47.8968C34.2528 48.1267 34.1264 48.3221 33.9655 48.483C33.8046 48.6439 33.6092 48.7818 33.3793 48.8968C33.1724 48.9887 32.9425 49.0347 32.6896 49.0347ZM32.7241 48.6209C32.908 48.6209 33.0804 48.5864 33.2413 48.5175C33.3793 48.4255 33.5172 48.3221 33.6551 48.2071C33.7701 48.0692 33.862 47.9198 33.931 47.7589C34 47.5749 34.0344 47.4025 34.0344 47.2416C34.0344 46.9198 33.9425 46.6784 33.7586 46.5175C33.5977 46.3336 33.3678 46.2416 33.0689 46.2416C32.908 46.2416 32.7471 46.2876 32.5862 46.3795C32.4252 46.4485 32.2873 46.552 32.1724 46.6899C32.0574 46.8048 31.9655 46.9543 31.8965 47.1382C31.8275 47.2991 31.7931 47.4715 31.7931 47.6554C31.7931 47.9543 31.8735 48.1956 32.0344 48.3795C32.2183 48.5405 32.4482 48.6209 32.7241 48.6209Z" fill="#A00000"/>
<path d="M37.3104 45.8967H37.7586L37.5518 46.7243C37.7357 46.4484 37.9541 46.23 38.2069 46.0691C38.4368 45.9082 38.7012 45.8392 39 45.8622L38.8621 46.345C38.6782 46.345 38.5058 46.3795 38.3449 46.4484C38.1839 46.4944 38.0345 46.5864 37.8966 46.7243C37.7586 46.8392 37.6322 46.9772 37.5173 47.1381C37.4023 47.322 37.3219 47.5289 37.2759 47.7588L36.9311 48.9657H36.4828L37.3104 45.8967Z" fill="#A00000"/>
<path fill-rule="evenodd" clip-rule="evenodd" d="M41.069 47.5864C41.069 47.6094 41.069 47.6324 41.069 47.6554C41.069 47.6784 41.069 47.7014 41.069 47.7244C41.069 48.0002 41.1495 48.2186 41.3104 48.3795C41.4713 48.5405 41.7012 48.6209 42 48.6209C42.1839 48.6209 42.3564 48.5979 42.5173 48.552C42.6552 48.483 42.7931 48.391 42.9311 48.2761L43.1724 48.5864C43.0115 48.7014 42.8391 48.8048 42.6552 48.8968C42.4713 48.9887 42.2414 49.0347 41.9656 49.0347C41.7587 49.0347 41.5747 49.0002 41.4138 48.9313C41.2529 48.8623 41.115 48.7818 41 48.6899C40.8851 48.5749 40.7931 48.437 40.7242 48.2761C40.6552 48.1152 40.6207 47.9313 40.6207 47.7244C40.6207 47.4945 40.6667 47.2646 40.7587 47.0347C40.8506 46.8278 40.977 46.6324 41.138 46.4485C41.2759 46.2646 41.4598 46.1152 41.6897 46.0002C41.8966 45.9083 42.1265 45.8623 42.3793 45.8623C42.5862 45.8623 42.7587 45.8853 42.8966 45.9313C43.0575 46.0002 43.1839 46.0807 43.2759 46.1726C43.3679 46.2876 43.4368 46.414 43.4828 46.552C43.5518 46.6899 43.5862 46.8393 43.5862 47.0002C43.5862 47.1152 43.5748 47.2186 43.5518 47.3106C43.5288 47.4025 43.5058 47.4945 43.4828 47.5864H41.069ZM43.069 47.2416C43.092 47.1956 43.1035 47.1267 43.1035 47.0347C43.1035 46.9198 43.092 46.8163 43.069 46.7244C43.023 46.6324 42.977 46.552 42.9311 46.483C42.8621 46.391 42.7816 46.3336 42.6897 46.3106C42.5977 46.2646 42.4828 46.2416 42.3449 46.2416C42.1839 46.2416 42.046 46.2646 41.9311 46.3106C41.7931 46.3566 41.6667 46.4255 41.5518 46.5175C41.4598 46.6094 41.3793 46.7244 41.3104 46.8623C41.2184 46.9772 41.1495 47.1037 41.1035 47.2416H43.069Z" fill="#A00000"/>
<path d="M50.931 45.2759H49.5172L49.6551 44.8276H52.8965L52.7931 45.2759H51.3793L50.4138 48.9656H49.931L50.931 45.2759Z" fill="#A00000"/>
<path d="M55.1724 44.6553H55.6206L55.1724 46.4139C55.3103 46.253 55.4597 46.115 55.6206 46.0001C55.7816 45.9081 55.977 45.8622 56.2068 45.8622C56.5057 45.8622 56.7471 45.9426 56.931 46.1035C57.1149 46.2645 57.2068 46.4944 57.2068 46.7932C57.2068 46.8622 57.1953 46.9426 57.1724 47.0346C57.1494 47.1035 57.1379 47.184 57.1379 47.276L56.6551 48.9656H56.2068L56.6896 47.2415C56.6896 47.1955 56.7011 47.138 56.7241 47.0691C56.7241 47.0001 56.7241 46.9426 56.7241 46.8967C56.7241 46.6898 56.6666 46.5288 56.5517 46.4139C56.4137 46.3219 56.2413 46.276 56.0344 46.276C55.9195 46.276 55.8045 46.2989 55.6896 46.3449C55.5747 46.3909 55.4712 46.4599 55.3793 46.5518C55.2873 46.6208 55.1953 46.7242 55.1034 46.8622C55.0344 46.9771 54.977 47.1035 54.931 47.2415L54.4827 48.9656H54.0344L55.1724 44.6553Z" fill="#A00000"/>
<path fill-rule="evenodd" clip-rule="evenodd" d="M60.2069 49.0347C60.0919 49.0347 59.977 49.0117 59.862 48.9658C59.7471 48.9428 59.6436 48.8853 59.5517 48.7933C59.4597 48.7244 59.3908 48.6439 59.3448 48.552C59.2758 48.437 59.2413 48.3106 59.2413 48.1726C59.2413 48.0117 59.2758 47.8623 59.3448 47.7244C59.4137 47.5864 59.5057 47.4715 59.6206 47.3795C59.7586 47.2876 59.908 47.2186 60.0689 47.1727C60.2298 47.1037 60.4137 47.0692 60.6206 47.0692C60.8046 47.0692 60.9885 47.0922 61.1724 47.1382C61.3793 47.1612 61.5517 47.1956 61.6896 47.2416L61.7241 47.1727C61.7241 47.1267 61.7241 47.0807 61.7241 47.0347C61.7471 46.9887 61.7586 46.9428 61.7586 46.8968C61.7586 46.6899 61.6896 46.529 61.5517 46.414C61.4137 46.3221 61.2068 46.2761 60.931 46.2761C60.7701 46.2761 60.6206 46.2876 60.4827 46.3106C60.3448 46.3336 60.2068 46.3681 60.0689 46.414L60 46.0692C60.1379 46.0002 60.2873 45.9543 60.4482 45.9313C60.6091 45.8853 60.7931 45.8623 61 45.8623C61.3908 45.8623 61.6896 45.9543 61.8965 46.1382C62.1034 46.2991 62.2068 46.529 62.2068 46.8278C62.2068 46.9428 62.1839 47.0807 62.1379 47.2416L61.6551 48.9658H61.2413L61.3448 48.483C61.2068 48.6439 61.0459 48.7703 60.862 48.8623C60.6781 48.9772 60.4597 49.0347 60.2069 49.0347ZM60.3448 48.6899C60.4827 48.6899 60.6092 48.6669 60.7241 48.6209C60.862 48.5749 60.9885 48.506 61.1034 48.414C61.1954 48.3451 61.2873 48.2531 61.3793 48.1382C61.4712 48.0232 61.5287 47.8968 61.5517 47.7589L61.6206 47.552C61.4827 47.506 61.3333 47.4715 61.1724 47.4485C60.9885 47.4255 60.8046 47.414 60.6206 47.414C60.3448 47.414 60.1264 47.483 59.9655 47.6209C59.8045 47.7589 59.7241 47.9313 59.7241 48.1382C59.7241 48.2991 59.7816 48.4255 59.8965 48.5175C60.0114 48.6324 60.1609 48.6899 60.3448 48.6899Z" fill="#A00000"/>
<path d="M65.0344 45.8968H65.5172L65.3793 46.414C65.5172 46.2531 65.6666 46.1152 65.8275 46.0002C65.9885 45.9083 66.1954 45.8623 66.4482 45.8623C66.7241 45.8623 66.954 45.9428 67.1379 46.1037C67.3218 46.2646 67.4137 46.4945 67.4137 46.7933C67.4137 46.8623 67.4022 46.9428 67.3793 47.0347C67.3793 47.1037 67.3678 47.1841 67.3448 47.2761L66.8965 48.9658H66.4137L66.8965 47.2416C66.8965 47.1956 66.908 47.1382 66.931 47.0692C66.931 47.0002 66.931 46.9428 66.931 46.8968C66.931 46.6899 66.8735 46.529 66.7586 46.414C66.6436 46.3221 66.4712 46.2761 66.2413 46.2761C66.1264 46.2761 66.0114 46.2991 65.8965 46.3451C65.7816 46.391 65.6781 46.46 65.5862 46.552C65.4942 46.6209 65.4022 46.7244 65.3103 46.8623C65.2413 46.9772 65.1839 47.1037 65.1379 47.2416L64.6896 48.9658H64.2413L65.0344 45.8968Z" fill="#A00000"/>
<path fill-rule="evenodd" clip-rule="evenodd" d="M73.7932 49.0347C73.6552 49.0347 73.5288 49.0117 73.4138 48.9658C73.2989 48.9428 73.207 48.8853 73.138 48.7933C73.046 48.7244 72.9656 48.6439 72.8966 48.552C72.8506 48.437 72.8276 48.3106 72.8276 48.1726C72.8276 48.0117 72.8621 47.8623 72.9311 47.7244C73.0001 47.5864 73.092 47.4715 73.2069 47.3795C73.3219 47.2876 73.4713 47.2186 73.6552 47.1727C73.8161 47.1037 73.9886 47.0692 74.1725 47.0692C74.3794 47.0692 74.5748 47.0922 74.7587 47.1382C74.9426 47.1612 75.115 47.1956 75.2759 47.2416V47.1727C75.2989 47.1267 75.3104 47.0807 75.3104 47.0347C75.3334 46.9887 75.3449 46.9428 75.3449 46.8968C75.3449 46.6899 75.2759 46.529 75.138 46.414C75 46.3221 74.7932 46.2761 74.5173 46.2761C74.3334 46.2761 74.184 46.2876 74.069 46.3106C73.9311 46.3336 73.7932 46.3681 73.6552 46.414L73.5518 46.0692C73.7127 46.0002 73.8736 45.9543 74.0345 45.9313C74.1955 45.8853 74.3794 45.8623 74.5863 45.8623C74.9541 45.8623 75.2414 45.9543 75.4483 46.1382C75.6552 46.2991 75.7587 46.529 75.7587 46.8278C75.7587 46.9428 75.7472 47.0807 75.7242 47.2416L75.2414 48.9658H74.7932L74.9311 48.483C74.7932 48.6439 74.6322 48.7703 74.4483 48.8623C74.2644 48.9772 74.046 49.0347 73.7932 49.0347ZM73.9311 48.6899C74.069 48.6899 74.1955 48.6669 74.3104 48.6209C74.4483 48.5749 74.5748 48.506 74.6897 48.414C74.7817 48.3451 74.8736 48.2531 74.9656 48.1382C75.0345 48.0232 75.092 47.8968 75.138 47.7589L75.207 47.552C75.069 47.506 74.9081 47.4715 74.7242 47.4485C74.5633 47.4255 74.3909 47.414 74.2069 47.414C73.9311 47.414 73.7127 47.483 73.5518 47.6209C73.3679 47.7589 73.2759 47.9313 73.2759 48.1382C73.2759 48.2991 73.3334 48.4255 73.4483 48.5175C73.5633 48.6324 73.7242 48.6899 73.9311 48.6899Z" fill="#A00000"/>
<path d="M82.3793 44.8276H82.7931L83.6897 47.069L85.7931 44.8276H86.3104L85.2069 48.9656H84.7242L85.6207 45.6207L83.5517 47.8276H83.5173L82.6207 45.6207L81.7242 48.9656H81.2759L82.3793 44.8276Z" fill="#A00000"/>
<path fill-rule="evenodd" clip-rule="evenodd" d="M88.8965 49.0347C88.7586 49.0347 88.6322 49.0117 88.5172 48.9658C88.4023 48.9428 88.2988 48.8853 88.2069 48.7933C88.1149 48.7244 88.046 48.6439 88 48.552C87.954 48.437 87.931 48.3106 87.931 48.1726C87.931 48.0117 87.9655 47.8623 88.0345 47.7244C88.1034 47.5864 88.1954 47.4715 88.3103 47.3795C88.4253 47.2876 88.5632 47.2186 88.7241 47.1727C88.885 47.1037 89.069 47.0692 89.2759 47.0692C89.4828 47.0692 89.6782 47.0922 89.8621 47.1382C90.046 47.1612 90.2184 47.1956 90.3793 47.2416V47.1727C90.4023 47.1267 90.4138 47.0807 90.4138 47.0347C90.4138 46.9887 90.4138 46.9428 90.4138 46.8968C90.4138 46.6899 90.3448 46.529 90.2069 46.414C90.069 46.3221 89.8621 46.2761 89.5862 46.2761C89.4253 46.2761 89.2759 46.2876 89.1379 46.3106C89 46.3336 88.8621 46.3681 88.7241 46.414L88.6552 46.0692C88.8161 46.0002 88.977 45.9543 89.1379 45.9313C89.2988 45.8853 89.4713 45.8623 89.6552 45.8623C90.046 45.8623 90.3448 45.9543 90.5517 46.1382C90.7586 46.2991 90.8621 46.529 90.8621 46.8278C90.8621 46.9428 90.8391 47.0807 90.7931 47.2416L90.3448 48.9658H89.8966L90.0345 48.483C89.8965 48.6439 89.7356 48.7703 89.5517 48.8623C89.3448 48.9772 89.1264 49.0347 88.8965 49.0347ZM89.0345 48.6899C89.1724 48.6899 89.2988 48.6669 89.4138 48.6209C89.5287 48.5749 89.6437 48.506 89.7586 48.414C89.8736 48.3451 89.9655 48.2531 90.0345 48.1382C90.1264 48.0232 90.1954 47.8968 90.2414 47.7589L90.2759 47.552C90.1379 47.506 89.9885 47.4715 89.8276 47.4485C89.6667 47.4255 89.4942 47.414 89.3103 47.414C89.0345 47.414 88.8046 47.483 88.6207 47.6209C88.4598 47.7589 88.3793 47.9313 88.3793 48.1382C88.3793 48.2991 88.4368 48.4255 88.5517 48.5175C88.6667 48.6324 88.8276 48.6899 89.0345 48.6899Z" fill="#A00000"/>
<path d="M93.7242 45.8967H94.1725L93.9656 46.7243C94.1495 46.4484 94.3679 46.23 94.6207 46.0691C94.8506 45.9082 95.115 45.8392 95.4139 45.8622L95.2759 46.345C95.092 46.345 94.9196 46.3795 94.7587 46.4484C94.5978 46.4944 94.4483 46.5864 94.3104 46.7243C94.1725 46.8392 94.046 46.9772 93.9311 47.1381C93.8161 47.322 93.7357 47.5289 93.6897 47.7588L93.3449 48.9657H92.8966L93.7242 45.8967Z" fill="#A00000"/>
<path d="M98.0345 44.6553H98.4828L97.6896 47.5863L99.7586 45.8967H100.379L98.7241 47.2415L99.5862 48.9656H99.069L98.3448 47.5173L97.5517 48.1725L97.3448 48.9656H96.8621L98.0345 44.6553Z" fill="#A00000"/>
<path fill-rule="evenodd" clip-rule="evenodd" d="M102.276 47.5864C102.276 47.6094 102.276 47.6324 102.276 47.6554C102.276 47.6784 102.276 47.7014 102.276 47.7244C102.276 48.0002 102.368 48.2186 102.552 48.3795C102.713 48.5405 102.931 48.6209 103.207 48.6209C103.414 48.6209 103.586 48.5979 103.724 48.552C103.862 48.483 104 48.391 104.138 48.2761L104.379 48.5864C104.241 48.7014 104.069 48.8048 103.862 48.8968C103.678 48.9887 103.448 49.0347 103.172 49.0347C102.989 49.0347 102.805 49.0002 102.621 48.9313C102.46 48.8623 102.322 48.7818 102.207 48.6899C102.092 48.5749 102 48.437 101.931 48.2761C101.862 48.1152 101.828 47.9313 101.828 47.7244C101.828 47.4945 101.874 47.2646 101.966 47.0347C102.058 46.8278 102.184 46.6324 102.345 46.4485C102.506 46.2646 102.69 46.1152 102.897 46.0002C103.126 45.9083 103.368 45.8623 103.621 45.8623C103.805 45.8623 103.966 45.8853 104.104 45.9313C104.264 46.0002 104.391 46.0807 104.483 46.1726C104.575 46.2876 104.655 46.414 104.724 46.552C104.77 46.6899 104.793 46.8393 104.793 47.0002C104.793 47.1152 104.782 47.2186 104.759 47.3106C104.736 47.4025 104.713 47.4945 104.69 47.5864H102.276ZM104.276 47.2416C104.299 47.1956 104.31 47.1267 104.31 47.0347C104.31 46.9198 104.299 46.8163 104.276 46.7244C104.253 46.6324 104.207 46.552 104.138 46.483C104.069 46.391 103.989 46.3336 103.897 46.3106C103.805 46.2646 103.69 46.2416 103.552 46.2416C103.414 46.2416 103.276 46.2646 103.138 46.3106C103 46.3566 102.885 46.4255 102.793 46.5175C102.678 46.6094 102.586 46.7244 102.517 46.8623C102.448 46.9772 102.391 47.1037 102.345 47.2416H104.276Z" fill="#A00000"/>
<path d="M107.828 49C107.598 49 107.414 48.954 107.276 48.8621C107.138 48.7701 107.069 48.6207 107.069 48.4138C107.069 48.3678 107.069 48.3103 107.069 48.2414C107.092 48.1954 107.103 48.1494 107.103 48.1034L107.586 46.3103H107.172L107.276 45.8966H107.69L107.966 45H108.414L108.138 45.8966H109.103L109 46.3103H108.034L107.586 48.069C107.563 48.092 107.552 48.1264 107.552 48.1724C107.552 48.2184 107.552 48.2529 107.552 48.2759C107.552 48.3908 107.586 48.4713 107.655 48.5172C107.724 48.5632 107.828 48.5862 107.966 48.5862C108.103 48.5862 108.253 48.5632 108.414 48.5172L108.31 48.931C108.218 48.954 108.138 48.977 108.069 49C108 49 107.92 49 107.828 49Z" fill="#A00000"/>
<path fill-rule="evenodd" clip-rule="evenodd" d="M111.517 45.8968H111.965L111.828 46.4485C111.965 46.2646 112.126 46.1267 112.31 46.0347C112.494 45.9198 112.713 45.8623 112.965 45.8623C113.149 45.8623 113.31 45.8853 113.448 45.9313C113.609 46.0002 113.736 46.0922 113.828 46.2071C113.943 46.3221 114.034 46.46 114.103 46.6209C114.149 46.7589 114.172 46.9313 114.172 47.1382C114.172 47.414 114.126 47.6669 114.034 47.8968C113.943 48.1267 113.816 48.3221 113.655 48.483C113.494 48.6669 113.31 48.8048 113.103 48.8968C112.897 48.9887 112.69 49.0347 112.483 49.0347C112.322 49.0347 112.172 49.0117 112.034 48.9658C111.92 48.9198 111.816 48.8623 111.724 48.7933C111.632 48.7244 111.552 48.6439 111.483 48.552C111.414 48.46 111.356 48.3681 111.31 48.2761L110.897 49.8968H110.448L111.517 45.8968ZM112.414 48.6209C112.598 48.6209 112.77 48.5864 112.931 48.5175C113.092 48.4255 113.23 48.3221 113.345 48.2071C113.46 48.0692 113.552 47.9083 113.621 47.7244C113.667 47.5405 113.69 47.3566 113.69 47.1727C113.69 46.8968 113.621 46.6669 113.483 46.483C113.322 46.3221 113.103 46.2416 112.828 46.2416C112.667 46.2416 112.506 46.2761 112.345 46.3451C112.184 46.437 112.034 46.552 111.897 46.6899C111.782 46.8278 111.69 46.9772 111.621 47.1382C111.529 47.3221 111.483 47.506 111.483 47.6899C111.483 47.8048 111.506 47.9198 111.552 48.0347C111.598 48.1497 111.667 48.2531 111.759 48.3451C111.828 48.437 111.92 48.506 112.034 48.552C112.149 48.5979 112.276 48.6209 112.414 48.6209Z" fill="#A00000"/>
<path d="M117.379 44.6553H117.828L116.655 48.9656H116.207L117.379 44.6553Z" fill="#A00000"/>
<path fill-rule="evenodd" clip-rule="evenodd" d="M120.31 49.0347C120.172 49.0347 120.046 49.0117 119.931 48.9658C119.816 48.9428 119.713 48.8853 119.621 48.7933C119.552 48.7244 119.483 48.6439 119.414 48.552C119.368 48.437 119.345 48.3106 119.345 48.1726C119.345 48.0117 119.379 47.8623 119.448 47.7244C119.517 47.5864 119.609 47.4715 119.724 47.3795C119.839 47.2876 119.989 47.2186 120.172 47.1727C120.333 47.1037 120.506 47.0692 120.69 47.0692C120.897 47.0692 121.092 47.0922 121.276 47.1382C121.46 47.1612 121.632 47.1956 121.793 47.2416V47.1727C121.816 47.1267 121.828 47.0807 121.828 47.0347C121.828 46.9887 121.828 46.9428 121.828 46.8968C121.828 46.6899 121.77 46.529 121.655 46.414C121.517 46.3221 121.31 46.2761 121.035 46.2761C120.851 46.2761 120.69 46.2876 120.552 46.3106C120.437 46.3336 120.31 46.3681 120.172 46.414L120.069 46.0692C120.23 46.0002 120.391 45.9543 120.552 45.9313C120.713 45.8853 120.897 45.8623 121.103 45.8623C121.471 45.8623 121.759 45.9543 121.966 46.1382C122.172 46.2991 122.276 46.529 122.276 46.8278C122.276 46.9428 122.253 47.0807 122.207 47.2416L121.759 48.9658H121.31L121.448 48.483C121.31 48.6439 121.149 48.7703 120.966 48.8623C120.782 48.9772 120.563 49.0347 120.31 49.0347ZM120.448 48.6899C120.586 48.6899 120.713 48.6669 120.828 48.6209C120.966 48.5749 121.08 48.506 121.172 48.414C121.287 48.3451 121.391 48.2531 121.483 48.1382C121.552 48.0232 121.609 47.8968 121.655 47.7589L121.724 47.552C121.586 47.506 121.425 47.4715 121.241 47.4485C121.08 47.4255 120.908 47.414 120.724 47.414C120.448 47.414 120.23 47.483 120.069 47.6209C119.885 47.7589 119.793 47.9313 119.793 48.1382C119.793 48.2991 119.851 48.4255 119.966 48.5175C120.08 48.6324 120.241 48.6899 120.448 48.6899Z" fill="#A00000"/>
<path d="M125.862 49.0347C125.678 49.0347 125.506 49.0002 125.345 48.9313C125.184 48.8853 125.046 48.8048 124.931 48.6899C124.793 48.5749 124.69 48.437 124.621 48.2761C124.552 48.0922 124.517 47.8968 124.517 47.6899C124.517 47.46 124.563 47.2301 124.655 47.0002C124.747 46.7704 124.874 46.575 125.034 46.414C125.195 46.2301 125.391 46.0922 125.621 46.0002C125.828 45.9083 126.057 45.8623 126.31 45.8623C126.471 45.8623 126.609 45.8738 126.724 45.8968C126.862 45.9428 126.977 46.0002 127.069 46.0692C127.184 46.1382 127.276 46.2071 127.345 46.2761C127.414 46.3681 127.471 46.46 127.517 46.552L127.138 46.7933C127.069 46.6324 126.965 46.506 126.828 46.414C126.69 46.2991 126.506 46.2416 126.276 46.2416C126.092 46.2416 125.931 46.2876 125.793 46.3795C125.632 46.4485 125.494 46.552 125.379 46.6899C125.241 46.8048 125.138 46.9543 125.069 47.1382C125 47.3221 124.965 47.506 124.965 47.6899C124.965 47.8278 124.988 47.9658 125.034 48.1037C125.103 48.2186 125.172 48.3106 125.241 48.3795C125.333 48.4715 125.437 48.5405 125.552 48.5864C125.667 48.6094 125.782 48.6209 125.897 48.6209C126.08 48.6209 126.241 48.5864 126.379 48.5175C126.517 48.4485 126.655 48.3566 126.793 48.2416L127.069 48.5175C126.908 48.6784 126.724 48.8048 126.517 48.8968C126.333 48.9887 126.115 49.0347 125.862 49.0347Z" fill="#A00000"/>
<path fill-rule="evenodd" clip-rule="evenodd" d="M129.828 47.5864C129.828 47.6094 129.828 47.6324 129.828 47.6554C129.828 47.6784 129.828 47.7014 129.828 47.7244C129.828 48.0002 129.908 48.2186 130.069 48.3795C130.23 48.5405 130.448 48.6209 130.724 48.6209C130.931 48.6209 131.103 48.5979 131.241 48.552C131.402 48.483 131.552 48.391 131.69 48.2761L131.897 48.5864C131.759 48.7014 131.598 48.8048 131.414 48.8968C131.207 48.9887 130.977 49.0347 130.724 49.0347C130.517 49.0347 130.333 49.0002 130.172 48.9313C129.989 48.8623 129.839 48.7818 129.724 48.6899C129.609 48.5749 129.517 48.437 129.448 48.2761C129.379 48.1152 129.345 47.9313 129.345 47.7244C129.345 47.4945 129.391 47.2646 129.483 47.0347C129.575 46.8278 129.701 46.6324 129.862 46.4485C130.023 46.2646 130.207 46.1152 130.414 46.0002C130.644 45.9083 130.885 45.8623 131.138 45.8623C131.322 45.8623 131.494 45.8853 131.655 45.9313C131.793 46.0002 131.908 46.0807 132 46.1726C132.115 46.2876 132.195 46.414 132.241 46.552C132.287 46.6899 132.31 46.8393 132.31 47.0002C132.31 47.1152 132.299 47.2186 132.276 47.3106C132.253 47.4025 132.23 47.4945 132.207 47.5864H129.828ZM131.862 47.2416C131.885 47.1956 131.897 47.1267 131.897 47.0347C131.897 46.9198 131.874 46.8163 131.828 46.7244C131.805 46.6324 131.759 46.552 131.69 46.483C131.644 46.391 131.563 46.3336 131.448 46.3106C131.356 46.2646 131.253 46.2416 131.138 46.2416C130.977 46.2416 130.828 46.2646 130.69 46.3106C130.575 46.3566 130.46 46.4255 130.345 46.5175C130.23 46.6094 130.138 46.7244 130.069 46.8623C130 46.9772 129.943 47.1037 129.897 47.2416H131.862Z" fill="#A00000"/>
</g>
<defs>
<clipPath id="clip0_1_1754">
<rect width="138.621" height="50" fill="white"/>
</clipPath>
</defs>
</svg>
