<svg width="139" height="50" viewBox="0 0 139 50" fill="none" xmlns="http://www.w3.org/2000/svg">
<g clip-path="url(#clip0_1_66)">
<path d="M58.2069 4.86206C57.2413 4.82758 56.2758 4.7931 55.3103 4.68965C56.2758 4.5862 57.2413 4.55172 58.2069 4.51723L61.1379 4.44827C62.2184 4.42528 63.3103 4.40229 64.4138 4.3793L64 4.96551C63.0344 4.94252 62.0804 4.91953 61.1379 4.89654L58.2069 4.86206Z" fill="#A00000"/>
<path d="M49.8276 9.10346C48.4483 9.06897 47.0689 9.03449 45.7241 8.93104C47.0689 8.82759 48.4483 8.79311 49.8276 8.75863L53.9655 8.72415C56.4712 8.67817 58.9885 8.64369 61.5172 8.6207L61.069 9.27587C58.7011 9.25288 56.3333 9.2184 53.9655 9.17242L49.8276 9.10346Z" fill="#A00000"/>
<path d="M60.1034 0.586213C59.2069 0.55173 58.3448 0.517248 57.4482 0.413799C58.3448 0.310351 59.2069 0.275868 60.1034 0.275868L62.7241 0.206903C64.2643 0.160926 65.8046 0.126443 67.3448 0.103455L66.8965 0.724144C65.5172 0.724144 64.1264 0.701156 62.7241 0.655179L60.1034 0.586213Z" fill="#A00000"/>
<path d="M56.1034 12.9655C56.931 12.9425 57.7471 12.9195 58.5517 12.8965L58.1724 13.4828C57.4828 13.4598 56.7931 13.4483 56.1034 13.4483L54 13.3448C53.2759 13.3448 52.5862 13.3103 51.8621 13.2069C52.5862 13.1034 53.2759 13.069 54 13.0345L56.1034 12.9655Z" fill="#A00000"/>
<path d="M52.276 22.0345C50.5748 22.0115 48.8622 21.977 47.138 21.931L44.0346 21.8621C43.0001 21.8621 41.9656 21.8276 40.9312 21.6896C41.9656 21.5862 43.0001 21.5517 44.0346 21.5517L47.138 21.4828C49.0001 21.4368 50.8622 21.4023 52.7243 21.3793L52.276 22.0345Z" fill="#A00000"/>
<path d="M51.862 17.2069C53.1264 17.1839 54.3907 17.1609 55.6551 17.1379L55.2068 17.7586C54.1034 17.7356 52.9884 17.7127 51.862 17.6897L49.2413 17.6207C48.3792 17.5862 47.5172 17.5517 46.6206 17.4483C47.5172 17.3448 48.3792 17.3104 49.2413 17.2759L51.862 17.2069Z" fill="#A00000"/>
<path d="M65.3447 13.931L68.7585 8.65518L69.3447 13.931H65.3447Z" fill="#A00000"/>
<path d="M75.8276 8.37932L74.5862 0.103455H86.3103C80.7586 0.896558 77.3103 4.44828 75.8276 8.37932Z" fill="#A00000"/>
<path d="M94.931 17.5517L89.9655 13.6207C88.8275 15.069 87.4827 15.8621 85.8275 15.8621C83.931 15.8621 82.4482 14.5517 82.4482 12.2069C82.4482 9.27587 84.5517 6.34484 87.7586 6.34484C89.3448 6.34484 90.6207 7.20691 91.0689 8.93104L97.4482 6.13794C98.1034 9.79311 97.4482 13.7931 94.931 17.5517Z" fill="#A00000"/>
<path d="M82.9654 22.0345H77.862L77.4827 19.3448C78.8275 20.7586 80.724 21.6896 82.9654 22.0345Z" fill="#A00000"/>
<path d="M69.7585 19.1035L70.1033 22.0345H60.2068L62.1033 19.1035H69.7585Z" fill="#A00000"/>
<path fill-rule="evenodd" clip-rule="evenodd" d="M13.8621 28.5862L15.8966 42.2069H11.069L10.8621 40.4138H6.10345L4.93103 42.2069H0L9.34483 28.5862H13.8621ZM10.6207 37.2069L10.2759 33.8966L8.13793 37.2069H10.6207Z" fill="#2E2F30"/>
<path d="M31.4828 28.6897L29.3448 36.6552C28.8621 38.4483 28.1724 39.7586 27.2069 40.7242C25.931 42 24 42.4828 21.8621 42.4828C18.069 42.4828 16 40.6897 16 37.6207C16 36.931 16.1034 36.1724 16.3103 35.4483L18.1034 28.6897H22.7241L20.8276 35.7242C20.7241 36.1035 20.6552 36.4828 20.6552 36.7931C20.6552 37.8966 21.3103 38.4828 22.5172 38.4828C23.069 38.4828 23.5862 38.3104 23.9655 37.931C24.3793 37.5173 24.6552 37 24.931 35.9655L26.8966 28.6897H31.4828Z" fill="#2E2F30"/>
<path d="M43.7931 32.5173H39.7931L37.2069 42.2069H32.6551L35.2758 32.5173H31.3103L32.3103 28.6897H44.8275L43.7931 32.5173Z" fill="#2E2F30"/>
<path fill-rule="evenodd" clip-rule="evenodd" d="M58.2758 34.5517C58.2758 38.7586 54.862 42.4828 50.3103 42.4828C46.3103 42.4828 43.5862 39.8276 43.5862 36.3793C43.5862 32.1724 47 28.4138 51.5517 28.4138C55.5172 28.4138 58.2758 31.1034 58.2758 34.5517ZM53.7241 34.9655C53.7241 33.5172 52.862 32.4138 51.2414 32.4138C49.3448 32.4138 48.1379 34.2414 48.1379 35.9655C48.1379 37.3793 49 38.5172 50.6207 38.5172C52.5172 38.5172 53.7241 36.6552 53.7241 34.9655Z" fill="#2E2F30"/>
<path d="M74.5518 39.5517C73.207 41.3448 71.2415 42.5172 68.3449 42.5172C64.5518 42.5172 61.9312 40.2069 61.9312 36.5862C61.9312 32.8965 64.7932 28.4138 70.6208 28.4138C73.5518 28.4138 75.6208 29.931 76.1725 32.3448L72.138 34.1034C71.8277 33 71.0346 32.4483 70.0346 32.4483C68.0001 32.4483 66.6898 34.3103 66.6898 36.1724C66.6898 37.6552 67.6208 38.4828 68.7932 38.4828C69.8622 38.4828 70.6898 38 71.4484 37.069L74.5518 39.5517Z" fill="#2E2F30"/>
<path d="M86.931 38.5173L85.931 42.2069H74.3103L77.931 28.6897H89.4827L88.4827 32.4138H81.3793L81 33.7586H87.6207L86.7586 37.0345H80.1379L79.7241 38.5173H86.931Z" fill="#2E2F30"/>
<path d="M103.862 28.6897L100.207 42.2069H96.2069L92.9656 35.4828L91.1725 42.2069H86.6897L90.3104 28.6897H94.5518L97.6207 35.1379L99.3449 28.6897H103.862Z" fill="#2E2F30"/>
<path d="M116.172 32.5173H112.172L109.586 42.2069H105.035L107.655 32.5173H103.69L104.69 28.6897H117.207L116.172 32.5173Z" fill="#2E2F30"/>
<path d="M134.862 37.7242L136.724 42.2414H131.862L129.069 35.1379H131.724C133.241 35.1379 134 34.4483 134 33.5862C134 33.3104 133.931 33.069 133.724 32.8621C133.471 32.6092 133.023 32.4828 132.379 32.4828H128.552H121.448L121.069 33.7586H127.69L126.828 37.0345H120.207L119.793 38.5173H127L126 42.2069H114.379L118 28.6897H132.552C135.069 28.6897 136.655 29.2414 137.552 30.1379C138.31 30.8966 138.621 31.8966 138.621 32.9655C138.621 35.069 137.517 36.8966 134.862 37.7242Z" fill="#2E2F30"/>
<path d="M7.41375 44.8276H7.86203L6.75858 48.9655H6.3103L7.41375 44.8276Z" fill="#A00000"/>
<path d="M10.5862 49C10.3793 49 10.2069 48.954 10.069 48.8621C9.93103 48.7701 9.86206 48.6207 9.86206 48.4138C9.86206 48.3678 9.86206 48.3103 9.86206 48.2414C9.86206 48.1954 9.87355 48.1494 9.89654 48.1034L10.3793 46.3103H9.96551L10.069 45.8966H10.4827L10.7241 45H11.1724L10.931 45.8966H11.8965L11.7931 46.3103H10.8276L10.3448 48.069C10.3448 48.092 10.3448 48.1264 10.3448 48.1724C10.3448 48.2184 10.3448 48.2529 10.3448 48.2759C10.3448 48.3908 10.3793 48.4713 10.4483 48.5172C10.5172 48.5632 10.6207 48.5862 10.7586 48.5862C10.8736 48.5862 11.0115 48.5632 11.1724 48.5172L11.069 48.931C11 48.954 10.9195 48.977 10.8276 49C10.7586 49 10.6782 49 10.5862 49Z" fill="#A00000"/>
<path d="M14.4828 44.8276H15.0345V44.8621L14.207 46.4483H13.9656L14.4828 44.8276Z" fill="#A00000"/>
<path d="M17.6897 49.0345C17.4599 49.0345 17.23 48.9885 17.0001 48.8965C16.7702 48.8046 16.5633 48.6667 16.3794 48.4828L16.6553 48.2069C16.8392 48.3678 17.0116 48.4828 17.1725 48.5517C17.3564 48.6207 17.5403 48.6552 17.7242 48.6552C17.8162 48.6552 17.9081 48.6437 18.0001 48.6207C18.0691 48.5977 18.138 48.5632 18.207 48.5172C18.253 48.4713 18.2989 48.4138 18.3449 48.3448C18.3909 48.2759 18.4139 48.2069 18.4139 48.1379C18.4139 48.046 18.3679 47.954 18.2759 47.8621C18.207 47.7931 18.0576 47.7126 17.8277 47.6207C17.5518 47.5057 17.3334 47.3908 17.1725 47.2759C17.0346 47.1609 16.9656 47 16.9656 46.7931C16.9656 46.6552 16.9886 46.5287 17.0346 46.4138C17.1035 46.2988 17.184 46.2069 17.2759 46.1379C17.3909 46.046 17.5173 45.977 17.6553 45.931C17.7932 45.885 17.9541 45.8621 18.138 45.8621C18.3449 45.8621 18.5518 45.8965 18.7587 45.9655C18.9656 46.0575 19.1265 46.1609 19.2415 46.2759L19.0001 46.5862C18.8622 46.4713 18.7127 46.3793 18.5518 46.3103C18.4139 46.2414 18.253 46.2069 18.0691 46.2069C17.8622 46.2299 17.7012 46.2873 17.5863 46.3793C17.4713 46.4713 17.4139 46.5862 17.4139 46.7241C17.4139 46.7701 17.4254 46.8161 17.4484 46.8621C17.4713 46.885 17.5058 46.9195 17.5518 46.9655C17.5978 47.0115 17.6553 47.0575 17.7242 47.1034C17.7932 47.1494 17.8966 47.1954 18.0346 47.2414C18.3104 47.3563 18.5173 47.4713 18.6553 47.5862C18.7932 47.7011 18.8622 47.8621 18.8622 48.069C18.8622 48.2069 18.8277 48.3333 18.7587 48.4483C18.7127 48.5632 18.6323 48.6667 18.5173 48.7586C18.4024 48.8506 18.2759 48.9195 18.138 48.9655C18.0001 49.0115 17.8507 49.0345 17.6897 49.0345Z" fill="#A00000"/>
<path d="M25.5861 44.8276H26.0344L26.9309 47.069L29.0344 44.8276H29.5516L28.4482 48.9655H27.9654L28.862 45.6207L26.7585 47.8276H26.724L25.8275 45.6207L24.9309 48.9655H24.4827L25.5861 44.8276Z" fill="#A00000"/>
<path fill-rule="evenodd" clip-rule="evenodd" d="M32.6896 49.0345C32.4827 49.0345 32.2988 49 32.1379 48.931C31.977 48.8621 31.8275 48.7701 31.6896 48.6552C31.5747 48.5172 31.4827 48.3678 31.4137 48.2069C31.3448 48.046 31.3103 47.8621 31.3103 47.6552C31.3103 47.4253 31.3563 47.1954 31.4482 46.9655C31.5632 46.7586 31.7011 46.5747 31.862 46.4138C32.0229 46.2299 32.2069 46.0919 32.4137 46C32.6436 45.908 32.8735 45.8621 33.1034 45.8621C33.3103 45.8621 33.5057 45.885 33.6896 45.931C33.8505 46 34 46.1034 34.1379 46.2414C34.2528 46.3563 34.3448 46.4942 34.4138 46.6552C34.4827 46.8391 34.5172 47.023 34.5172 47.2069C34.5172 47.4598 34.4597 47.6896 34.3448 47.8965C34.2528 48.1264 34.1264 48.3218 33.9655 48.4828C33.8046 48.6437 33.6092 48.7816 33.3793 48.8965C33.1724 48.9885 32.9425 49.0345 32.6896 49.0345ZM32.7241 48.6207C32.908 48.6207 33.0804 48.5862 33.2413 48.5172C33.3793 48.4253 33.5172 48.3218 33.6551 48.2069C33.7701 48.069 33.862 47.9195 33.931 47.7586C34 47.5747 34.0344 47.4023 34.0344 47.2414C34.0344 46.9195 33.9425 46.6782 33.7586 46.5172C33.5977 46.3333 33.3678 46.2414 33.0689 46.2414C32.908 46.2414 32.7471 46.2873 32.5862 46.3793C32.4252 46.4483 32.2873 46.5517 32.1724 46.6896C32.0574 46.8046 31.9655 46.954 31.8965 47.1379C31.8275 47.2988 31.7931 47.4713 31.7931 47.6552C31.7931 47.954 31.8735 48.1954 32.0344 48.3793C32.2183 48.5402 32.4482 48.6207 32.7241 48.6207Z" fill="#A00000"/>
<path d="M37.3103 45.8966H37.7585L37.5516 46.7241C37.7355 46.4483 37.9539 46.2299 38.2068 46.069C38.4367 45.908 38.7011 45.8391 38.9999 45.8621L38.862 46.3448C38.6781 46.3448 38.5057 46.3793 38.3447 46.4483C38.1838 46.4943 38.0344 46.5862 37.8965 46.7241C37.7585 46.8391 37.6321 46.977 37.5171 47.1379C37.4022 47.3218 37.3217 47.5287 37.2758 47.7586L36.9309 48.9655H36.4827L37.3103 45.8966Z" fill="#A00000"/>
<path fill-rule="evenodd" clip-rule="evenodd" d="M41.0689 47.5862C41.0689 47.6092 41.0689 47.6322 41.0689 47.6552C41.0689 47.6782 41.0689 47.7011 41.0689 47.7241C41.0689 48 41.1493 48.2184 41.3103 48.3793C41.4712 48.5402 41.7011 48.6207 41.9999 48.6207C42.1838 48.6207 42.3562 48.5977 42.5172 48.5517C42.6551 48.4828 42.793 48.3908 42.9309 48.2759L43.1723 48.5862C43.0114 48.7011 42.839 48.8046 42.6551 48.8965C42.4712 48.9885 42.2413 49.0345 41.9654 49.0345C41.7585 49.0345 41.5746 49 41.4137 48.931C41.2528 48.8621 41.1149 48.7816 40.9999 48.6896C40.885 48.5747 40.793 48.4368 40.7241 48.2759C40.6551 48.1149 40.6206 47.931 40.6206 47.7241C40.6206 47.4942 40.6666 47.2644 40.7585 47.0345C40.8505 46.8276 40.9769 46.6322 41.1378 46.4483C41.2758 46.2644 41.4597 46.1149 41.6896 46C41.8965 45.908 42.1264 45.8621 42.3792 45.8621C42.5861 45.8621 42.7585 45.885 42.8965 45.931C43.0574 46 43.1838 46.0804 43.2758 46.1724C43.3677 46.2873 43.4367 46.4138 43.4827 46.5517C43.5516 46.6896 43.5861 46.8391 43.5861 47C43.5861 47.1149 43.5746 47.2184 43.5516 47.3103C43.5287 47.4023 43.5057 47.4942 43.4827 47.5862H41.0689ZM43.0689 47.2414C43.0919 47.1954 43.1034 47.1264 43.1034 47.0345C43.1034 46.9195 43.0919 46.8161 43.0689 46.7241C43.0229 46.6322 42.9769 46.5517 42.9309 46.4828C42.862 46.3908 42.7815 46.3333 42.6896 46.3103C42.5976 46.2644 42.4827 46.2414 42.3447 46.2414C42.1838 46.2414 42.0459 46.2644 41.9309 46.3103C41.793 46.3563 41.6666 46.4253 41.5516 46.5172C41.4597 46.6092 41.3792 46.7241 41.3103 46.8621C41.2183 46.977 41.1493 47.1034 41.1034 47.2414H43.0689Z" fill="#A00000"/>
<path d="M50.9311 45.2759H49.5173L49.6553 44.8276H52.8966L52.7932 45.2759H51.3794L50.4139 48.9655H49.9311L50.9311 45.2759Z" fill="#A00000"/>
<path d="M55.1724 44.6552H55.6206L55.1724 46.4138C55.3103 46.2529 55.4597 46.1149 55.6206 46C55.7816 45.9081 55.977 45.8621 56.2068 45.8621C56.5057 45.8621 56.7471 45.9425 56.931 46.1035C57.1149 46.2644 57.2068 46.4943 57.2068 46.7931C57.2068 46.8621 57.1953 46.9425 57.1724 47.0345C57.1494 47.1035 57.1379 47.1839 57.1379 47.2759L56.6551 48.9655H56.2068L56.6896 47.2414C56.6896 47.1954 56.7011 47.1379 56.7241 47.069C56.7241 47 56.7241 46.9425 56.7241 46.8966C56.7241 46.6897 56.6666 46.5287 56.5517 46.4138C56.4137 46.3219 56.2413 46.2759 56.0344 46.2759C55.9195 46.2759 55.8045 46.2989 55.6896 46.3448C55.5747 46.3908 55.4712 46.4598 55.3793 46.5517C55.2873 46.6207 55.1953 46.7241 55.1034 46.8621C55.0344 46.977 54.977 47.1035 54.931 47.2414L54.4827 48.9655H54.0344L55.1724 44.6552Z" fill="#A00000"/>
<path fill-rule="evenodd" clip-rule="evenodd" d="M60.207 49.0345C60.092 49.0345 59.9771 49.0115 59.8621 48.9655C59.7472 48.9425 59.6438 48.885 59.5518 48.7931C59.4598 48.7241 59.3909 48.6437 59.3449 48.5517C59.2759 48.4368 59.2415 48.3103 59.2415 48.1724C59.2415 48.0115 59.2759 47.8621 59.3449 47.7241C59.4139 47.5862 59.5058 47.4713 59.6208 47.3793C59.7587 47.2873 59.9081 47.2184 60.069 47.1724C60.23 47.1034 60.4139 47.069 60.6208 47.069C60.8047 47.069 60.9886 47.0919 61.1725 47.1379C61.3794 47.1609 61.5518 47.1954 61.6897 47.2414L61.7242 47.1724C61.7242 47.1264 61.7242 47.0804 61.7242 47.0345C61.7472 46.9885 61.7587 46.9425 61.7587 46.8965C61.7587 46.6896 61.6897 46.5287 61.5518 46.4138C61.4139 46.3218 61.207 46.2759 60.9311 46.2759C60.7702 46.2759 60.6208 46.2873 60.4828 46.3103C60.3449 46.3333 60.207 46.3678 60.069 46.4138L60.0001 46.069C60.138 46 60.2874 45.954 60.4484 45.931C60.6093 45.885 60.7932 45.8621 61.0001 45.8621C61.3909 45.8621 61.6897 45.954 61.8966 46.1379C62.1035 46.2988 62.207 46.5287 62.207 46.8276C62.207 46.9425 62.184 47.0805 62.138 47.2414L61.6552 48.9655H61.2415L61.3449 48.4828C61.207 48.6437 61.0461 48.7701 60.8621 48.8621C60.6782 48.977 60.4598 49.0345 60.207 49.0345ZM60.3449 48.6896C60.4828 48.6896 60.6093 48.6667 60.7242 48.6207C60.8621 48.5747 60.9886 48.5057 61.1035 48.4138C61.1955 48.3448 61.2874 48.2529 61.3794 48.1379C61.4713 48.023 61.5288 47.8965 61.5518 47.7586L61.6208 47.5517C61.4828 47.5057 61.3334 47.4713 61.1725 47.4483C60.9886 47.4253 60.8047 47.4138 60.6208 47.4138C60.3449 47.4138 60.1265 47.4828 59.9656 47.6207C59.8047 47.7586 59.7242 47.931 59.7242 48.1379C59.7242 48.2988 59.7817 48.4253 59.8966 48.5172C60.0116 48.6322 60.161 48.6896 60.3449 48.6896Z" fill="#A00000"/>
<path d="M65.0346 45.8965H65.5173L65.3794 46.4138C65.5173 46.2529 65.6667 46.1149 65.8277 46C65.9886 45.908 66.1955 45.8621 66.4483 45.8621C66.7242 45.8621 66.9541 45.9425 67.138 46.1034C67.3219 46.2644 67.4139 46.4942 67.4139 46.7931C67.4139 46.8621 67.4024 46.9425 67.3794 47.0345C67.3794 47.1034 67.3679 47.1839 67.3449 47.2759L66.8966 48.9655H66.4139L66.8966 47.2414C66.8966 47.1954 66.9081 47.1379 66.9311 47.069C66.9311 47 66.9311 46.9425 66.9311 46.8965C66.9311 46.6896 66.8736 46.5287 66.7587 46.4138C66.6438 46.3218 66.4713 46.2759 66.2415 46.2759C66.1265 46.2759 66.0116 46.2988 65.8966 46.3448C65.7817 46.3908 65.6782 46.4598 65.5863 46.5517C65.4943 46.6207 65.4024 46.7241 65.3104 46.8621C65.2415 46.977 65.184 47.1034 65.138 47.2414L64.6897 48.9655H64.2415L65.0346 45.8965Z" fill="#A00000"/>
<path fill-rule="evenodd" clip-rule="evenodd" d="M73.7932 49.0345C73.6552 49.0345 73.5288 49.0115 73.4138 48.9655C73.2989 48.9425 73.207 48.885 73.138 48.7931C73.046 48.7241 72.9656 48.6437 72.8966 48.5517C72.8506 48.4368 72.8276 48.3103 72.8276 48.1724C72.8276 48.0115 72.8621 47.8621 72.9311 47.7241C73.0001 47.5862 73.092 47.4713 73.2069 47.3793C73.3219 47.2873 73.4713 47.2184 73.6552 47.1724C73.8161 47.1034 73.9886 47.069 74.1725 47.069C74.3794 47.069 74.5748 47.0919 74.7587 47.1379C74.9426 47.1609 75.115 47.1954 75.2759 47.2414V47.1724C75.2989 47.1264 75.3104 47.0804 75.3104 47.0345C75.3334 46.9885 75.3449 46.9425 75.3449 46.8965C75.3449 46.6896 75.2759 46.5287 75.138 46.4138C75 46.3218 74.7932 46.2759 74.5173 46.2759C74.3334 46.2759 74.184 46.2873 74.069 46.3103C73.9311 46.3333 73.7932 46.3678 73.6552 46.4138L73.5518 46.069C73.7127 46 73.8736 45.954 74.0345 45.931C74.1955 45.885 74.3794 45.8621 74.5863 45.8621C74.9541 45.8621 75.2414 45.954 75.4483 46.1379C75.6552 46.2988 75.7587 46.5287 75.7587 46.8276C75.7587 46.9425 75.7472 47.0805 75.7242 47.2414L75.2414 48.9655H74.7932L74.9311 48.4828C74.7932 48.6437 74.6322 48.7701 74.4483 48.8621C74.2644 48.977 74.046 49.0345 73.7932 49.0345ZM73.9311 48.6896C74.069 48.6896 74.1955 48.6667 74.3104 48.6207C74.4483 48.5747 74.5748 48.5057 74.6897 48.4138C74.7817 48.3448 74.8736 48.2529 74.9656 48.1379C75.0345 48.023 75.092 47.8965 75.138 47.7586L75.207 47.5517C75.069 47.5057 74.9081 47.4713 74.7242 47.4483C74.5633 47.4253 74.3909 47.4138 74.2069 47.4138C73.9311 47.4138 73.7127 47.4828 73.5518 47.6207C73.3679 47.7586 73.2759 47.931 73.2759 48.1379C73.2759 48.2988 73.3334 48.4253 73.4483 48.5172C73.5633 48.6322 73.7242 48.6896 73.9311 48.6896Z" fill="#A00000"/>
<path d="M82.3793 44.8276H82.7931L83.6897 47.069L85.7931 44.8276H86.3104L85.2069 48.9655H84.7242L85.6207 45.6207L83.5517 47.8276H83.5173L82.6207 45.6207L81.7242 48.9655H81.2759L82.3793 44.8276Z" fill="#A00000"/>
<path fill-rule="evenodd" clip-rule="evenodd" d="M88.8967 49.0345C88.7587 49.0345 88.6323 49.0115 88.5174 48.9655C88.4024 48.9425 88.299 48.885 88.207 48.7931C88.1151 48.7241 88.0461 48.6437 88.0001 48.5517C87.9541 48.4368 87.9312 48.3103 87.9312 48.1724C87.9312 48.0115 87.9656 47.8621 88.0346 47.7241C88.1036 47.5862 88.1955 47.4713 88.3105 47.3793C88.4254 47.2873 88.5633 47.2184 88.7243 47.1724C88.8852 47.1034 89.0691 47.069 89.276 47.069C89.4829 47.069 89.6783 47.0919 89.8622 47.1379C90.0461 47.1609 90.2185 47.1954 90.3794 47.2414V47.1724C90.4024 47.1264 90.4139 47.0804 90.4139 47.0345C90.4139 46.9885 90.4139 46.9425 90.4139 46.8965C90.4139 46.6896 90.3449 46.5287 90.207 46.4138C90.0691 46.3218 89.8622 46.2759 89.5863 46.2759C89.4254 46.2759 89.276 46.2873 89.138 46.3103C89.0001 46.3333 88.8622 46.3678 88.7243 46.4138L88.6553 46.069C88.8162 46 88.9771 45.954 89.138 45.931C89.299 45.885 89.4714 45.8621 89.6553 45.8621C90.0461 45.8621 90.3449 45.954 90.5518 46.1379C90.7587 46.2988 90.8622 46.5287 90.8622 46.8276C90.8622 46.9425 90.8392 47.0805 90.7932 47.2414L90.3449 48.9655H89.8967L90.0346 48.4828C89.8967 48.6437 89.7358 48.7701 89.5518 48.8621C89.3449 48.977 89.1266 49.0345 88.8967 49.0345ZM89.0346 48.6896C89.1725 48.6896 89.299 48.6667 89.4139 48.6207C89.5288 48.5747 89.6438 48.5057 89.7587 48.4138C89.8737 48.3448 89.9656 48.2529 90.0346 48.1379C90.1266 48.023 90.1955 47.8965 90.2415 47.7586L90.276 47.5517C90.138 47.5057 89.9886 47.4713 89.8277 47.4483C89.6668 47.4253 89.4944 47.4138 89.3105 47.4138C89.0346 47.4138 88.8047 47.4828 88.6208 47.6207C88.4599 47.7586 88.3794 47.931 88.3794 48.1379C88.3794 48.2988 88.4369 48.4253 88.5518 48.5172C88.6668 48.6322 88.8277 48.6896 89.0346 48.6896Z" fill="#A00000"/>
<path d="M93.7241 45.8966H94.1724L93.9655 46.7241C94.1494 46.4483 94.3677 46.2299 94.6206 46.069C94.8505 45.908 95.1149 45.8391 95.4137 45.8621L95.2758 46.3448C95.0919 46.3448 94.9195 46.3793 94.7586 46.4483C94.5976 46.4943 94.4482 46.5862 94.3103 46.7241C94.1723 46.8391 94.0459 46.977 93.931 47.1379C93.816 47.3218 93.7356 47.5287 93.6896 47.7586L93.3448 48.9655H92.8965L93.7241 45.8966Z" fill="#A00000"/>
<path d="M98.0345 44.6552H98.4828L97.6896 47.5862L99.7586 45.8966H100.379L98.7241 47.2414L99.5862 48.9655H99.069L98.3448 47.5173L97.5517 48.1724L97.3448 48.9655H96.8621L98.0345 44.6552Z" fill="#A00000"/>
<path fill-rule="evenodd" clip-rule="evenodd" d="M102.276 47.5862C102.276 47.6092 102.276 47.6322 102.276 47.6552C102.276 47.6782 102.276 47.7011 102.276 47.7241C102.276 48 102.368 48.2184 102.552 48.3793C102.713 48.5402 102.931 48.6207 103.207 48.6207C103.414 48.6207 103.586 48.5977 103.724 48.5517C103.862 48.4828 104 48.3908 104.138 48.2759L104.379 48.5862C104.241 48.7011 104.069 48.8046 103.862 48.8965C103.678 48.9885 103.448 49.0345 103.172 49.0345C102.989 49.0345 102.805 49 102.621 48.931C102.46 48.8621 102.322 48.7816 102.207 48.6896C102.092 48.5747 102 48.4368 101.931 48.2759C101.862 48.1149 101.828 47.931 101.828 47.7241C101.828 47.4942 101.874 47.2644 101.966 47.0345C102.058 46.8276 102.184 46.6322 102.345 46.4483C102.506 46.2644 102.69 46.1149 102.897 46C103.126 45.908 103.368 45.8621 103.621 45.8621C103.805 45.8621 103.966 45.885 104.104 45.931C104.264 46 104.391 46.0804 104.483 46.1724C104.575 46.2873 104.655 46.4138 104.724 46.5517C104.77 46.6896 104.793 46.8391 104.793 47C104.793 47.1149 104.782 47.2184 104.759 47.3103C104.736 47.4023 104.713 47.4942 104.69 47.5862H102.276ZM104.276 47.2414C104.299 47.1954 104.31 47.1264 104.31 47.0345C104.31 46.9195 104.299 46.8161 104.276 46.7241C104.253 46.6322 104.207 46.5517 104.138 46.4828C104.069 46.3908 103.989 46.3333 103.897 46.3103C103.805 46.2644 103.69 46.2414 103.552 46.2414C103.414 46.2414 103.276 46.2644 103.138 46.3103C103 46.3563 102.885 46.4253 102.793 46.5172C102.678 46.6092 102.586 46.7241 102.517 46.8621C102.448 46.977 102.391 47.1034 102.345 47.2414H104.276Z" fill="#A00000"/>
<path d="M107.827 49C107.598 49 107.414 48.954 107.276 48.8621C107.138 48.7701 107.069 48.6207 107.069 48.4138C107.069 48.3678 107.069 48.3103 107.069 48.2414C107.092 48.1954 107.103 48.1494 107.103 48.1034L107.586 46.3103H107.172L107.276 45.8966H107.69L107.965 45H108.414L108.138 45.8966H109.103L109 46.3103H108.034L107.586 48.069C107.563 48.092 107.552 48.1264 107.552 48.1724C107.552 48.2184 107.552 48.2529 107.552 48.2759C107.552 48.3908 107.586 48.4713 107.655 48.5172C107.724 48.5632 107.827 48.5862 107.965 48.5862C108.103 48.5862 108.253 48.5632 108.414 48.5172L108.31 48.931C108.218 48.954 108.138 48.977 108.069 49C108 49 107.919 49 107.827 49Z" fill="#A00000"/>
<path fill-rule="evenodd" clip-rule="evenodd" d="M111.517 45.8965H111.965L111.828 46.4483C111.965 46.2644 112.126 46.1264 112.31 46.0345C112.494 45.9195 112.713 45.8621 112.965 45.8621C113.149 45.8621 113.31 45.885 113.448 45.931C113.609 46 113.736 46.0919 113.828 46.2069C113.943 46.3218 114.034 46.4598 114.103 46.6207C114.149 46.7586 114.172 46.931 114.172 47.1379C114.172 47.4138 114.126 47.6667 114.034 47.8965C113.943 48.1264 113.816 48.3218 113.655 48.4828C113.494 48.6667 113.31 48.8046 113.103 48.8965C112.897 48.9885 112.69 49.0345 112.483 49.0345C112.322 49.0345 112.172 49.0115 112.034 48.9655C111.92 48.9195 111.816 48.8621 111.724 48.7931C111.632 48.7241 111.552 48.6437 111.483 48.5517C111.414 48.4598 111.356 48.3678 111.31 48.2759L110.897 49.8965H110.448L111.517 45.8965ZM112.414 48.6207C112.598 48.6207 112.77 48.5862 112.931 48.5172C113.092 48.4253 113.23 48.3218 113.345 48.2069C113.46 48.069 113.552 47.908 113.621 47.7241C113.667 47.5402 113.69 47.3563 113.69 47.1724C113.69 46.8965 113.621 46.6667 113.483 46.4828C113.322 46.3218 113.103 46.2414 112.828 46.2414C112.667 46.2414 112.506 46.2759 112.345 46.3448C112.184 46.4368 112.034 46.5517 111.897 46.6896C111.782 46.8276 111.69 46.977 111.621 47.1379C111.529 47.3218 111.483 47.5057 111.483 47.6896C111.483 47.8046 111.506 47.9195 111.552 48.0345C111.598 48.1494 111.667 48.2529 111.759 48.3448C111.828 48.4368 111.92 48.5057 112.034 48.5517C112.149 48.5977 112.276 48.6207 112.414 48.6207Z" fill="#A00000"/>
<path d="M117.379 44.6552H117.827L116.655 48.9655H116.207L117.379 44.6552Z" fill="#A00000"/>
<path fill-rule="evenodd" clip-rule="evenodd" d="M120.31 49.0345C120.172 49.0345 120.046 49.0115 119.931 48.9655C119.816 48.9425 119.713 48.885 119.621 48.7931C119.552 48.7241 119.483 48.6437 119.414 48.5517C119.368 48.4368 119.345 48.3103 119.345 48.1724C119.345 48.0115 119.379 47.8621 119.448 47.7241C119.517 47.5862 119.609 47.4713 119.724 47.3793C119.839 47.2873 119.988 47.2184 120.172 47.1724C120.333 47.1034 120.506 47.069 120.69 47.069C120.896 47.069 121.092 47.0919 121.276 47.1379C121.46 47.1609 121.632 47.1954 121.793 47.2414V47.1724C121.816 47.1264 121.827 47.0804 121.827 47.0345C121.827 46.9885 121.827 46.9425 121.827 46.8965C121.827 46.6896 121.77 46.5287 121.655 46.4138C121.517 46.3218 121.31 46.2759 121.034 46.2759C120.85 46.2759 120.69 46.2873 120.552 46.3103C120.437 46.3333 120.31 46.3678 120.172 46.4138L120.069 46.069C120.23 46 120.391 45.954 120.552 45.931C120.713 45.885 120.896 45.8621 121.103 45.8621C121.471 45.8621 121.759 45.954 121.965 46.1379C122.172 46.2988 122.276 46.5287 122.276 46.8276C122.276 46.9425 122.253 47.0805 122.207 47.2414L121.759 48.9655H121.31L121.448 48.4828C121.31 48.6437 121.149 48.7701 120.965 48.8621C120.782 48.977 120.563 49.0345 120.31 49.0345ZM120.448 48.6896C120.586 48.6896 120.713 48.6667 120.827 48.6207C120.965 48.5747 121.08 48.5057 121.172 48.4138C121.287 48.3448 121.391 48.2529 121.483 48.1379C121.552 48.023 121.609 47.8965 121.655 47.7586L121.724 47.5517C121.586 47.5057 121.425 47.4713 121.241 47.4483C121.08 47.4253 120.908 47.4138 120.724 47.4138C120.448 47.4138 120.23 47.4828 120.069 47.6207C119.885 47.7586 119.793 47.931 119.793 48.1379C119.793 48.2988 119.85 48.4253 119.965 48.5172C120.08 48.6322 120.241 48.6896 120.448 48.6896Z" fill="#A00000"/>
<path d="M125.862 49.0345C125.678 49.0345 125.506 49 125.345 48.931C125.184 48.885 125.046 48.8046 124.931 48.6896C124.793 48.5747 124.69 48.4368 124.621 48.2759C124.552 48.0919 124.517 47.8965 124.517 47.6896C124.517 47.4598 124.563 47.2299 124.655 47C124.747 46.7701 124.874 46.5747 125.035 46.4138C125.195 46.2299 125.391 46.0919 125.621 46C125.828 45.908 126.058 45.8621 126.31 45.8621C126.471 45.8621 126.609 45.8736 126.724 45.8965C126.862 45.9425 126.977 46 127.069 46.069C127.184 46.1379 127.276 46.2069 127.345 46.2759C127.414 46.3678 127.471 46.4598 127.517 46.5517L127.138 46.7931C127.069 46.6322 126.966 46.5057 126.828 46.4138C126.69 46.2988 126.506 46.2414 126.276 46.2414C126.092 46.2414 125.931 46.2873 125.793 46.3793C125.632 46.4483 125.494 46.5517 125.379 46.6896C125.241 46.8046 125.138 46.954 125.069 47.1379C125 47.3218 124.966 47.5057 124.966 47.6896C124.966 47.8276 124.989 47.9655 125.035 48.1034C125.104 48.2184 125.173 48.3103 125.241 48.3793C125.333 48.4713 125.437 48.5402 125.552 48.5862C125.667 48.6092 125.782 48.6207 125.897 48.6207C126.081 48.6207 126.241 48.5862 126.379 48.5172C126.517 48.4483 126.655 48.3563 126.793 48.2414L127.069 48.5172C126.908 48.6782 126.724 48.8046 126.517 48.8965C126.333 48.9885 126.115 49.0345 125.862 49.0345Z" fill="#A00000"/>
<path fill-rule="evenodd" clip-rule="evenodd" d="M129.827 47.5862C129.827 47.6092 129.827 47.6322 129.827 47.6552C129.827 47.6782 129.827 47.7011 129.827 47.7241C129.827 48 129.908 48.2184 130.069 48.3793C130.23 48.5402 130.448 48.6207 130.724 48.6207C130.931 48.6207 131.103 48.5977 131.241 48.5517C131.402 48.4828 131.552 48.3908 131.69 48.2759L131.896 48.5862C131.759 48.7011 131.598 48.8046 131.414 48.8965C131.207 48.9885 130.977 49.0345 130.724 49.0345C130.517 49.0345 130.333 49 130.172 48.931C129.988 48.8621 129.839 48.7816 129.724 48.6896C129.609 48.5747 129.517 48.4368 129.448 48.2759C129.379 48.1149 129.345 47.931 129.345 47.7241C129.345 47.4942 129.391 47.2644 129.483 47.0345C129.575 46.8276 129.701 46.6322 129.862 46.4483C130.023 46.2644 130.207 46.1149 130.414 46C130.644 45.908 130.885 45.8621 131.138 45.8621C131.322 45.8621 131.494 45.885 131.655 45.931C131.793 46 131.908 46.0804 132 46.1724C132.115 46.2873 132.195 46.4138 132.241 46.5517C132.287 46.6896 132.31 46.8391 132.31 47C132.31 47.1149 132.299 47.2184 132.276 47.3103C132.253 47.4023 132.23 47.4942 132.207 47.5862H129.827ZM131.862 47.2414C131.885 47.1954 131.896 47.1264 131.896 47.0345C131.896 46.9195 131.873 46.8161 131.827 46.7241C131.804 46.6322 131.759 46.5517 131.69 46.4828C131.644 46.3908 131.563 46.3333 131.448 46.3103C131.356 46.2644 131.253 46.2414 131.138 46.2414C130.977 46.2414 130.827 46.2644 130.69 46.3103C130.575 46.3563 130.46 46.4253 130.345 46.5172C130.23 46.6092 130.138 46.7241 130.069 46.8621C130 46.977 129.942 47.1034 129.896 47.2414H131.862Z" fill="#A00000"/>
</g>
<defs>
<clipPath id="clip0_1_66">
<rect width="138.621" height="50" fill="white"/>
</clipPath>
</defs>
</svg>
